M48
; DRILL file {KiCad 8.0.3} date 2024-10-04T23:37:35+0200
; FORMAT={-:-/ absolute / inch / decimal}
; #@! TF.CreationDate,2024-10-04T23:37:35+02:00
; #@! TF.GenerationSoftware,Kicad,Pcbnew,8.0.3
; #@! TF.FileFunction,NonPlated,1,2,NPTH
FMAT,2
INCH
; #@! TA.AperFunction,NonPlated,NPTH,ComponentDrill
T1C0.0197
%
G90
G05
T1
X8.405Y-12.0079
X8.405Y-12.126
X8.4346Y-12.126
X8.435Y-12.0079
X8.4646Y-12.0079
X8.4646Y-12.126
X8.4941Y-12.0079
X8.4941Y-12.126
X8.5246Y-12.0079
X8.5246Y-12.126
X9.9798Y-12.0079
X9.9798Y-12.126
X10.0094Y-12.126
X10.0098Y-12.0079
X10.0394Y-12.0079
X10.0394Y-12.126
X10.0689Y-12.0079
X10.0689Y-12.126
X10.0994Y-12.0079
X10.0994Y-12.126
X11.5546Y-12.0079
X11.5546Y-12.126
X11.5842Y-12.126
X11.5846Y-12.0079
X11.6142Y-12.0079
X11.6142Y-12.126
X11.6437Y-12.0079
X11.6437Y-12.126
X11.6742Y-12.0079
X11.6742Y-12.126
M30
