%TF.GenerationSoftware,KiCad,Pcbnew,8.0.3*%
%TF.CreationDate,2024-10-04T23:37:14+02:00*%
%TF.ProjectId,Ovve_Leds,4f767665-5f4c-4656-9473-2e6b69636164,rev?*%
%TF.SameCoordinates,Original*%
%TF.FileFunction,Soldermask,Top*%
%TF.FilePolarity,Negative*%
%FSLAX46Y46*%
G04 Gerber Fmt 4.6, Leading zero omitted, Abs format (unit mm)*
G04 Created by KiCad (PCBNEW 8.0.3) date 2024-10-04 23:37:14*
%MOMM*%
%LPD*%
G01*
G04 APERTURE LIST*
G04 Aperture macros list*
%AMRoundRect*
0 Rectangle with rounded corners*
0 $1 Rounding radius*
0 $2 $3 $4 $5 $6 $7 $8 $9 X,Y pos of 4 corners*
0 Add a 4 corners polygon primitive as box body*
4,1,4,$2,$3,$4,$5,$6,$7,$8,$9,$2,$3,0*
0 Add four circle primitives for the rounded corners*
1,1,$1+$1,$2,$3*
1,1,$1+$1,$4,$5*
1,1,$1+$1,$6,$7*
1,1,$1+$1,$8,$9*
0 Add four rect primitives between the rounded corners*
20,1,$1+$1,$2,$3,$4,$5,0*
20,1,$1+$1,$4,$5,$6,$7,0*
20,1,$1+$1,$6,$7,$8,$9,0*
20,1,$1+$1,$8,$9,$2,$3,0*%
G04 Aperture macros list end*
%ADD10O,1.600000X1.600000*%
%ADD11R,1.600000X1.600000*%
%ADD12R,1.700000X1.700000*%
%ADD13O,1.700000X1.700000*%
%ADD14C,0.500000*%
%ADD15R,1.800000X1.800000*%
%ADD16C,1.800000*%
%ADD17RoundRect,0.200000X0.200000X0.275000X-0.200000X0.275000X-0.200000X-0.275000X0.200000X-0.275000X0*%
%ADD18C,9.200000*%
%ADD19RoundRect,0.225000X-0.225000X-0.250000X0.225000X-0.250000X0.225000X0.250000X-0.225000X0.250000X0*%
%ADD20O,3.200000X3.200000*%
%ADD21R,3.200000X3.200000*%
G04 APERTURE END LIST*
D10*
%TO.C,A1*%
X276760000Y-345400000D03*
X276760000Y-342860000D03*
X276760000Y-340320000D03*
X276760000Y-337780000D03*
X276760000Y-335240000D03*
X276760000Y-332700000D03*
X276760000Y-330160000D03*
X276760000Y-327620000D03*
X276760000Y-325080000D03*
X276760000Y-322540000D03*
X276760000Y-320000000D03*
X276760000Y-317460000D03*
X276760000Y-314920000D03*
X276760000Y-312380000D03*
X276760000Y-309840000D03*
X292000000Y-309840000D03*
X292000000Y-312380000D03*
X292000000Y-314920000D03*
X292000000Y-317460000D03*
X292000000Y-320000000D03*
X292000000Y-322540000D03*
X292000000Y-325080000D03*
X292000000Y-327620000D03*
X292000000Y-330160000D03*
X292000000Y-332700000D03*
X292000000Y-335240000D03*
X292000000Y-337780000D03*
X292000000Y-340320000D03*
X292000000Y-342860000D03*
D11*
X292000000Y-345400000D03*
%TD*%
D12*
%TO.C,J4*%
X233620000Y-302625000D03*
D13*
X231080000Y-302625000D03*
X228540000Y-302625000D03*
X226000000Y-302625000D03*
%TD*%
D14*
%TO.C,mouse-bite-3mm-slot*%
X213488000Y-305000000D03*
X213488000Y-308000000D03*
X214238000Y-308000000D03*
X214250000Y-305000000D03*
X215000000Y-305000000D03*
X215000000Y-308000000D03*
X215750000Y-305000000D03*
X215750000Y-308000000D03*
X216524000Y-305000000D03*
X216524000Y-308000000D03*
%TD*%
%TO.C,mouse-bite-3mm-slot*%
X293488000Y-305000000D03*
X293488000Y-308000000D03*
X294238000Y-308000000D03*
X294250000Y-305000000D03*
X295000000Y-305000000D03*
X295000000Y-308000000D03*
X295750000Y-305000000D03*
X295750000Y-308000000D03*
X296524000Y-305000000D03*
X296524000Y-308000000D03*
%TD*%
%TO.C,mouse-bite-3mm-slot*%
X254250000Y-305000000D03*
X254238000Y-308000000D03*
X255000000Y-305000000D03*
X253488000Y-305000000D03*
X253488000Y-308000000D03*
X255000000Y-308000000D03*
X255750000Y-308000000D03*
X255750000Y-305000000D03*
X256524000Y-305000000D03*
X256524000Y-308000000D03*
%TD*%
D15*
%TO.C,D12*%
X285000000Y-233000000D03*
D16*
X285000000Y-230460000D03*
%TD*%
D17*
%TO.C,R11*%
X267000000Y-227000000D03*
X265350000Y-227000000D03*
%TD*%
D15*
%TO.C,D14*%
X245000000Y-260540000D03*
D16*
X245000000Y-258000000D03*
%TD*%
D15*
%TO.C,D13*%
X225000000Y-260540000D03*
D16*
X225000000Y-258000000D03*
%TD*%
D17*
%TO.C,R7*%
X266825000Y-200000000D03*
X265175000Y-200000000D03*
%TD*%
D15*
%TO.C,D5*%
X225000000Y-206000000D03*
D16*
X225000000Y-203460000D03*
%TD*%
D17*
%TO.C,R5*%
X226825000Y-200000000D03*
X225175000Y-200000000D03*
%TD*%
D15*
%TO.C,D11*%
X265000000Y-233000000D03*
D16*
X265000000Y-230460000D03*
%TD*%
D17*
%TO.C,R2*%
X246650000Y-172000000D03*
X245000000Y-172000000D03*
%TD*%
%TO.C,R17*%
X227000000Y-282000000D03*
X225350000Y-282000000D03*
%TD*%
%TO.C,R4*%
X286650000Y-172000000D03*
X285000000Y-172000000D03*
%TD*%
D11*
%TO.C,U1*%
X240125000Y-165800000D03*
D10*
X242665000Y-165800000D03*
X245205000Y-165800000D03*
X247745000Y-165800000D03*
X250285000Y-165800000D03*
X252825000Y-165800000D03*
X255365000Y-165800000D03*
X257905000Y-165800000D03*
X257905000Y-158180000D03*
X255365000Y-158180000D03*
X252825000Y-158180000D03*
X250285000Y-158180000D03*
X247745000Y-158180000D03*
X245205000Y-158180000D03*
X242665000Y-158180000D03*
X240125000Y-158180000D03*
%TD*%
D15*
%TO.C,D15*%
X265000000Y-260500000D03*
D16*
X265000000Y-257960000D03*
%TD*%
D17*
%TO.C,R1*%
X226650000Y-172000000D03*
X225000000Y-172000000D03*
%TD*%
D15*
%TO.C,D2*%
X245000000Y-178000000D03*
D16*
X245000000Y-175460000D03*
%TD*%
D17*
%TO.C,R9*%
X226650000Y-227000000D03*
X225000000Y-227000000D03*
%TD*%
D15*
%TO.C,D4*%
X285000000Y-178000000D03*
D16*
X285000000Y-175460000D03*
%TD*%
D18*
%TO.C,H8*%
X299000000Y-299000000D03*
%TD*%
%TO.C,H3*%
X211000000Y-314000000D03*
%TD*%
D17*
%TO.C,R12*%
X287000000Y-227000000D03*
X285350000Y-227000000D03*
%TD*%
D15*
%TO.C,D8*%
X285000000Y-206000000D03*
D16*
X285000000Y-203460000D03*
%TD*%
D15*
%TO.C,D17*%
X225000000Y-288540000D03*
D16*
X225000000Y-286000000D03*
%TD*%
D15*
%TO.C,D10*%
X245000000Y-233000000D03*
D16*
X245000000Y-230460000D03*
%TD*%
D15*
%TO.C,D6*%
X245000000Y-206000000D03*
D16*
X245000000Y-203460000D03*
%TD*%
D15*
%TO.C,D20*%
X285000000Y-288540000D03*
D16*
X285000000Y-286000000D03*
%TD*%
D17*
%TO.C,R10*%
X246825000Y-227000000D03*
X245175000Y-227000000D03*
%TD*%
D12*
%TO.C,J3*%
X226200000Y-157375000D03*
D13*
X228740000Y-157375000D03*
X231280000Y-157375000D03*
X233820000Y-157375000D03*
%TD*%
D17*
%TO.C,R13*%
X226825000Y-254000000D03*
X225175000Y-254000000D03*
%TD*%
D15*
%TO.C,D19*%
X265000000Y-288540000D03*
D16*
X265000000Y-286000000D03*
%TD*%
D18*
%TO.C,H7*%
X211000000Y-299000000D03*
%TD*%
%TO.C,H1*%
X299000000Y-314000000D03*
%TD*%
D15*
%TO.C,D16*%
X285000000Y-260500000D03*
D16*
X285000000Y-257960000D03*
%TD*%
D15*
%TO.C,D9*%
X225000000Y-233000000D03*
D16*
X225000000Y-230460000D03*
%TD*%
D17*
%TO.C,R18*%
X246825000Y-282000000D03*
X245175000Y-282000000D03*
%TD*%
D15*
%TO.C,D7*%
X265000000Y-206000000D03*
D16*
X265000000Y-203460000D03*
%TD*%
D17*
%TO.C,R16*%
X286825000Y-254000000D03*
X285175000Y-254000000D03*
%TD*%
%TO.C,R14*%
X247000000Y-254000000D03*
X245350000Y-254000000D03*
%TD*%
D18*
%TO.C,H4*%
X211000000Y-370000000D03*
%TD*%
D17*
%TO.C,R20*%
X287000000Y-282000000D03*
X285350000Y-282000000D03*
%TD*%
D18*
%TO.C,H6*%
X299000000Y-161000000D03*
%TD*%
%TO.C,H2*%
X299000000Y-370000000D03*
%TD*%
D17*
%TO.C,R19*%
X267000000Y-282000000D03*
X265350000Y-282000000D03*
%TD*%
%TO.C,R6*%
X246650000Y-200000000D03*
X245000000Y-200000000D03*
%TD*%
D19*
%TO.C,C2*%
X240450000Y-168000000D03*
X242000000Y-168000000D03*
%TD*%
D15*
%TO.C,D3*%
X265000000Y-178000000D03*
D16*
X265000000Y-175460000D03*
%TD*%
D17*
%TO.C,R3*%
X266650000Y-172000000D03*
X265000000Y-172000000D03*
%TD*%
D20*
%TO.C,D39*%
X292620000Y-358000000D03*
D21*
X277380000Y-358000000D03*
%TD*%
D15*
%TO.C,D18*%
X245000000Y-288540000D03*
D16*
X245000000Y-286000000D03*
%TD*%
D15*
%TO.C,D1*%
X225000000Y-178000000D03*
D16*
X225000000Y-175460000D03*
%TD*%
D13*
%TO.C,J2*%
X207000000Y-329460000D03*
X207000000Y-332000000D03*
X207000000Y-334540000D03*
D12*
X207000000Y-337080000D03*
%TD*%
D18*
%TO.C,H5*%
X211000000Y-161000000D03*
%TD*%
D17*
%TO.C,R15*%
X267000000Y-254000000D03*
X265350000Y-254000000D03*
%TD*%
D13*
%TO.C,J8*%
X283735000Y-374625000D03*
D12*
X286275000Y-374625000D03*
%TD*%
D17*
%TO.C,R8*%
X287000000Y-200000000D03*
X285350000Y-200000000D03*
%TD*%
M02*
