%TF.GenerationSoftware,KiCad,Pcbnew,8.0.3*%
%TF.CreationDate,2024-10-04T23:37:14+02:00*%
%TF.ProjectId,Ovve_Leds,4f767665-5f4c-4656-9473-2e6b69636164,rev?*%
%TF.SameCoordinates,Original*%
%TF.FileFunction,Copper,L1,Top*%
%TF.FilePolarity,Positive*%
%FSLAX46Y46*%
G04 Gerber Fmt 4.6, Leading zero omitted, Abs format (unit mm)*
G04 Created by KiCad (PCBNEW 8.0.3) date 2024-10-04 23:37:14*
%MOMM*%
%LPD*%
G01*
G04 APERTURE LIST*
G04 Aperture macros list*
%AMRoundRect*
0 Rectangle with rounded corners*
0 $1 Rounding radius*
0 $2 $3 $4 $5 $6 $7 $8 $9 X,Y pos of 4 corners*
0 Add a 4 corners polygon primitive as box body*
4,1,4,$2,$3,$4,$5,$6,$7,$8,$9,$2,$3,0*
0 Add four circle primitives for the rounded corners*
1,1,$1+$1,$2,$3*
1,1,$1+$1,$4,$5*
1,1,$1+$1,$6,$7*
1,1,$1+$1,$8,$9*
0 Add four rect primitives between the rounded corners*
20,1,$1+$1,$2,$3,$4,$5,0*
20,1,$1+$1,$4,$5,$6,$7,0*
20,1,$1+$1,$6,$7,$8,$9,0*
20,1,$1+$1,$8,$9,$2,$3,0*%
G04 Aperture macros list end*
%TA.AperFunction,ComponentPad*%
%ADD10O,1.600000X1.600000*%
%TD*%
%TA.AperFunction,ComponentPad*%
%ADD11R,1.600000X1.600000*%
%TD*%
%TA.AperFunction,ComponentPad*%
%ADD12R,1.700000X1.700000*%
%TD*%
%TA.AperFunction,ComponentPad*%
%ADD13O,1.700000X1.700000*%
%TD*%
%TA.AperFunction,ComponentPad*%
%ADD14R,1.800000X1.800000*%
%TD*%
%TA.AperFunction,ComponentPad*%
%ADD15C,1.800000*%
%TD*%
%TA.AperFunction,SMDPad,CuDef*%
%ADD16RoundRect,0.200000X0.200000X0.275000X-0.200000X0.275000X-0.200000X-0.275000X0.200000X-0.275000X0*%
%TD*%
%TA.AperFunction,ComponentPad*%
%ADD17C,9.200000*%
%TD*%
%TA.AperFunction,SMDPad,CuDef*%
%ADD18RoundRect,0.225000X-0.225000X-0.250000X0.225000X-0.250000X0.225000X0.250000X-0.225000X0.250000X0*%
%TD*%
%TA.AperFunction,ComponentPad*%
%ADD19O,3.200000X3.200000*%
%TD*%
%TA.AperFunction,ComponentPad*%
%ADD20R,3.200000X3.200000*%
%TD*%
%TA.AperFunction,ViaPad*%
%ADD21C,1.000000*%
%TD*%
%TA.AperFunction,ViaPad*%
%ADD22C,0.600000*%
%TD*%
%TA.AperFunction,Conductor*%
%ADD23C,0.200000*%
%TD*%
%TA.AperFunction,Conductor*%
%ADD24C,0.500000*%
%TD*%
%TA.AperFunction,Conductor*%
%ADD25C,0.300000*%
%TD*%
G04 APERTURE END LIST*
D10*
%TO.P,A1,30,VIN*%
%TO.N,unconnected-(A1-VIN-Pad30)*%
X276760000Y-345400000D03*
%TO.P,A1,29,GND*%
%TO.N,GND*%
X276760000Y-342860000D03*
%TO.P,A1,28,~{RESET}*%
%TO.N,unconnected-(A1-~{RESET}-Pad28)*%
X276760000Y-340320000D03*
%TO.P,A1,27,+5V*%
%TO.N,+5V*%
X276760000Y-337780000D03*
%TO.P,A1,26,A7*%
%TO.N,unconnected-(A1-A7-Pad26)*%
X276760000Y-335240000D03*
%TO.P,A1,25,A6*%
%TO.N,unconnected-(A1-A6-Pad25)*%
X276760000Y-332700000D03*
%TO.P,A1,24,A5*%
%TO.N,unconnected-(A1-A5-Pad24)*%
X276760000Y-330160000D03*
%TO.P,A1,23,A4*%
%TO.N,unconnected-(A1-A4-Pad23)*%
X276760000Y-327620000D03*
%TO.P,A1,22,A3*%
%TO.N,unconnected-(A1-A3-Pad22)*%
X276760000Y-325080000D03*
%TO.P,A1,21,A2*%
%TO.N,unconnected-(A1-A2-Pad21)*%
X276760000Y-322540000D03*
%TO.P,A1,20,A1*%
%TO.N,unconnected-(A1-A1-Pad20)*%
X276760000Y-320000000D03*
%TO.P,A1,19,A0*%
%TO.N,unconnected-(A1-A0-Pad19)*%
X276760000Y-317460000D03*
%TO.P,A1,18,AREF*%
%TO.N,unconnected-(A1-AREF-Pad18)*%
X276760000Y-314920000D03*
%TO.P,A1,17,3V3*%
%TO.N,unconnected-(A1-3V3-Pad17)*%
X276760000Y-312380000D03*
%TO.P,A1,16,D13*%
%TO.N,unconnected-(A1-D13-Pad16)*%
X276760000Y-309840000D03*
%TO.P,A1,15,D12*%
%TO.N,unconnected-(A1-D12-Pad15)*%
X292000000Y-309840000D03*
%TO.P,A1,14,D11*%
%TO.N,unconnected-(A1-D11-Pad14)*%
X292000000Y-312380000D03*
%TO.P,A1,13,D10*%
%TO.N,unconnected-(A1-D10-Pad13)*%
X292000000Y-314920000D03*
%TO.P,A1,12,D9*%
%TO.N,unconnected-(A1-D9-Pad12)*%
X292000000Y-317460000D03*
%TO.P,A1,11,D8*%
%TO.N,unconnected-(A1-D8-Pad11)*%
X292000000Y-320000000D03*
%TO.P,A1,10,D7*%
%TO.N,unconnected-(A1-D7-Pad10)*%
X292000000Y-322540000D03*
%TO.P,A1,9,D6*%
%TO.N,unconnected-(A1-D6-Pad9)*%
X292000000Y-325080000D03*
%TO.P,A1,8,D5*%
%TO.N,unconnected-(A1-D5-Pad8)*%
X292000000Y-327620000D03*
%TO.P,A1,7,D4*%
%TO.N,unconnected-(A1-D4-Pad7)*%
X292000000Y-330160000D03*
%TO.P,A1,6,D3*%
%TO.N,/Arduino_Power_K_letter/CLK*%
X292000000Y-332700000D03*
%TO.P,A1,5,D2*%
%TO.N,/Arduino_Power_K_letter/DATA*%
X292000000Y-335240000D03*
%TO.P,A1,4,GND*%
%TO.N,GND*%
X292000000Y-337780000D03*
%TO.P,A1,3,~{RESET}*%
%TO.N,unconnected-(A1-~{RESET}-Pad3)*%
X292000000Y-340320000D03*
%TO.P,A1,2,D0/RX*%
%TO.N,unconnected-(A1-D0{slash}RX-Pad2)*%
X292000000Y-342860000D03*
D11*
%TO.P,A1,1,D1/TX*%
%TO.N,unconnected-(A1-D1{slash}TX-Pad1)*%
X292000000Y-345400000D03*
%TD*%
D12*
%TO.P,J4,1,Pin_1*%
%TO.N,/A_letter/LED5*%
X233620000Y-302625000D03*
D13*
%TO.P,J4,2,Pin_2*%
%TO.N,/A_letter/CLK*%
X231080000Y-302625000D03*
%TO.P,J4,3,Pin_3*%
%TO.N,+5V*%
X228540000Y-302625000D03*
%TO.P,J4,4,Pin_4*%
%TO.N,GND*%
X226000000Y-302625000D03*
%TD*%
D14*
%TO.P,D12,1,K*%
%TO.N,GND*%
X285000000Y-233000000D03*
D15*
%TO.P,D12,2,A*%
%TO.N,Net-(D12-A)*%
X285000000Y-230460000D03*
%TD*%
D16*
%TO.P,R11,1*%
%TO.N,/A_letter/LED3*%
X267000000Y-227000000D03*
%TO.P,R11,2*%
%TO.N,Net-(D11-A)*%
X265350000Y-227000000D03*
%TD*%
D14*
%TO.P,D14,1,K*%
%TO.N,GND*%
X245000000Y-260540000D03*
D15*
%TO.P,D14,2,A*%
%TO.N,Net-(D14-A)*%
X245000000Y-258000000D03*
%TD*%
D14*
%TO.P,D13,1,K*%
%TO.N,GND*%
X225000000Y-260540000D03*
D15*
%TO.P,D13,2,A*%
%TO.N,Net-(D13-A)*%
X225000000Y-258000000D03*
%TD*%
D16*
%TO.P,R7,1*%
%TO.N,/A_letter/LED2*%
X266825000Y-200000000D03*
%TO.P,R7,2*%
%TO.N,Net-(D7-A)*%
X265175000Y-200000000D03*
%TD*%
D14*
%TO.P,D5,1,K*%
%TO.N,GND*%
X225000000Y-206000000D03*
D15*
%TO.P,D5,2,A*%
%TO.N,Net-(D5-A)*%
X225000000Y-203460000D03*
%TD*%
D16*
%TO.P,R5,1*%
%TO.N,/A_letter/LED2*%
X226825000Y-200000000D03*
%TO.P,R5,2*%
%TO.N,Net-(D5-A)*%
X225175000Y-200000000D03*
%TD*%
D14*
%TO.P,D11,1,K*%
%TO.N,GND*%
X265000000Y-233000000D03*
D15*
%TO.P,D11,2,A*%
%TO.N,Net-(D11-A)*%
X265000000Y-230460000D03*
%TD*%
D16*
%TO.P,R2,1*%
%TO.N,/A_letter/LED1*%
X246650000Y-172000000D03*
%TO.P,R2,2*%
%TO.N,Net-(D2-A)*%
X245000000Y-172000000D03*
%TD*%
%TO.P,R17,1*%
%TO.N,/A_letter/LED5*%
X227000000Y-282000000D03*
%TO.P,R17,2*%
%TO.N,Net-(D17-A)*%
X225350000Y-282000000D03*
%TD*%
%TO.P,R4,1*%
%TO.N,/A_letter/LED1*%
X286650000Y-172000000D03*
%TO.P,R4,2*%
%TO.N,Net-(D4-A)*%
X285000000Y-172000000D03*
%TD*%
D11*
%TO.P,U1,1,~{Mr}*%
%TO.N,+5V*%
X240125000Y-165800000D03*
D10*
%TO.P,U1,2,Q0*%
%TO.N,/A_letter/LED1*%
X242665000Y-165800000D03*
%TO.P,U1,3,D0*%
%TO.N,/A_letter/DATA*%
X245205000Y-165800000D03*
%TO.P,U1,4,D1*%
%TO.N,/A_letter/LED1*%
X247745000Y-165800000D03*
%TO.P,U1,5,Q1*%
%TO.N,/A_letter/LED2*%
X250285000Y-165800000D03*
%TO.P,U1,6,D2*%
X252825000Y-165800000D03*
%TO.P,U1,7,Q2*%
%TO.N,/A_letter/LED3*%
X255365000Y-165800000D03*
%TO.P,U1,8,GND*%
%TO.N,GND*%
X257905000Y-165800000D03*
%TO.P,U1,9,Cp*%
%TO.N,/A_letter/CLK*%
X257905000Y-158180000D03*
%TO.P,U1,10,Q3*%
%TO.N,/A_letter/LED4*%
X255365000Y-158180000D03*
%TO.P,U1,11,D3*%
%TO.N,/A_letter/LED3*%
X252825000Y-158180000D03*
%TO.P,U1,12,Q4*%
%TO.N,/A_letter/LED5*%
X250285000Y-158180000D03*
%TO.P,U1,13,D4*%
%TO.N,/A_letter/LED4*%
X247745000Y-158180000D03*
%TO.P,U1,14,D5*%
%TO.N,GND*%
X245205000Y-158180000D03*
%TO.P,U1,15,Q5*%
%TO.N,unconnected-(U1-Q5-Pad15)*%
X242665000Y-158180000D03*
%TO.P,U1,16,VCC*%
%TO.N,+5V*%
X240125000Y-158180000D03*
%TD*%
D14*
%TO.P,D15,1,K*%
%TO.N,GND*%
X265000000Y-260500000D03*
D15*
%TO.P,D15,2,A*%
%TO.N,Net-(D15-A)*%
X265000000Y-257960000D03*
%TD*%
D16*
%TO.P,R1,1*%
%TO.N,/A_letter/LED1*%
X226650000Y-172000000D03*
%TO.P,R1,2*%
%TO.N,Net-(D1-A)*%
X225000000Y-172000000D03*
%TD*%
D14*
%TO.P,D2,1,K*%
%TO.N,GND*%
X245000000Y-178000000D03*
D15*
%TO.P,D2,2,A*%
%TO.N,Net-(D2-A)*%
X245000000Y-175460000D03*
%TD*%
D16*
%TO.P,R9,1*%
%TO.N,/A_letter/LED3*%
X226650000Y-227000000D03*
%TO.P,R9,2*%
%TO.N,Net-(D9-A)*%
X225000000Y-227000000D03*
%TD*%
D14*
%TO.P,D4,1,K*%
%TO.N,GND*%
X285000000Y-178000000D03*
D15*
%TO.P,D4,2,A*%
%TO.N,Net-(D4-A)*%
X285000000Y-175460000D03*
%TD*%
D17*
%TO.P,H8,1*%
%TO.N,N/C*%
X299000000Y-299000000D03*
%TD*%
%TO.P,H3,1*%
%TO.N,N/C*%
X211000000Y-314000000D03*
%TD*%
D16*
%TO.P,R12,1*%
%TO.N,/A_letter/LED3*%
X287000000Y-227000000D03*
%TO.P,R12,2*%
%TO.N,Net-(D12-A)*%
X285350000Y-227000000D03*
%TD*%
D14*
%TO.P,D8,1,K*%
%TO.N,GND*%
X285000000Y-206000000D03*
D15*
%TO.P,D8,2,A*%
%TO.N,Net-(D8-A)*%
X285000000Y-203460000D03*
%TD*%
D14*
%TO.P,D17,1,K*%
%TO.N,GND*%
X225000000Y-288540000D03*
D15*
%TO.P,D17,2,A*%
%TO.N,Net-(D17-A)*%
X225000000Y-286000000D03*
%TD*%
D14*
%TO.P,D10,1,K*%
%TO.N,GND*%
X245000000Y-233000000D03*
D15*
%TO.P,D10,2,A*%
%TO.N,Net-(D10-A)*%
X245000000Y-230460000D03*
%TD*%
D14*
%TO.P,D6,1,K*%
%TO.N,GND*%
X245000000Y-206000000D03*
D15*
%TO.P,D6,2,A*%
%TO.N,Net-(D6-A)*%
X245000000Y-203460000D03*
%TD*%
D14*
%TO.P,D20,1,K*%
%TO.N,GND*%
X285000000Y-288540000D03*
D15*
%TO.P,D20,2,A*%
%TO.N,Net-(D20-A)*%
X285000000Y-286000000D03*
%TD*%
D16*
%TO.P,R10,1*%
%TO.N,/A_letter/LED3*%
X246825000Y-227000000D03*
%TO.P,R10,2*%
%TO.N,Net-(D10-A)*%
X245175000Y-227000000D03*
%TD*%
D12*
%TO.P,J3,1,Pin_1*%
%TO.N,GND*%
X226200000Y-157375000D03*
D13*
%TO.P,J3,2,Pin_2*%
%TO.N,+5V*%
X228740000Y-157375000D03*
%TO.P,J3,3,Pin_3*%
%TO.N,/A_letter/CLK*%
X231280000Y-157375000D03*
%TO.P,J3,4,Pin_4*%
%TO.N,/A_letter/DATA*%
X233820000Y-157375000D03*
%TD*%
D16*
%TO.P,R13,1*%
%TO.N,/A_letter/LED4*%
X226825000Y-254000000D03*
%TO.P,R13,2*%
%TO.N,Net-(D13-A)*%
X225175000Y-254000000D03*
%TD*%
D14*
%TO.P,D19,1,K*%
%TO.N,GND*%
X265000000Y-288540000D03*
D15*
%TO.P,D19,2,A*%
%TO.N,Net-(D19-A)*%
X265000000Y-286000000D03*
%TD*%
D17*
%TO.P,H7,1*%
%TO.N,N/C*%
X211000000Y-299000000D03*
%TD*%
%TO.P,H1,1*%
%TO.N,N/C*%
X299000000Y-314000000D03*
%TD*%
D14*
%TO.P,D16,1,K*%
%TO.N,GND*%
X285000000Y-260500000D03*
D15*
%TO.P,D16,2,A*%
%TO.N,Net-(D16-A)*%
X285000000Y-257960000D03*
%TD*%
D14*
%TO.P,D9,1,K*%
%TO.N,GND*%
X225000000Y-233000000D03*
D15*
%TO.P,D9,2,A*%
%TO.N,Net-(D9-A)*%
X225000000Y-230460000D03*
%TD*%
D16*
%TO.P,R18,1*%
%TO.N,/A_letter/LED5*%
X246825000Y-282000000D03*
%TO.P,R18,2*%
%TO.N,Net-(D18-A)*%
X245175000Y-282000000D03*
%TD*%
D14*
%TO.P,D7,1,K*%
%TO.N,GND*%
X265000000Y-206000000D03*
D15*
%TO.P,D7,2,A*%
%TO.N,Net-(D7-A)*%
X265000000Y-203460000D03*
%TD*%
D16*
%TO.P,R16,1*%
%TO.N,/A_letter/LED4*%
X286825000Y-254000000D03*
%TO.P,R16,2*%
%TO.N,Net-(D16-A)*%
X285175000Y-254000000D03*
%TD*%
%TO.P,R14,1*%
%TO.N,/A_letter/LED4*%
X247000000Y-254000000D03*
%TO.P,R14,2*%
%TO.N,Net-(D14-A)*%
X245350000Y-254000000D03*
%TD*%
D17*
%TO.P,H4,1*%
%TO.N,N/C*%
X211000000Y-370000000D03*
%TD*%
D16*
%TO.P,R20,1*%
%TO.N,/A_letter/LED5*%
X287000000Y-282000000D03*
%TO.P,R20,2*%
%TO.N,Net-(D20-A)*%
X285350000Y-282000000D03*
%TD*%
D17*
%TO.P,H6,1*%
%TO.N,N/C*%
X299000000Y-161000000D03*
%TD*%
%TO.P,H2,1*%
%TO.N,N/C*%
X299000000Y-370000000D03*
%TD*%
D16*
%TO.P,R19,1*%
%TO.N,/A_letter/LED5*%
X267000000Y-282000000D03*
%TO.P,R19,2*%
%TO.N,Net-(D19-A)*%
X265350000Y-282000000D03*
%TD*%
%TO.P,R6,1*%
%TO.N,/A_letter/LED2*%
X246650000Y-200000000D03*
%TO.P,R6,2*%
%TO.N,Net-(D6-A)*%
X245000000Y-200000000D03*
%TD*%
D18*
%TO.P,C2,1*%
%TO.N,+5V*%
X240450000Y-168000000D03*
%TO.P,C2,2*%
%TO.N,GND*%
X242000000Y-168000000D03*
%TD*%
D14*
%TO.P,D3,1,K*%
%TO.N,GND*%
X265000000Y-178000000D03*
D15*
%TO.P,D3,2,A*%
%TO.N,Net-(D3-A)*%
X265000000Y-175460000D03*
%TD*%
D16*
%TO.P,R3,1*%
%TO.N,/A_letter/LED1*%
X266650000Y-172000000D03*
%TO.P,R3,2*%
%TO.N,Net-(D3-A)*%
X265000000Y-172000000D03*
%TD*%
D19*
%TO.P,D39,2,A*%
%TO.N,/Arduino_Power_K_letter/6V_in*%
X292620000Y-358000000D03*
D20*
%TO.P,D39,1,K*%
%TO.N,+5V*%
X277380000Y-358000000D03*
%TD*%
D14*
%TO.P,D18,1,K*%
%TO.N,GND*%
X245000000Y-288540000D03*
D15*
%TO.P,D18,2,A*%
%TO.N,Net-(D18-A)*%
X245000000Y-286000000D03*
%TD*%
D14*
%TO.P,D1,1,K*%
%TO.N,GND*%
X225000000Y-178000000D03*
D15*
%TO.P,D1,2,A*%
%TO.N,Net-(D1-A)*%
X225000000Y-175460000D03*
%TD*%
D13*
%TO.P,J2,4,Pin_4*%
%TO.N,GND*%
X207000000Y-329460000D03*
%TO.P,J2,3,Pin_3*%
%TO.N,+5V*%
X207000000Y-332000000D03*
%TO.P,J2,2,Pin_2*%
%TO.N,/Arduino_Power_K_letter/CLK*%
X207000000Y-334540000D03*
D12*
%TO.P,J2,1,Pin_1*%
%TO.N,/Arduino_Power_K_letter/DATA*%
X207000000Y-337080000D03*
%TD*%
D17*
%TO.P,H5,1*%
%TO.N,N/C*%
X211000000Y-161000000D03*
%TD*%
D16*
%TO.P,R15,1*%
%TO.N,/A_letter/LED4*%
X267000000Y-254000000D03*
%TO.P,R15,2*%
%TO.N,Net-(D15-A)*%
X265350000Y-254000000D03*
%TD*%
D13*
%TO.P,J8,2,Pin_2*%
%TO.N,/Arduino_Power_K_letter/6V_in*%
X283735000Y-374625000D03*
D12*
%TO.P,J8,1,Pin_1*%
%TO.N,GND*%
X286275000Y-374625000D03*
%TD*%
D16*
%TO.P,R8,1*%
%TO.N,/A_letter/LED2*%
X287000000Y-200000000D03*
%TO.P,R8,2*%
%TO.N,Net-(D8-A)*%
X285350000Y-200000000D03*
%TD*%
D21*
%TO.N,GND*%
X244000000Y-168000000D03*
D22*
%TO.N,/A_letter/CLK*%
X238000000Y-158467500D03*
X242165000Y-161500000D03*
%TO.N,/A_letter/LED5*%
X221000000Y-164000000D03*
X221000000Y-162000000D03*
%TO.N,/A_letter/LED3*%
X256500000Y-163500000D03*
X256500000Y-160500000D03*
%TO.N,/A_letter/LED4*%
X223000000Y-164000000D03*
X225000000Y-162000000D03*
%TD*%
D23*
%TO.N,/Arduino_Power_K_letter/CLK*%
X288200000Y-336500000D02*
X292000000Y-332700000D01*
X205750000Y-333290000D02*
X205750000Y-331482233D01*
X206482233Y-330750000D02*
X207750000Y-330750000D01*
X207000000Y-334540000D02*
X205750000Y-333290000D01*
X205750000Y-331482233D02*
X206482233Y-330750000D01*
X213500000Y-336500000D02*
X288200000Y-336500000D01*
X207750000Y-330750000D02*
X213500000Y-336500000D01*
D24*
%TO.N,GND*%
X242000000Y-168000000D02*
X244000000Y-168000000D01*
%TO.N,+5V*%
X230682500Y-159317500D02*
X228740000Y-157375000D01*
X240125000Y-167675000D02*
X240450000Y-168000000D01*
X278110000Y-339130000D02*
X276760000Y-337780000D01*
X207000000Y-332000000D02*
X207500000Y-332000000D01*
X237165000Y-165800000D02*
X230682500Y-159317500D01*
X212000000Y-286085000D02*
X228540000Y-302625000D01*
X277380000Y-358000000D02*
X278110000Y-357270000D01*
X238987500Y-159317500D02*
X240125000Y-158180000D01*
X230682500Y-159317500D02*
X227150000Y-162850000D01*
X227150000Y-162850000D02*
X219150000Y-162850000D01*
X213280000Y-337780000D02*
X276760000Y-337780000D01*
X212000000Y-170000000D02*
X212000000Y-286085000D01*
X207500000Y-332000000D02*
X213280000Y-337780000D01*
X230682500Y-159317500D02*
X238987500Y-159317500D01*
X219150000Y-162850000D02*
X212000000Y-170000000D01*
X278110000Y-357270000D02*
X278110000Y-339130000D01*
X240125000Y-165800000D02*
X237165000Y-165800000D01*
X240125000Y-165800000D02*
X240125000Y-167675000D01*
D23*
%TO.N,/Arduino_Power_K_letter/DATA*%
X208920000Y-339000000D02*
X252000000Y-339000000D01*
X282000000Y-345240000D02*
X292000000Y-335240000D01*
X274500000Y-361500000D02*
X280000000Y-361500000D01*
X252000000Y-339000000D02*
X274500000Y-361500000D01*
X207000000Y-337080000D02*
X208920000Y-339000000D01*
X280000000Y-361500000D02*
X282000000Y-359500000D01*
X282000000Y-359500000D02*
X282000000Y-345240000D01*
%TO.N,Net-(D1-A)*%
X225000000Y-175460000D02*
X225000000Y-172000000D01*
%TO.N,Net-(D2-A)*%
X245000000Y-175460000D02*
X245000000Y-172000000D01*
%TO.N,Net-(D3-A)*%
X265000000Y-175460000D02*
X265000000Y-172000000D01*
%TO.N,Net-(D4-A)*%
X285000000Y-175460000D02*
X285000000Y-172000000D01*
%TO.N,Net-(D5-A)*%
X225000000Y-203460000D02*
X225000000Y-200175000D01*
X225000000Y-200175000D02*
X225175000Y-200000000D01*
%TO.N,Net-(D6-A)*%
X245000000Y-203460000D02*
X245000000Y-200000000D01*
%TO.N,Net-(D7-A)*%
X265000000Y-200175000D02*
X265175000Y-200000000D01*
X265000000Y-203460000D02*
X265000000Y-200175000D01*
%TO.N,Net-(D8-A)*%
X285000000Y-200350000D02*
X285350000Y-200000000D01*
X285000000Y-203460000D02*
X285000000Y-200350000D01*
%TO.N,Net-(D9-A)*%
X225000000Y-230460000D02*
X225000000Y-227000000D01*
%TO.N,Net-(D10-A)*%
X245000000Y-230460000D02*
X245000000Y-227175000D01*
X245000000Y-227175000D02*
X245175000Y-227000000D01*
%TO.N,Net-(D11-A)*%
X265000000Y-227350000D02*
X265350000Y-227000000D01*
X265000000Y-230460000D02*
X265000000Y-227350000D01*
%TO.N,Net-(D12-A)*%
X285000000Y-227350000D02*
X285350000Y-227000000D01*
X285000000Y-230460000D02*
X285000000Y-227350000D01*
%TO.N,Net-(D13-A)*%
X225175000Y-256825000D02*
X225175000Y-254000000D01*
X225000000Y-258000000D02*
X225000000Y-257000000D01*
X225000000Y-257000000D02*
X225175000Y-256825000D01*
%TO.N,Net-(D14-A)*%
X245000000Y-254350000D02*
X245350000Y-254000000D01*
X245000000Y-258000000D02*
X245000000Y-254350000D01*
%TO.N,Net-(D15-A)*%
X265000000Y-257960000D02*
X265000000Y-254350000D01*
X265000000Y-254350000D02*
X265350000Y-254000000D01*
D24*
%TO.N,/Arduino_Power_K_letter/6V_in*%
X292620000Y-361380000D02*
X292620000Y-358000000D01*
X283735000Y-370265000D02*
X292620000Y-361380000D01*
X283735000Y-374625000D02*
X283735000Y-370265000D01*
D25*
%TO.N,/A_letter/DATA*%
X233820000Y-157375000D02*
X234670000Y-156525000D01*
X234670000Y-156525000D02*
X240525000Y-156525000D01*
X241515000Y-162110000D02*
X245205000Y-165800000D01*
X240525000Y-156525000D02*
X241515000Y-157515000D01*
X241515000Y-157515000D02*
X241515000Y-162110000D01*
D23*
%TO.N,/A_letter/CLK*%
X281225000Y-303775000D02*
X232230000Y-303775000D01*
X237942500Y-158525000D02*
X232430000Y-158525000D01*
X295000000Y-170000000D02*
X295000000Y-290000000D01*
X232430000Y-158525000D02*
X231280000Y-157375000D01*
X238000000Y-158467500D02*
X237942500Y-158525000D01*
X284943529Y-159943529D02*
X295000000Y-170000000D01*
X232230000Y-303775000D02*
X231080000Y-302625000D01*
X256348529Y-161500000D02*
X257905000Y-159943529D01*
X257905000Y-159943529D02*
X257905000Y-158180000D01*
X242165000Y-161500000D02*
X256348529Y-161500000D01*
X295000000Y-290000000D02*
X281225000Y-303775000D01*
X257905000Y-159943529D02*
X284943529Y-159943529D01*
%TO.N,/A_letter/LED5*%
X217000000Y-280000000D02*
X216000000Y-281000000D01*
X265087500Y-280087500D02*
X267000000Y-282000000D01*
X221000000Y-162000000D02*
X221000000Y-160000000D01*
X216000000Y-285000000D02*
X216000000Y-281000000D01*
X221000000Y-160000000D02*
X225400000Y-155600000D01*
X217000000Y-280000000D02*
X216000000Y-279000000D01*
X216000000Y-170000000D02*
X221000000Y-165000000D01*
X244825000Y-280000000D02*
X244912500Y-280087500D01*
X225000000Y-280000000D02*
X244825000Y-280000000D01*
X227000000Y-282000000D02*
X225000000Y-280000000D01*
X225000000Y-280000000D02*
X217000000Y-280000000D01*
X285087500Y-280087500D02*
X287000000Y-282000000D01*
X265000000Y-280087500D02*
X285087500Y-280087500D01*
X265000000Y-280087500D02*
X265087500Y-280087500D01*
X247705000Y-155600000D02*
X250285000Y-158180000D01*
X216000000Y-279000000D02*
X216000000Y-170000000D01*
X244912500Y-280087500D02*
X265000000Y-280087500D01*
X225400000Y-155600000D02*
X247705000Y-155600000D01*
X233620000Y-302620000D02*
X216000000Y-285000000D01*
X244825000Y-280000000D02*
X246825000Y-282000000D01*
X221000000Y-165000000D02*
X221000000Y-164000000D01*
X233620000Y-302625000D02*
X233620000Y-302620000D01*
%TO.N,/A_letter/LED1*%
X265650000Y-171000000D02*
X285650000Y-171000000D01*
X285650000Y-171000000D02*
X286650000Y-172000000D01*
X261000000Y-171000000D02*
X261000000Y-167000000D01*
X226650000Y-172000000D02*
X227000000Y-172000000D01*
X261000000Y-171000000D02*
X265650000Y-171000000D01*
X247745000Y-165800000D02*
X246645000Y-166900000D01*
X243765000Y-166900000D02*
X242665000Y-165800000D01*
X256900000Y-162900000D02*
X250645000Y-162900000D01*
X246645000Y-166900000D02*
X243765000Y-166900000D01*
X228000000Y-171000000D02*
X245650000Y-171000000D01*
X227000000Y-172000000D02*
X228000000Y-171000000D01*
X245650000Y-171000000D02*
X261000000Y-171000000D01*
X265650000Y-171000000D02*
X266650000Y-172000000D01*
X250645000Y-162900000D02*
X247745000Y-165800000D01*
X261000000Y-167000000D02*
X256900000Y-162900000D01*
X245650000Y-171000000D02*
X246650000Y-172000000D01*
%TO.N,/A_letter/LED2*%
X252825000Y-165800000D02*
X250285000Y-165800000D01*
X220000000Y-198000000D02*
X244650000Y-198000000D01*
X244650000Y-198000000D02*
X264825000Y-198000000D01*
X285000000Y-198000000D02*
X287000000Y-200000000D01*
X264825000Y-198000000D02*
X285000000Y-198000000D01*
X250285000Y-167215000D02*
X247500000Y-170000000D01*
X220000000Y-170000000D02*
X219000000Y-171000000D01*
X247500000Y-170000000D02*
X220000000Y-170000000D01*
X244650000Y-198000000D02*
X246650000Y-200000000D01*
X219000000Y-171000000D02*
X219000000Y-197000000D01*
X250285000Y-165800000D02*
X250285000Y-167215000D01*
X264825000Y-198000000D02*
X266825000Y-200000000D01*
X219000000Y-197000000D02*
X220000000Y-198000000D01*
X226825000Y-200000000D02*
X224912500Y-198087500D01*
%TO.N,/A_letter/LED3*%
X254265000Y-164700000D02*
X255365000Y-165800000D01*
X249185000Y-166334314D02*
X249185000Y-165344365D01*
X256500000Y-163500000D02*
X256500000Y-164665000D01*
X218000000Y-224000000D02*
X218000000Y-170500000D01*
X256500000Y-160500000D02*
X256500000Y-157759365D01*
X249185000Y-165344365D02*
X249829365Y-164700000D01*
X249829365Y-164700000D02*
X254265000Y-164700000D01*
X218000000Y-170500000D02*
X219500000Y-169000000D01*
X255820635Y-157080000D02*
X253925000Y-157080000D01*
X245000000Y-225000000D02*
X265000000Y-225000000D01*
X245000000Y-225000000D02*
X246825000Y-226825000D01*
X224650000Y-225000000D02*
X245000000Y-225000000D01*
X285000000Y-225000000D02*
X287000000Y-227000000D01*
X256500000Y-157759365D02*
X255820635Y-157080000D01*
X219500000Y-169000000D02*
X246519314Y-169000000D01*
X256500000Y-164665000D02*
X255365000Y-165800000D01*
X265000000Y-225000000D02*
X267000000Y-227000000D01*
X224650000Y-225000000D02*
X219000000Y-225000000D01*
X253925000Y-157080000D02*
X252825000Y-158180000D01*
X246519314Y-169000000D02*
X249185000Y-166334314D01*
X265000000Y-225000000D02*
X285000000Y-225000000D01*
X226650000Y-227000000D02*
X224650000Y-225000000D01*
X219000000Y-225000000D02*
X218000000Y-224000000D01*
X246825000Y-226825000D02*
X246825000Y-227000000D01*
%TO.N,/A_letter/LED4*%
X245000000Y-252000000D02*
X218000000Y-252000000D01*
X247745000Y-158180000D02*
X249565000Y-160000000D01*
X245640000Y-156075000D02*
X247745000Y-158180000D01*
X217000000Y-251000000D02*
X217000000Y-170000000D01*
X226825000Y-254000000D02*
X224912500Y-252087500D01*
X228272233Y-156075000D02*
X245640000Y-156075000D01*
X245000000Y-252000000D02*
X247000000Y-254000000D01*
X227490000Y-156857233D02*
X228272233Y-156075000D01*
X265000000Y-252000000D02*
X284825000Y-252000000D01*
X225000000Y-162000000D02*
X227490000Y-159510000D01*
X265000000Y-252000000D02*
X267000000Y-254000000D01*
X227490000Y-159510000D02*
X227490000Y-156857233D01*
X253545000Y-160000000D02*
X255365000Y-158180000D01*
X249565000Y-160000000D02*
X253545000Y-160000000D01*
X245000000Y-252000000D02*
X265000000Y-252000000D01*
X217000000Y-170000000D02*
X223000000Y-164000000D01*
X284825000Y-252000000D02*
X286825000Y-254000000D01*
X218000000Y-252000000D02*
X217000000Y-251000000D01*
%TO.N,Net-(D16-A)*%
X285000000Y-257960000D02*
X285000000Y-254175000D01*
X285000000Y-254175000D02*
X285175000Y-254000000D01*
%TO.N,Net-(D17-A)*%
X225000000Y-282350000D02*
X225350000Y-282000000D01*
X225000000Y-286000000D02*
X225000000Y-282350000D01*
%TO.N,Net-(D18-A)*%
X245000000Y-286000000D02*
X245000000Y-285000000D01*
X245000000Y-285000000D02*
X245175000Y-284825000D01*
X245175000Y-284825000D02*
X245175000Y-282000000D01*
%TO.N,Net-(D19-A)*%
X265350000Y-285650000D02*
X265000000Y-286000000D01*
X265350000Y-282000000D02*
X265350000Y-285650000D01*
%TO.N,Net-(D20-A)*%
X285000000Y-285000000D02*
X285350000Y-284650000D01*
X285000000Y-286000000D02*
X285000000Y-285000000D01*
X285350000Y-284650000D02*
X285350000Y-282000000D01*
%TD*%
M02*
