M48
; DRILL file {KiCad 8.0.3} date 2024-10-04T23:37:35+0200
; FORMAT={-:-/ absolute / inch / decimal}
; #@! TF.CreationDate,2024-10-04T23:37:35+02:00
; #@! TF.GenerationSoftware,Kicad,Pcbnew,8.0.3
; #@! TF.FileFunction,Plated,1,2,PTH
FMAT,2
INCH
; #@! TA.AperFunction,Plated,PTH,ViaDrill
T1C0.0118
; #@! TA.AperFunction,Plated,PTH,ViaDrill
T2C0.0197
; #@! TA.AperFunction,Plated,PTH,ComponentDrill
T3C0.0315
; #@! TA.AperFunction,Plated,PTH,ComponentDrill
T4C0.0354
; #@! TA.AperFunction,Plated,PTH,ComponentDrill
T5C0.0394
; #@! TA.AperFunction,Plated,PTH,ComponentDrill
T6C0.0630
; #@! TA.AperFunction,Plated,PTH,ComponentDrill
T7C0.2087
%
G90
G05
T1
X8.7008Y-6.378
X8.7008Y-6.4567
X8.7795Y-6.4567
X8.8583Y-6.378
X9.3701Y-6.2389
X9.5341Y-6.3583
X10.0984Y-6.3189
X10.0984Y-6.437
T2
X9.6063Y-6.6142
T3
X9.4537Y-6.2276
X9.4537Y-6.5276
X9.5537Y-6.2276
X9.5537Y-6.5276
X9.6537Y-6.2276
X9.6537Y-6.5276
X9.7537Y-6.2276
X9.7537Y-6.5276
X9.8537Y-6.2276
X9.8537Y-6.5276
X9.9537Y-6.2276
X9.9537Y-6.5276
X10.0537Y-6.2276
X10.0537Y-6.5276
X10.1537Y-6.2276
X10.1537Y-6.5276
T4
X8.8583Y-6.9079
X8.8583Y-7.0079
X8.8583Y-8.0102
X8.8583Y-8.1102
X8.8583Y-9.0732
X8.8583Y-9.1732
X8.8583Y-10.1575
X8.8583Y-10.2575
X8.8583Y-11.2598
X8.8583Y-11.3598
X9.6457Y-6.9079
X9.6457Y-7.0079
X9.6457Y-8.0102
X9.6457Y-8.1102
X9.6457Y-9.0732
X9.6457Y-9.1732
X9.6457Y-10.1575
X9.6457Y-10.2575
X9.6457Y-11.2598
X9.6457Y-11.3598
X10.4331Y-6.9079
X10.4331Y-7.0079
X10.4331Y-8.0102
X10.4331Y-8.1102
X10.4331Y-9.0732
X10.4331Y-9.1732
X10.4331Y-10.1559
X10.4331Y-10.2559
X10.4331Y-11.2598
X10.4331Y-11.3598
X11.2205Y-6.9079
X11.2205Y-7.0079
X11.2205Y-8.0102
X11.2205Y-8.1102
X11.2205Y-9.0732
X11.2205Y-9.1732
X11.2205Y-10.1559
X11.2205Y-10.2559
X11.2205Y-11.2598
X11.2205Y-11.3598
T5
X8.1496Y-12.9709
X8.1496Y-13.0709
X8.1496Y-13.1709
X8.1496Y-13.2709
X8.8976Y-11.9144
X8.9055Y-6.1959
X8.9976Y-11.9144
X9.0055Y-6.1959
X9.0976Y-11.9144
X9.1055Y-6.1959
X9.1976Y-11.9144
X9.2055Y-6.1959
X10.8961Y-12.1984
X10.8961Y-12.2984
X10.8961Y-12.3984
X10.8961Y-12.4984
X10.8961Y-12.5984
X10.8961Y-12.6984
X10.8961Y-12.7984
X10.8961Y-12.8984
X10.8961Y-12.9984
X10.8961Y-13.0984
X10.8961Y-13.1984
X10.8961Y-13.2984
X10.8961Y-13.3984
X10.8961Y-13.4984
X10.8961Y-13.5984
X11.1707Y-14.749
X11.2707Y-14.749
X11.4961Y-12.1984
X11.4961Y-12.2984
X11.4961Y-12.3984
X11.4961Y-12.4984
X11.4961Y-12.5984
X11.4961Y-12.6984
X11.4961Y-12.7984
X11.4961Y-12.8984
X11.4961Y-12.9984
X11.4961Y-13.0984
X11.4961Y-13.1984
X11.4961Y-13.2984
X11.4961Y-13.3984
X11.4961Y-13.4984
X11.4961Y-13.5984
T6
X10.9205Y-14.0945
X11.5205Y-14.0945
T7
X8.3071Y-6.3386
X8.3071Y-11.7717
X8.3071Y-12.3622
X8.3071Y-14.5669
X11.7717Y-6.3386
X11.7717Y-11.7717
X11.7717Y-12.3622
X11.7717Y-14.5669
M30
