%TF.GenerationSoftware,KiCad,Pcbnew,8.0.3*%
%TF.CreationDate,2024-10-04T23:37:14+02:00*%
%TF.ProjectId,Ovve_Leds,4f767665-5f4c-4656-9473-2e6b69636164,rev?*%
%TF.SameCoordinates,Original*%
%TF.FileFunction,Legend,Top*%
%TF.FilePolarity,Positive*%
%FSLAX46Y46*%
G04 Gerber Fmt 4.6, Leading zero omitted, Abs format (unit mm)*
G04 Created by KiCad (PCBNEW 8.0.3) date 2024-10-04 23:37:14*
%MOMM*%
%LPD*%
G01*
G04 APERTURE LIST*
%ADD10C,0.100000*%
%ADD11C,0.400000*%
%ADD12C,0.200000*%
%ADD13C,0.150000*%
%ADD14C,0.120000*%
%ADD15C,0.000000*%
G04 APERTURE END LIST*
D10*
X274000000Y-310000000D02*
X216000000Y-310000000D01*
X216000000Y-310000000D02*
X216000000Y-373000000D01*
X216000000Y-373000000D02*
X274000000Y-373000000D01*
X274000000Y-310000000D02*
X274000000Y-373000000D01*
X286827693Y-303872419D02*
X286256265Y-303872419D01*
X286541979Y-303872419D02*
X286541979Y-302872419D01*
X286541979Y-302872419D02*
X286446741Y-303015276D01*
X286446741Y-303015276D02*
X286351503Y-303110514D01*
X286351503Y-303110514D02*
X286256265Y-303158133D01*
X287446741Y-302872419D02*
X287541979Y-302872419D01*
X287541979Y-302872419D02*
X287637217Y-302920038D01*
X287637217Y-302920038D02*
X287684836Y-302967657D01*
X287684836Y-302967657D02*
X287732455Y-303062895D01*
X287732455Y-303062895D02*
X287780074Y-303253371D01*
X287780074Y-303253371D02*
X287780074Y-303491466D01*
X287780074Y-303491466D02*
X287732455Y-303681942D01*
X287732455Y-303681942D02*
X287684836Y-303777180D01*
X287684836Y-303777180D02*
X287637217Y-303824800D01*
X287637217Y-303824800D02*
X287541979Y-303872419D01*
X287541979Y-303872419D02*
X287446741Y-303872419D01*
X287446741Y-303872419D02*
X287351503Y-303824800D01*
X287351503Y-303824800D02*
X287303884Y-303777180D01*
X287303884Y-303777180D02*
X287256265Y-303681942D01*
X287256265Y-303681942D02*
X287208646Y-303491466D01*
X287208646Y-303491466D02*
X287208646Y-303253371D01*
X287208646Y-303253371D02*
X287256265Y-303062895D01*
X287256265Y-303062895D02*
X287303884Y-302967657D01*
X287303884Y-302967657D02*
X287351503Y-302920038D01*
X287351503Y-302920038D02*
X287446741Y-302872419D01*
X288399122Y-302872419D02*
X288494360Y-302872419D01*
X288494360Y-302872419D02*
X288589598Y-302920038D01*
X288589598Y-302920038D02*
X288637217Y-302967657D01*
X288637217Y-302967657D02*
X288684836Y-303062895D01*
X288684836Y-303062895D02*
X288732455Y-303253371D01*
X288732455Y-303253371D02*
X288732455Y-303491466D01*
X288732455Y-303491466D02*
X288684836Y-303681942D01*
X288684836Y-303681942D02*
X288637217Y-303777180D01*
X288637217Y-303777180D02*
X288589598Y-303824800D01*
X288589598Y-303824800D02*
X288494360Y-303872419D01*
X288494360Y-303872419D02*
X288399122Y-303872419D01*
X288399122Y-303872419D02*
X288303884Y-303824800D01*
X288303884Y-303824800D02*
X288256265Y-303777180D01*
X288256265Y-303777180D02*
X288208646Y-303681942D01*
X288208646Y-303681942D02*
X288161027Y-303491466D01*
X288161027Y-303491466D02*
X288161027Y-303253371D01*
X288161027Y-303253371D02*
X288208646Y-303062895D01*
X288208646Y-303062895D02*
X288256265Y-302967657D01*
X288256265Y-302967657D02*
X288303884Y-302920038D01*
X288303884Y-302920038D02*
X288399122Y-302872419D01*
X289065789Y-303872419D02*
X289589598Y-303205752D01*
X289065789Y-303205752D02*
X289589598Y-303872419D01*
X290494360Y-303872419D02*
X289922932Y-303872419D01*
X290208646Y-303872419D02*
X290208646Y-302872419D01*
X290208646Y-302872419D02*
X290113408Y-303015276D01*
X290113408Y-303015276D02*
X290018170Y-303110514D01*
X290018170Y-303110514D02*
X289922932Y-303158133D01*
X291399122Y-302872419D02*
X290922932Y-302872419D01*
X290922932Y-302872419D02*
X290875313Y-303348609D01*
X290875313Y-303348609D02*
X290922932Y-303300990D01*
X290922932Y-303300990D02*
X291018170Y-303253371D01*
X291018170Y-303253371D02*
X291256265Y-303253371D01*
X291256265Y-303253371D02*
X291351503Y-303300990D01*
X291351503Y-303300990D02*
X291399122Y-303348609D01*
X291399122Y-303348609D02*
X291446741Y-303443847D01*
X291446741Y-303443847D02*
X291446741Y-303681942D01*
X291446741Y-303681942D02*
X291399122Y-303777180D01*
X291399122Y-303777180D02*
X291351503Y-303824800D01*
X291351503Y-303824800D02*
X291256265Y-303872419D01*
X291256265Y-303872419D02*
X291018170Y-303872419D01*
X291018170Y-303872419D02*
X290922932Y-303824800D01*
X290922932Y-303824800D02*
X290875313Y-303777180D01*
X292065789Y-302872419D02*
X292161027Y-302872419D01*
X292161027Y-302872419D02*
X292256265Y-302920038D01*
X292256265Y-302920038D02*
X292303884Y-302967657D01*
X292303884Y-302967657D02*
X292351503Y-303062895D01*
X292351503Y-303062895D02*
X292399122Y-303253371D01*
X292399122Y-303253371D02*
X292399122Y-303491466D01*
X292399122Y-303491466D02*
X292351503Y-303681942D01*
X292351503Y-303681942D02*
X292303884Y-303777180D01*
X292303884Y-303777180D02*
X292256265Y-303824800D01*
X292256265Y-303824800D02*
X292161027Y-303872419D01*
X292161027Y-303872419D02*
X292065789Y-303872419D01*
X292065789Y-303872419D02*
X291970551Y-303824800D01*
X291970551Y-303824800D02*
X291922932Y-303777180D01*
X291922932Y-303777180D02*
X291875313Y-303681942D01*
X291875313Y-303681942D02*
X291827694Y-303491466D01*
X291827694Y-303491466D02*
X291827694Y-303253371D01*
X291827694Y-303253371D02*
X291875313Y-303062895D01*
X291875313Y-303062895D02*
X291922932Y-302967657D01*
X291922932Y-302967657D02*
X291970551Y-302920038D01*
X291970551Y-302920038D02*
X292065789Y-302872419D01*
X292827694Y-303872419D02*
X292827694Y-303205752D01*
X292827694Y-303300990D02*
X292875313Y-303253371D01*
X292875313Y-303253371D02*
X292970551Y-303205752D01*
X292970551Y-303205752D02*
X293113408Y-303205752D01*
X293113408Y-303205752D02*
X293208646Y-303253371D01*
X293208646Y-303253371D02*
X293256265Y-303348609D01*
X293256265Y-303348609D02*
X293256265Y-303872419D01*
X293256265Y-303348609D02*
X293303884Y-303253371D01*
X293303884Y-303253371D02*
X293399122Y-303205752D01*
X293399122Y-303205752D02*
X293541979Y-303205752D01*
X293541979Y-303205752D02*
X293637218Y-303253371D01*
X293637218Y-303253371D02*
X293684837Y-303348609D01*
X293684837Y-303348609D02*
X293684837Y-303872419D01*
X294161027Y-303872419D02*
X294161027Y-303205752D01*
X294161027Y-303300990D02*
X294208646Y-303253371D01*
X294208646Y-303253371D02*
X294303884Y-303205752D01*
X294303884Y-303205752D02*
X294446741Y-303205752D01*
X294446741Y-303205752D02*
X294541979Y-303253371D01*
X294541979Y-303253371D02*
X294589598Y-303348609D01*
X294589598Y-303348609D02*
X294589598Y-303872419D01*
X294589598Y-303348609D02*
X294637217Y-303253371D01*
X294637217Y-303253371D02*
X294732455Y-303205752D01*
X294732455Y-303205752D02*
X294875312Y-303205752D01*
X294875312Y-303205752D02*
X294970551Y-303253371D01*
X294970551Y-303253371D02*
X295018170Y-303348609D01*
X295018170Y-303348609D02*
X295018170Y-303872419D01*
D11*
X296387942Y-331977442D02*
X299387942Y-331977442D01*
X296387942Y-333691728D02*
X298102228Y-332406014D01*
X299387942Y-333691728D02*
X297673657Y-331977442D01*
X296387942Y-336263157D02*
X297959371Y-336263157D01*
X297959371Y-336263157D02*
X298245085Y-336120299D01*
X298245085Y-336120299D02*
X298387942Y-335834585D01*
X298387942Y-335834585D02*
X298387942Y-335263157D01*
X298387942Y-335263157D02*
X298245085Y-334977442D01*
X296530800Y-336263157D02*
X296387942Y-335977442D01*
X296387942Y-335977442D02*
X296387942Y-335263157D01*
X296387942Y-335263157D02*
X296530800Y-334977442D01*
X296530800Y-334977442D02*
X296816514Y-334834585D01*
X296816514Y-334834585D02*
X297102228Y-334834585D01*
X297102228Y-334834585D02*
X297387942Y-334977442D01*
X297387942Y-334977442D02*
X297530800Y-335263157D01*
X297530800Y-335263157D02*
X297530800Y-335977442D01*
X297530800Y-335977442D02*
X297673657Y-336263157D01*
X296387942Y-337691728D02*
X298387942Y-337691728D01*
X297816514Y-337691728D02*
X298102228Y-337834585D01*
X298102228Y-337834585D02*
X298245085Y-337977443D01*
X298245085Y-337977443D02*
X298387942Y-338263157D01*
X298387942Y-338263157D02*
X298387942Y-338548871D01*
X296387942Y-339977443D02*
X296530800Y-339691728D01*
X296530800Y-339691728D02*
X296816514Y-339548871D01*
X296816514Y-339548871D02*
X299387942Y-339548871D01*
X296530800Y-343263157D02*
X296387942Y-343691729D01*
X296387942Y-343691729D02*
X296387942Y-344406014D01*
X296387942Y-344406014D02*
X296530800Y-344691729D01*
X296530800Y-344691729D02*
X296673657Y-344834586D01*
X296673657Y-344834586D02*
X296959371Y-344977443D01*
X296959371Y-344977443D02*
X297245085Y-344977443D01*
X297245085Y-344977443D02*
X297530800Y-344834586D01*
X297530800Y-344834586D02*
X297673657Y-344691729D01*
X297673657Y-344691729D02*
X297816514Y-344406014D01*
X297816514Y-344406014D02*
X297959371Y-343834586D01*
X297959371Y-343834586D02*
X298102228Y-343548871D01*
X298102228Y-343548871D02*
X298245085Y-343406014D01*
X298245085Y-343406014D02*
X298530800Y-343263157D01*
X298530800Y-343263157D02*
X298816514Y-343263157D01*
X298816514Y-343263157D02*
X299102228Y-343406014D01*
X299102228Y-343406014D02*
X299245085Y-343548871D01*
X299245085Y-343548871D02*
X299387942Y-343834586D01*
X299387942Y-343834586D02*
X299387942Y-344548871D01*
X299387942Y-344548871D02*
X299245085Y-344977443D01*
X298387942Y-345834586D02*
X298387942Y-346977443D01*
X299387942Y-346263157D02*
X296816514Y-346263157D01*
X296816514Y-346263157D02*
X296530800Y-346406014D01*
X296530800Y-346406014D02*
X296387942Y-346691729D01*
X296387942Y-346691729D02*
X296387942Y-346977443D01*
X296387942Y-349263158D02*
X297959371Y-349263158D01*
X297959371Y-349263158D02*
X298245085Y-349120300D01*
X298245085Y-349120300D02*
X298387942Y-348834586D01*
X298387942Y-348834586D02*
X298387942Y-348263158D01*
X298387942Y-348263158D02*
X298245085Y-347977443D01*
X296530800Y-349263158D02*
X296387942Y-348977443D01*
X296387942Y-348977443D02*
X296387942Y-348263158D01*
X296387942Y-348263158D02*
X296530800Y-347977443D01*
X296530800Y-347977443D02*
X296816514Y-347834586D01*
X296816514Y-347834586D02*
X297102228Y-347834586D01*
X297102228Y-347834586D02*
X297387942Y-347977443D01*
X297387942Y-347977443D02*
X297530800Y-348263158D01*
X297530800Y-348263158D02*
X297530800Y-348977443D01*
X297530800Y-348977443D02*
X297673657Y-349263158D01*
X299102228Y-348548872D02*
X299245085Y-348263158D01*
X299245085Y-348263158D02*
X299530800Y-348120300D01*
X299530800Y-348120300D02*
X299816514Y-348263158D01*
X299816514Y-348263158D02*
X299959371Y-348548872D01*
X299959371Y-348548872D02*
X299816514Y-348834586D01*
X299816514Y-348834586D02*
X299530800Y-348977443D01*
X299530800Y-348977443D02*
X299245085Y-348834586D01*
X299245085Y-348834586D02*
X299102228Y-348548872D01*
X296387942Y-350691729D02*
X299387942Y-350691729D01*
X296387942Y-351977444D02*
X297959371Y-351977444D01*
X297959371Y-351977444D02*
X298245085Y-351834586D01*
X298245085Y-351834586D02*
X298387942Y-351548872D01*
X298387942Y-351548872D02*
X298387942Y-351120301D01*
X298387942Y-351120301D02*
X298245085Y-350834586D01*
X298245085Y-350834586D02*
X298102228Y-350691729D01*
X296387942Y-353834587D02*
X296530800Y-353548872D01*
X296530800Y-353548872D02*
X296816514Y-353406015D01*
X296816514Y-353406015D02*
X299387942Y-353406015D01*
X298387942Y-356263159D02*
X295959371Y-356263159D01*
X295959371Y-356263159D02*
X295673657Y-356120301D01*
X295673657Y-356120301D02*
X295530800Y-355977444D01*
X295530800Y-355977444D02*
X295387942Y-355691730D01*
X295387942Y-355691730D02*
X295387942Y-355263159D01*
X295387942Y-355263159D02*
X295530800Y-354977444D01*
X296530800Y-356263159D02*
X296387942Y-355977444D01*
X296387942Y-355977444D02*
X296387942Y-355406016D01*
X296387942Y-355406016D02*
X296530800Y-355120301D01*
X296530800Y-355120301D02*
X296673657Y-354977444D01*
X296673657Y-354977444D02*
X296959371Y-354834587D01*
X296959371Y-354834587D02*
X297816514Y-354834587D01*
X297816514Y-354834587D02*
X298102228Y-354977444D01*
X298102228Y-354977444D02*
X298245085Y-355120301D01*
X298245085Y-355120301D02*
X298387942Y-355406016D01*
X298387942Y-355406016D02*
X298387942Y-355977444D01*
X298387942Y-355977444D02*
X298245085Y-356263159D01*
X296387942Y-357691730D02*
X298387942Y-357691730D01*
X297816514Y-357691730D02*
X298102228Y-357834587D01*
X298102228Y-357834587D02*
X298245085Y-357977445D01*
X298245085Y-357977445D02*
X298387942Y-358263159D01*
X298387942Y-358263159D02*
X298387942Y-358548873D01*
X296530800Y-360691730D02*
X296387942Y-360406016D01*
X296387942Y-360406016D02*
X296387942Y-359834588D01*
X296387942Y-359834588D02*
X296530800Y-359548873D01*
X296530800Y-359548873D02*
X296816514Y-359406016D01*
X296816514Y-359406016D02*
X297959371Y-359406016D01*
X297959371Y-359406016D02*
X298245085Y-359548873D01*
X298245085Y-359548873D02*
X298387942Y-359834588D01*
X298387942Y-359834588D02*
X298387942Y-360406016D01*
X298387942Y-360406016D02*
X298245085Y-360691730D01*
X298245085Y-360691730D02*
X297959371Y-360834588D01*
X297959371Y-360834588D02*
X297673657Y-360834588D01*
X297673657Y-360834588D02*
X297387942Y-359406016D01*
X298387942Y-362120302D02*
X296387942Y-362120302D01*
X298102228Y-362120302D02*
X298245085Y-362263159D01*
X298245085Y-362263159D02*
X298387942Y-362548874D01*
X298387942Y-362548874D02*
X298387942Y-362977445D01*
X298387942Y-362977445D02*
X298245085Y-363263159D01*
X298245085Y-363263159D02*
X297959371Y-363406017D01*
X297959371Y-363406017D02*
X296387942Y-363406017D01*
D12*
X246302780Y-326274435D02*
X246207542Y-326560149D01*
X246207542Y-326560149D02*
X246112304Y-326655387D01*
X246112304Y-326655387D02*
X245921828Y-326750625D01*
X245921828Y-326750625D02*
X245636114Y-326750625D01*
X245636114Y-326750625D02*
X245445638Y-326655387D01*
X245445638Y-326655387D02*
X245350400Y-326560149D01*
X245350400Y-326560149D02*
X245255161Y-326369673D01*
X245255161Y-326369673D02*
X245255161Y-325607768D01*
X245255161Y-325607768D02*
X247255161Y-325607768D01*
X247255161Y-325607768D02*
X247255161Y-326274435D01*
X247255161Y-326274435D02*
X247159923Y-326464911D01*
X247159923Y-326464911D02*
X247064685Y-326560149D01*
X247064685Y-326560149D02*
X246874209Y-326655387D01*
X246874209Y-326655387D02*
X246683733Y-326655387D01*
X246683733Y-326655387D02*
X246493257Y-326560149D01*
X246493257Y-326560149D02*
X246398019Y-326464911D01*
X246398019Y-326464911D02*
X246302780Y-326274435D01*
X246302780Y-326274435D02*
X246302780Y-325607768D01*
X245255161Y-328464911D02*
X246302780Y-328464911D01*
X246302780Y-328464911D02*
X246493257Y-328369673D01*
X246493257Y-328369673D02*
X246588495Y-328179197D01*
X246588495Y-328179197D02*
X246588495Y-327798244D01*
X246588495Y-327798244D02*
X246493257Y-327607768D01*
X245350400Y-328464911D02*
X245255161Y-328274435D01*
X245255161Y-328274435D02*
X245255161Y-327798244D01*
X245255161Y-327798244D02*
X245350400Y-327607768D01*
X245350400Y-327607768D02*
X245540876Y-327512530D01*
X245540876Y-327512530D02*
X245731352Y-327512530D01*
X245731352Y-327512530D02*
X245921828Y-327607768D01*
X245921828Y-327607768D02*
X246017066Y-327798244D01*
X246017066Y-327798244D02*
X246017066Y-328274435D01*
X246017066Y-328274435D02*
X246112304Y-328464911D01*
X246588495Y-329131578D02*
X246588495Y-329893482D01*
X247255161Y-329417292D02*
X245540876Y-329417292D01*
X245540876Y-329417292D02*
X245350400Y-329512530D01*
X245350400Y-329512530D02*
X245255161Y-329703006D01*
X245255161Y-329703006D02*
X245255161Y-329893482D01*
X246588495Y-330274435D02*
X246588495Y-331036339D01*
X247255161Y-330560149D02*
X245540876Y-330560149D01*
X245540876Y-330560149D02*
X245350400Y-330655387D01*
X245350400Y-330655387D02*
X245255161Y-330845863D01*
X245255161Y-330845863D02*
X245255161Y-331036339D01*
X245350400Y-332464911D02*
X245255161Y-332274435D01*
X245255161Y-332274435D02*
X245255161Y-331893482D01*
X245255161Y-331893482D02*
X245350400Y-331703006D01*
X245350400Y-331703006D02*
X245540876Y-331607768D01*
X245540876Y-331607768D02*
X246302780Y-331607768D01*
X246302780Y-331607768D02*
X246493257Y-331703006D01*
X246493257Y-331703006D02*
X246588495Y-331893482D01*
X246588495Y-331893482D02*
X246588495Y-332274435D01*
X246588495Y-332274435D02*
X246493257Y-332464911D01*
X246493257Y-332464911D02*
X246302780Y-332560149D01*
X246302780Y-332560149D02*
X246112304Y-332560149D01*
X246112304Y-332560149D02*
X245921828Y-331607768D01*
X245255161Y-333417292D02*
X246588495Y-333417292D01*
X246207542Y-333417292D02*
X246398019Y-333512530D01*
X246398019Y-333512530D02*
X246493257Y-333607768D01*
X246493257Y-333607768D02*
X246588495Y-333798244D01*
X246588495Y-333798244D02*
X246588495Y-333988721D01*
X246588495Y-334464911D02*
X245255161Y-334941101D01*
X246588495Y-335417292D02*
X245255161Y-334941101D01*
X245255161Y-334941101D02*
X244778971Y-334750625D01*
X244778971Y-334750625D02*
X244683733Y-334655387D01*
X244683733Y-334655387D02*
X244588495Y-334464911D01*
X245255161Y-337703007D02*
X247255161Y-337703007D01*
X245255161Y-338560150D02*
X246302780Y-338560150D01*
X246302780Y-338560150D02*
X246493257Y-338464912D01*
X246493257Y-338464912D02*
X246588495Y-338274436D01*
X246588495Y-338274436D02*
X246588495Y-337988721D01*
X246588495Y-337988721D02*
X246493257Y-337798245D01*
X246493257Y-337798245D02*
X246398019Y-337703007D01*
X245255161Y-339798245D02*
X245350400Y-339607769D01*
X245350400Y-339607769D02*
X245445638Y-339512531D01*
X245445638Y-339512531D02*
X245636114Y-339417293D01*
X245636114Y-339417293D02*
X246207542Y-339417293D01*
X246207542Y-339417293D02*
X246398019Y-339512531D01*
X246398019Y-339512531D02*
X246493257Y-339607769D01*
X246493257Y-339607769D02*
X246588495Y-339798245D01*
X246588495Y-339798245D02*
X246588495Y-340083960D01*
X246588495Y-340083960D02*
X246493257Y-340274436D01*
X246493257Y-340274436D02*
X246398019Y-340369674D01*
X246398019Y-340369674D02*
X246207542Y-340464912D01*
X246207542Y-340464912D02*
X245636114Y-340464912D01*
X245636114Y-340464912D02*
X245445638Y-340369674D01*
X245445638Y-340369674D02*
X245350400Y-340274436D01*
X245350400Y-340274436D02*
X245255161Y-340083960D01*
X245255161Y-340083960D02*
X245255161Y-339798245D01*
X245255161Y-341607769D02*
X245350400Y-341417293D01*
X245350400Y-341417293D02*
X245540876Y-341322055D01*
X245540876Y-341322055D02*
X247255161Y-341322055D01*
X245255161Y-343226817D02*
X247255161Y-343226817D01*
X245350400Y-343226817D02*
X245255161Y-343036341D01*
X245255161Y-343036341D02*
X245255161Y-342655388D01*
X245255161Y-342655388D02*
X245350400Y-342464912D01*
X245350400Y-342464912D02*
X245445638Y-342369674D01*
X245445638Y-342369674D02*
X245636114Y-342274436D01*
X245636114Y-342274436D02*
X246207542Y-342274436D01*
X246207542Y-342274436D02*
X246398019Y-342369674D01*
X246398019Y-342369674D02*
X246493257Y-342464912D01*
X246493257Y-342464912D02*
X246588495Y-342655388D01*
X246588495Y-342655388D02*
X246588495Y-343036341D01*
X246588495Y-343036341D02*
X246493257Y-343226817D01*
X245350400Y-344941103D02*
X245255161Y-344750627D01*
X245255161Y-344750627D02*
X245255161Y-344369674D01*
X245255161Y-344369674D02*
X245350400Y-344179198D01*
X245350400Y-344179198D02*
X245540876Y-344083960D01*
X245540876Y-344083960D02*
X246302780Y-344083960D01*
X246302780Y-344083960D02*
X246493257Y-344179198D01*
X246493257Y-344179198D02*
X246588495Y-344369674D01*
X246588495Y-344369674D02*
X246588495Y-344750627D01*
X246588495Y-344750627D02*
X246493257Y-344941103D01*
X246493257Y-344941103D02*
X246302780Y-345036341D01*
X246302780Y-345036341D02*
X246112304Y-345036341D01*
X246112304Y-345036341D02*
X245921828Y-344083960D01*
X245255161Y-345893484D02*
X246588495Y-345893484D01*
X246207542Y-345893484D02*
X246398019Y-345988722D01*
X246398019Y-345988722D02*
X246493257Y-346083960D01*
X246493257Y-346083960D02*
X246588495Y-346274436D01*
X246588495Y-346274436D02*
X246588495Y-346464913D01*
X246588495Y-349512532D02*
X245255161Y-349512532D01*
X247350400Y-349036341D02*
X245921828Y-348560151D01*
X245921828Y-348560151D02*
X245921828Y-349798246D01*
X245255161Y-351893485D02*
X246588495Y-352941104D01*
X246588495Y-351893485D02*
X245255161Y-352941104D01*
X245255161Y-356274438D02*
X245255161Y-355131581D01*
X245255161Y-355703009D02*
X247255161Y-355703009D01*
X247255161Y-355703009D02*
X246969447Y-355512533D01*
X246969447Y-355512533D02*
X246778971Y-355322057D01*
X246778971Y-355322057D02*
X246683733Y-355131581D01*
X245445638Y-357131581D02*
X245350400Y-357226819D01*
X245350400Y-357226819D02*
X245255161Y-357131581D01*
X245255161Y-357131581D02*
X245350400Y-357036343D01*
X245350400Y-357036343D02*
X245445638Y-357131581D01*
X245445638Y-357131581D02*
X245255161Y-357131581D01*
X247255161Y-359036343D02*
X247255161Y-358083962D01*
X247255161Y-358083962D02*
X246302780Y-357988724D01*
X246302780Y-357988724D02*
X246398019Y-358083962D01*
X246398019Y-358083962D02*
X246493257Y-358274438D01*
X246493257Y-358274438D02*
X246493257Y-358750629D01*
X246493257Y-358750629D02*
X246398019Y-358941105D01*
X246398019Y-358941105D02*
X246302780Y-359036343D01*
X246302780Y-359036343D02*
X246112304Y-359131581D01*
X246112304Y-359131581D02*
X245636114Y-359131581D01*
X245636114Y-359131581D02*
X245445638Y-359036343D01*
X245445638Y-359036343D02*
X245350400Y-358941105D01*
X245350400Y-358941105D02*
X245255161Y-358750629D01*
X245255161Y-358750629D02*
X245255161Y-358274438D01*
X245255161Y-358274438D02*
X245350400Y-358083962D01*
X245350400Y-358083962D02*
X245445638Y-357988724D01*
X247255161Y-359703010D02*
X245255161Y-360369676D01*
X245255161Y-360369676D02*
X247255161Y-361036343D01*
X214475049Y-340988720D02*
X214475049Y-341369673D01*
X214475049Y-341369673D02*
X214379811Y-341560149D01*
X214379811Y-341560149D02*
X214189335Y-341750625D01*
X214189335Y-341750625D02*
X213808383Y-341845863D01*
X213808383Y-341845863D02*
X213141716Y-341845863D01*
X213141716Y-341845863D02*
X212760764Y-341750625D01*
X212760764Y-341750625D02*
X212570288Y-341560149D01*
X212570288Y-341560149D02*
X212475049Y-341369673D01*
X212475049Y-341369673D02*
X212475049Y-340988720D01*
X212475049Y-340988720D02*
X212570288Y-340798244D01*
X212570288Y-340798244D02*
X212760764Y-340607768D01*
X212760764Y-340607768D02*
X213141716Y-340512530D01*
X213141716Y-340512530D02*
X213808383Y-340512530D01*
X213808383Y-340512530D02*
X214189335Y-340607768D01*
X214189335Y-340607768D02*
X214379811Y-340798244D01*
X214379811Y-340798244D02*
X214475049Y-340988720D01*
X213808383Y-342512530D02*
X212475049Y-342988720D01*
X212475049Y-342988720D02*
X213808383Y-343464911D01*
X213808383Y-344036340D02*
X212475049Y-344512530D01*
X212475049Y-344512530D02*
X213808383Y-344988721D01*
X212570288Y-346512531D02*
X212475049Y-346322055D01*
X212475049Y-346322055D02*
X212475049Y-345941102D01*
X212475049Y-345941102D02*
X212570288Y-345750626D01*
X212570288Y-345750626D02*
X212760764Y-345655388D01*
X212760764Y-345655388D02*
X213522668Y-345655388D01*
X213522668Y-345655388D02*
X213713145Y-345750626D01*
X213713145Y-345750626D02*
X213808383Y-345941102D01*
X213808383Y-345941102D02*
X213808383Y-346322055D01*
X213808383Y-346322055D02*
X213713145Y-346512531D01*
X213713145Y-346512531D02*
X213522668Y-346607769D01*
X213522668Y-346607769D02*
X213332192Y-346607769D01*
X213332192Y-346607769D02*
X213141716Y-345655388D01*
X212475049Y-349941103D02*
X212475049Y-348988722D01*
X212475049Y-348988722D02*
X214475049Y-348988722D01*
X213522668Y-350607770D02*
X213522668Y-351274437D01*
X212475049Y-351560151D02*
X212475049Y-350607770D01*
X212475049Y-350607770D02*
X214475049Y-350607770D01*
X214475049Y-350607770D02*
X214475049Y-351560151D01*
X212475049Y-352417294D02*
X214475049Y-352417294D01*
X214475049Y-352417294D02*
X214475049Y-352893484D01*
X214475049Y-352893484D02*
X214379811Y-353179199D01*
X214379811Y-353179199D02*
X214189335Y-353369675D01*
X214189335Y-353369675D02*
X213998859Y-353464913D01*
X213998859Y-353464913D02*
X213617907Y-353560151D01*
X213617907Y-353560151D02*
X213332192Y-353560151D01*
X213332192Y-353560151D02*
X212951240Y-353464913D01*
X212951240Y-353464913D02*
X212760764Y-353369675D01*
X212760764Y-353369675D02*
X212570288Y-353179199D01*
X212570288Y-353179199D02*
X212475049Y-352893484D01*
X212475049Y-352893484D02*
X212475049Y-352417294D01*
X212570288Y-354322056D02*
X212475049Y-354512532D01*
X212475049Y-354512532D02*
X212475049Y-354893484D01*
X212475049Y-354893484D02*
X212570288Y-355083961D01*
X212570288Y-355083961D02*
X212760764Y-355179199D01*
X212760764Y-355179199D02*
X212856002Y-355179199D01*
X212856002Y-355179199D02*
X213046478Y-355083961D01*
X213046478Y-355083961D02*
X213141716Y-354893484D01*
X213141716Y-354893484D02*
X213141716Y-354607770D01*
X213141716Y-354607770D02*
X213236954Y-354417294D01*
X213236954Y-354417294D02*
X213427430Y-354322056D01*
X213427430Y-354322056D02*
X213522668Y-354322056D01*
X213522668Y-354322056D02*
X213713145Y-354417294D01*
X213713145Y-354417294D02*
X213808383Y-354607770D01*
X213808383Y-354607770D02*
X213808383Y-354893484D01*
X213808383Y-354893484D02*
X213713145Y-355083961D01*
X213808383Y-357369676D02*
X212475049Y-357845866D01*
X212475049Y-357845866D02*
X213808383Y-358322057D01*
X212475049Y-360131581D02*
X212475049Y-358988724D01*
X212475049Y-359560152D02*
X214475049Y-359560152D01*
X214475049Y-359560152D02*
X214189335Y-359369676D01*
X214189335Y-359369676D02*
X213998859Y-359179200D01*
X213998859Y-359179200D02*
X213903621Y-358988724D01*
X211255161Y-340988720D02*
X211255161Y-341369673D01*
X211255161Y-341369673D02*
X211159923Y-341560149D01*
X211159923Y-341560149D02*
X210969447Y-341750625D01*
X210969447Y-341750625D02*
X210588495Y-341845863D01*
X210588495Y-341845863D02*
X209921828Y-341845863D01*
X209921828Y-341845863D02*
X209540876Y-341750625D01*
X209540876Y-341750625D02*
X209350400Y-341560149D01*
X209350400Y-341560149D02*
X209255161Y-341369673D01*
X209255161Y-341369673D02*
X209255161Y-340988720D01*
X209255161Y-340988720D02*
X209350400Y-340798244D01*
X209350400Y-340798244D02*
X209540876Y-340607768D01*
X209540876Y-340607768D02*
X209921828Y-340512530D01*
X209921828Y-340512530D02*
X210588495Y-340512530D01*
X210588495Y-340512530D02*
X210969447Y-340607768D01*
X210969447Y-340607768D02*
X211159923Y-340798244D01*
X211159923Y-340798244D02*
X211255161Y-340988720D01*
X209255161Y-342703006D02*
X211255161Y-342703006D01*
X210017066Y-342893482D02*
X209255161Y-343464911D01*
X210588495Y-343464911D02*
X209826590Y-342703006D01*
X210588495Y-344036340D02*
X210588495Y-344798244D01*
X211255161Y-344322054D02*
X209540876Y-344322054D01*
X209540876Y-344322054D02*
X209350400Y-344417292D01*
X209350400Y-344417292D02*
X209255161Y-344607768D01*
X209255161Y-344607768D02*
X209255161Y-344798244D01*
X209255161Y-345750625D02*
X209350400Y-345560149D01*
X209350400Y-345560149D02*
X209445638Y-345464911D01*
X209445638Y-345464911D02*
X209636114Y-345369673D01*
X209636114Y-345369673D02*
X210207542Y-345369673D01*
X210207542Y-345369673D02*
X210398019Y-345464911D01*
X210398019Y-345464911D02*
X210493257Y-345560149D01*
X210493257Y-345560149D02*
X210588495Y-345750625D01*
X210588495Y-345750625D02*
X210588495Y-346036340D01*
X210588495Y-346036340D02*
X210493257Y-346226816D01*
X210493257Y-346226816D02*
X210398019Y-346322054D01*
X210398019Y-346322054D02*
X210207542Y-346417292D01*
X210207542Y-346417292D02*
X209636114Y-346417292D01*
X209636114Y-346417292D02*
X209445638Y-346322054D01*
X209445638Y-346322054D02*
X209350400Y-346226816D01*
X209350400Y-346226816D02*
X209255161Y-346036340D01*
X209255161Y-346036340D02*
X209255161Y-345750625D01*
X209255161Y-347274435D02*
X211255161Y-347274435D01*
X210493257Y-347274435D02*
X210588495Y-347464911D01*
X210588495Y-347464911D02*
X210588495Y-347845864D01*
X210588495Y-347845864D02*
X210493257Y-348036340D01*
X210493257Y-348036340D02*
X210398019Y-348131578D01*
X210398019Y-348131578D02*
X210207542Y-348226816D01*
X210207542Y-348226816D02*
X209636114Y-348226816D01*
X209636114Y-348226816D02*
X209445638Y-348131578D01*
X209445638Y-348131578D02*
X209350400Y-348036340D01*
X209350400Y-348036340D02*
X209255161Y-347845864D01*
X209255161Y-347845864D02*
X209255161Y-347464911D01*
X209255161Y-347464911D02*
X209350400Y-347274435D01*
X209350400Y-349845864D02*
X209255161Y-349655388D01*
X209255161Y-349655388D02*
X209255161Y-349274435D01*
X209255161Y-349274435D02*
X209350400Y-349083959D01*
X209350400Y-349083959D02*
X209540876Y-348988721D01*
X209540876Y-348988721D02*
X210302780Y-348988721D01*
X210302780Y-348988721D02*
X210493257Y-349083959D01*
X210493257Y-349083959D02*
X210588495Y-349274435D01*
X210588495Y-349274435D02*
X210588495Y-349655388D01*
X210588495Y-349655388D02*
X210493257Y-349845864D01*
X210493257Y-349845864D02*
X210302780Y-349941102D01*
X210302780Y-349941102D02*
X210112304Y-349941102D01*
X210112304Y-349941102D02*
X209921828Y-348988721D01*
X209255161Y-350798245D02*
X210588495Y-350798245D01*
X210207542Y-350798245D02*
X210398019Y-350893483D01*
X210398019Y-350893483D02*
X210493257Y-350988721D01*
X210493257Y-350988721D02*
X210588495Y-351179197D01*
X210588495Y-351179197D02*
X210588495Y-351369674D01*
X211064685Y-353464912D02*
X211159923Y-353560150D01*
X211159923Y-353560150D02*
X211255161Y-353750626D01*
X211255161Y-353750626D02*
X211255161Y-354226817D01*
X211255161Y-354226817D02*
X211159923Y-354417293D01*
X211159923Y-354417293D02*
X211064685Y-354512531D01*
X211064685Y-354512531D02*
X210874209Y-354607769D01*
X210874209Y-354607769D02*
X210683733Y-354607769D01*
X210683733Y-354607769D02*
X210398019Y-354512531D01*
X210398019Y-354512531D02*
X209255161Y-353369674D01*
X209255161Y-353369674D02*
X209255161Y-354607769D01*
X211255161Y-355845864D02*
X211255161Y-356036341D01*
X211255161Y-356036341D02*
X211159923Y-356226817D01*
X211159923Y-356226817D02*
X211064685Y-356322055D01*
X211064685Y-356322055D02*
X210874209Y-356417293D01*
X210874209Y-356417293D02*
X210493257Y-356512531D01*
X210493257Y-356512531D02*
X210017066Y-356512531D01*
X210017066Y-356512531D02*
X209636114Y-356417293D01*
X209636114Y-356417293D02*
X209445638Y-356322055D01*
X209445638Y-356322055D02*
X209350400Y-356226817D01*
X209350400Y-356226817D02*
X209255161Y-356036341D01*
X209255161Y-356036341D02*
X209255161Y-355845864D01*
X209255161Y-355845864D02*
X209350400Y-355655388D01*
X209350400Y-355655388D02*
X209445638Y-355560150D01*
X209445638Y-355560150D02*
X209636114Y-355464912D01*
X209636114Y-355464912D02*
X210017066Y-355369674D01*
X210017066Y-355369674D02*
X210493257Y-355369674D01*
X210493257Y-355369674D02*
X210874209Y-355464912D01*
X210874209Y-355464912D02*
X211064685Y-355560150D01*
X211064685Y-355560150D02*
X211159923Y-355655388D01*
X211159923Y-355655388D02*
X211255161Y-355845864D01*
X211064685Y-357274436D02*
X211159923Y-357369674D01*
X211159923Y-357369674D02*
X211255161Y-357560150D01*
X211255161Y-357560150D02*
X211255161Y-358036341D01*
X211255161Y-358036341D02*
X211159923Y-358226817D01*
X211159923Y-358226817D02*
X211064685Y-358322055D01*
X211064685Y-358322055D02*
X210874209Y-358417293D01*
X210874209Y-358417293D02*
X210683733Y-358417293D01*
X210683733Y-358417293D02*
X210398019Y-358322055D01*
X210398019Y-358322055D02*
X209255161Y-357179198D01*
X209255161Y-357179198D02*
X209255161Y-358417293D01*
X210588495Y-360131579D02*
X209255161Y-360131579D01*
X211350400Y-359655388D02*
X209921828Y-359179198D01*
X209921828Y-359179198D02*
X209921828Y-360417293D01*
D10*
X207127580Y-357732455D02*
X207127580Y-357541979D01*
X207127580Y-357541979D02*
X207079961Y-357446741D01*
X207079961Y-357446741D02*
X207032342Y-357399122D01*
X207032342Y-357399122D02*
X206889485Y-357303884D01*
X206889485Y-357303884D02*
X206699009Y-357256265D01*
X206699009Y-357256265D02*
X206318057Y-357256265D01*
X206318057Y-357256265D02*
X206222819Y-357303884D01*
X206222819Y-357303884D02*
X206175200Y-357351503D01*
X206175200Y-357351503D02*
X206127580Y-357446741D01*
X206127580Y-357446741D02*
X206127580Y-357637217D01*
X206127580Y-357637217D02*
X206175200Y-357732455D01*
X206175200Y-357732455D02*
X206222819Y-357780074D01*
X206222819Y-357780074D02*
X206318057Y-357827693D01*
X206318057Y-357827693D02*
X206556152Y-357827693D01*
X206556152Y-357827693D02*
X206651390Y-357780074D01*
X206651390Y-357780074D02*
X206699009Y-357732455D01*
X206699009Y-357732455D02*
X206746628Y-357637217D01*
X206746628Y-357637217D02*
X206746628Y-357446741D01*
X206746628Y-357446741D02*
X206699009Y-357351503D01*
X206699009Y-357351503D02*
X206651390Y-357303884D01*
X206651390Y-357303884D02*
X206556152Y-357256265D01*
X206699009Y-358399122D02*
X206746628Y-358303884D01*
X206746628Y-358303884D02*
X206794247Y-358256265D01*
X206794247Y-358256265D02*
X206889485Y-358208646D01*
X206889485Y-358208646D02*
X206937104Y-358208646D01*
X206937104Y-358208646D02*
X207032342Y-358256265D01*
X207032342Y-358256265D02*
X207079961Y-358303884D01*
X207079961Y-358303884D02*
X207127580Y-358399122D01*
X207127580Y-358399122D02*
X207127580Y-358589598D01*
X207127580Y-358589598D02*
X207079961Y-358684836D01*
X207079961Y-358684836D02*
X207032342Y-358732455D01*
X207032342Y-358732455D02*
X206937104Y-358780074D01*
X206937104Y-358780074D02*
X206889485Y-358780074D01*
X206889485Y-358780074D02*
X206794247Y-358732455D01*
X206794247Y-358732455D02*
X206746628Y-358684836D01*
X206746628Y-358684836D02*
X206699009Y-358589598D01*
X206699009Y-358589598D02*
X206699009Y-358399122D01*
X206699009Y-358399122D02*
X206651390Y-358303884D01*
X206651390Y-358303884D02*
X206603771Y-358256265D01*
X206603771Y-358256265D02*
X206508533Y-358208646D01*
X206508533Y-358208646D02*
X206318057Y-358208646D01*
X206318057Y-358208646D02*
X206222819Y-358256265D01*
X206222819Y-358256265D02*
X206175200Y-358303884D01*
X206175200Y-358303884D02*
X206127580Y-358399122D01*
X206127580Y-358399122D02*
X206127580Y-358589598D01*
X206127580Y-358589598D02*
X206175200Y-358684836D01*
X206175200Y-358684836D02*
X206222819Y-358732455D01*
X206222819Y-358732455D02*
X206318057Y-358780074D01*
X206318057Y-358780074D02*
X206508533Y-358780074D01*
X206508533Y-358780074D02*
X206603771Y-358732455D01*
X206603771Y-358732455D02*
X206651390Y-358684836D01*
X206651390Y-358684836D02*
X206699009Y-358589598D01*
X206127580Y-359113408D02*
X206794247Y-359637217D01*
X206794247Y-359113408D02*
X206127580Y-359637217D01*
X206127580Y-360541979D02*
X206127580Y-359970551D01*
X206127580Y-360256265D02*
X207127580Y-360256265D01*
X207127580Y-360256265D02*
X206984723Y-360161027D01*
X206984723Y-360161027D02*
X206889485Y-360065789D01*
X206889485Y-360065789D02*
X206841866Y-359970551D01*
X207127580Y-361161027D02*
X207127580Y-361256265D01*
X207127580Y-361256265D02*
X207079961Y-361351503D01*
X207079961Y-361351503D02*
X207032342Y-361399122D01*
X207032342Y-361399122D02*
X206937104Y-361446741D01*
X206937104Y-361446741D02*
X206746628Y-361494360D01*
X206746628Y-361494360D02*
X206508533Y-361494360D01*
X206508533Y-361494360D02*
X206318057Y-361446741D01*
X206318057Y-361446741D02*
X206222819Y-361399122D01*
X206222819Y-361399122D02*
X206175200Y-361351503D01*
X206175200Y-361351503D02*
X206127580Y-361256265D01*
X206127580Y-361256265D02*
X206127580Y-361161027D01*
X206127580Y-361161027D02*
X206175200Y-361065789D01*
X206175200Y-361065789D02*
X206222819Y-361018170D01*
X206222819Y-361018170D02*
X206318057Y-360970551D01*
X206318057Y-360970551D02*
X206508533Y-360922932D01*
X206508533Y-360922932D02*
X206746628Y-360922932D01*
X206746628Y-360922932D02*
X206937104Y-360970551D01*
X206937104Y-360970551D02*
X207032342Y-361018170D01*
X207032342Y-361018170D02*
X207079961Y-361065789D01*
X207079961Y-361065789D02*
X207127580Y-361161027D01*
X207127580Y-362113408D02*
X207127580Y-362208646D01*
X207127580Y-362208646D02*
X207079961Y-362303884D01*
X207079961Y-362303884D02*
X207032342Y-362351503D01*
X207032342Y-362351503D02*
X206937104Y-362399122D01*
X206937104Y-362399122D02*
X206746628Y-362446741D01*
X206746628Y-362446741D02*
X206508533Y-362446741D01*
X206508533Y-362446741D02*
X206318057Y-362399122D01*
X206318057Y-362399122D02*
X206222819Y-362351503D01*
X206222819Y-362351503D02*
X206175200Y-362303884D01*
X206175200Y-362303884D02*
X206127580Y-362208646D01*
X206127580Y-362208646D02*
X206127580Y-362113408D01*
X206127580Y-362113408D02*
X206175200Y-362018170D01*
X206175200Y-362018170D02*
X206222819Y-361970551D01*
X206222819Y-361970551D02*
X206318057Y-361922932D01*
X206318057Y-361922932D02*
X206508533Y-361875313D01*
X206508533Y-361875313D02*
X206746628Y-361875313D01*
X206746628Y-361875313D02*
X206937104Y-361922932D01*
X206937104Y-361922932D02*
X207032342Y-361970551D01*
X207032342Y-361970551D02*
X207079961Y-362018170D01*
X207079961Y-362018170D02*
X207127580Y-362113408D01*
X206127580Y-362875313D02*
X206794247Y-362875313D01*
X206699009Y-362875313D02*
X206746628Y-362922932D01*
X206746628Y-362922932D02*
X206794247Y-363018170D01*
X206794247Y-363018170D02*
X206794247Y-363161027D01*
X206794247Y-363161027D02*
X206746628Y-363256265D01*
X206746628Y-363256265D02*
X206651390Y-363303884D01*
X206651390Y-363303884D02*
X206127580Y-363303884D01*
X206651390Y-363303884D02*
X206746628Y-363351503D01*
X206746628Y-363351503D02*
X206794247Y-363446741D01*
X206794247Y-363446741D02*
X206794247Y-363589598D01*
X206794247Y-363589598D02*
X206746628Y-363684837D01*
X206746628Y-363684837D02*
X206651390Y-363732456D01*
X206651390Y-363732456D02*
X206127580Y-363732456D01*
X206127580Y-364208646D02*
X206794247Y-364208646D01*
X206699009Y-364208646D02*
X206746628Y-364256265D01*
X206746628Y-364256265D02*
X206794247Y-364351503D01*
X206794247Y-364351503D02*
X206794247Y-364494360D01*
X206794247Y-364494360D02*
X206746628Y-364589598D01*
X206746628Y-364589598D02*
X206651390Y-364637217D01*
X206651390Y-364637217D02*
X206127580Y-364637217D01*
X206651390Y-364637217D02*
X206746628Y-364684836D01*
X206746628Y-364684836D02*
X206794247Y-364780074D01*
X206794247Y-364780074D02*
X206794247Y-364922931D01*
X206794247Y-364922931D02*
X206746628Y-365018170D01*
X206746628Y-365018170D02*
X206651390Y-365065789D01*
X206651390Y-365065789D02*
X206127580Y-365065789D01*
X218127580Y-365232455D02*
X218127580Y-365041979D01*
X218127580Y-365041979D02*
X218079961Y-364946741D01*
X218079961Y-364946741D02*
X218032342Y-364899122D01*
X218032342Y-364899122D02*
X217889485Y-364803884D01*
X217889485Y-364803884D02*
X217699009Y-364756265D01*
X217699009Y-364756265D02*
X217318057Y-364756265D01*
X217318057Y-364756265D02*
X217222819Y-364803884D01*
X217222819Y-364803884D02*
X217175200Y-364851503D01*
X217175200Y-364851503D02*
X217127580Y-364946741D01*
X217127580Y-364946741D02*
X217127580Y-365137217D01*
X217127580Y-365137217D02*
X217175200Y-365232455D01*
X217175200Y-365232455D02*
X217222819Y-365280074D01*
X217222819Y-365280074D02*
X217318057Y-365327693D01*
X217318057Y-365327693D02*
X217556152Y-365327693D01*
X217556152Y-365327693D02*
X217651390Y-365280074D01*
X217651390Y-365280074D02*
X217699009Y-365232455D01*
X217699009Y-365232455D02*
X217746628Y-365137217D01*
X217746628Y-365137217D02*
X217746628Y-364946741D01*
X217746628Y-364946741D02*
X217699009Y-364851503D01*
X217699009Y-364851503D02*
X217651390Y-364803884D01*
X217651390Y-364803884D02*
X217556152Y-364756265D01*
X218127580Y-365661027D02*
X218127580Y-366280074D01*
X218127580Y-366280074D02*
X217746628Y-365946741D01*
X217746628Y-365946741D02*
X217746628Y-366089598D01*
X217746628Y-366089598D02*
X217699009Y-366184836D01*
X217699009Y-366184836D02*
X217651390Y-366232455D01*
X217651390Y-366232455D02*
X217556152Y-366280074D01*
X217556152Y-366280074D02*
X217318057Y-366280074D01*
X217318057Y-366280074D02*
X217222819Y-366232455D01*
X217222819Y-366232455D02*
X217175200Y-366184836D01*
X217175200Y-366184836D02*
X217127580Y-366089598D01*
X217127580Y-366089598D02*
X217127580Y-365803884D01*
X217127580Y-365803884D02*
X217175200Y-365708646D01*
X217175200Y-365708646D02*
X217222819Y-365661027D01*
X217127580Y-366613408D02*
X217794247Y-367137217D01*
X217794247Y-366613408D02*
X217127580Y-367137217D01*
X218127580Y-367994360D02*
X218127580Y-367518170D01*
X218127580Y-367518170D02*
X217651390Y-367470551D01*
X217651390Y-367470551D02*
X217699009Y-367518170D01*
X217699009Y-367518170D02*
X217746628Y-367613408D01*
X217746628Y-367613408D02*
X217746628Y-367851503D01*
X217746628Y-367851503D02*
X217699009Y-367946741D01*
X217699009Y-367946741D02*
X217651390Y-367994360D01*
X217651390Y-367994360D02*
X217556152Y-368041979D01*
X217556152Y-368041979D02*
X217318057Y-368041979D01*
X217318057Y-368041979D02*
X217222819Y-367994360D01*
X217222819Y-367994360D02*
X217175200Y-367946741D01*
X217175200Y-367946741D02*
X217127580Y-367851503D01*
X217127580Y-367851503D02*
X217127580Y-367613408D01*
X217127580Y-367613408D02*
X217175200Y-367518170D01*
X217175200Y-367518170D02*
X217222819Y-367470551D01*
X217699009Y-368613408D02*
X217746628Y-368518170D01*
X217746628Y-368518170D02*
X217794247Y-368470551D01*
X217794247Y-368470551D02*
X217889485Y-368422932D01*
X217889485Y-368422932D02*
X217937104Y-368422932D01*
X217937104Y-368422932D02*
X218032342Y-368470551D01*
X218032342Y-368470551D02*
X218079961Y-368518170D01*
X218079961Y-368518170D02*
X218127580Y-368613408D01*
X218127580Y-368613408D02*
X218127580Y-368803884D01*
X218127580Y-368803884D02*
X218079961Y-368899122D01*
X218079961Y-368899122D02*
X218032342Y-368946741D01*
X218032342Y-368946741D02*
X217937104Y-368994360D01*
X217937104Y-368994360D02*
X217889485Y-368994360D01*
X217889485Y-368994360D02*
X217794247Y-368946741D01*
X217794247Y-368946741D02*
X217746628Y-368899122D01*
X217746628Y-368899122D02*
X217699009Y-368803884D01*
X217699009Y-368803884D02*
X217699009Y-368613408D01*
X217699009Y-368613408D02*
X217651390Y-368518170D01*
X217651390Y-368518170D02*
X217603771Y-368470551D01*
X217603771Y-368470551D02*
X217508533Y-368422932D01*
X217508533Y-368422932D02*
X217318057Y-368422932D01*
X217318057Y-368422932D02*
X217222819Y-368470551D01*
X217222819Y-368470551D02*
X217175200Y-368518170D01*
X217175200Y-368518170D02*
X217127580Y-368613408D01*
X217127580Y-368613408D02*
X217127580Y-368803884D01*
X217127580Y-368803884D02*
X217175200Y-368899122D01*
X217175200Y-368899122D02*
X217222819Y-368946741D01*
X217222819Y-368946741D02*
X217318057Y-368994360D01*
X217318057Y-368994360D02*
X217508533Y-368994360D01*
X217508533Y-368994360D02*
X217603771Y-368946741D01*
X217603771Y-368946741D02*
X217651390Y-368899122D01*
X217651390Y-368899122D02*
X217699009Y-368803884D01*
X217127580Y-369422932D02*
X217794247Y-369422932D01*
X217699009Y-369422932D02*
X217746628Y-369470551D01*
X217746628Y-369470551D02*
X217794247Y-369565789D01*
X217794247Y-369565789D02*
X217794247Y-369708646D01*
X217794247Y-369708646D02*
X217746628Y-369803884D01*
X217746628Y-369803884D02*
X217651390Y-369851503D01*
X217651390Y-369851503D02*
X217127580Y-369851503D01*
X217651390Y-369851503D02*
X217746628Y-369899122D01*
X217746628Y-369899122D02*
X217794247Y-369994360D01*
X217794247Y-369994360D02*
X217794247Y-370137217D01*
X217794247Y-370137217D02*
X217746628Y-370232456D01*
X217746628Y-370232456D02*
X217651390Y-370280075D01*
X217651390Y-370280075D02*
X217127580Y-370280075D01*
X217127580Y-370756265D02*
X217794247Y-370756265D01*
X217699009Y-370756265D02*
X217746628Y-370803884D01*
X217746628Y-370803884D02*
X217794247Y-370899122D01*
X217794247Y-370899122D02*
X217794247Y-371041979D01*
X217794247Y-371041979D02*
X217746628Y-371137217D01*
X217746628Y-371137217D02*
X217651390Y-371184836D01*
X217651390Y-371184836D02*
X217127580Y-371184836D01*
X217651390Y-371184836D02*
X217746628Y-371232455D01*
X217746628Y-371232455D02*
X217794247Y-371327693D01*
X217794247Y-371327693D02*
X217794247Y-371470550D01*
X217794247Y-371470550D02*
X217746628Y-371565789D01*
X217746628Y-371565789D02*
X217651390Y-371613408D01*
X217651390Y-371613408D02*
X217127580Y-371613408D01*
D13*
X283665714Y-350649104D02*
X284141904Y-350649104D01*
X283570476Y-350934819D02*
X283903809Y-349934819D01*
X283903809Y-349934819D02*
X284237142Y-350934819D01*
X285094285Y-350934819D02*
X284522857Y-350934819D01*
X284808571Y-350934819D02*
X284808571Y-349934819D01*
X284808571Y-349934819D02*
X284713333Y-350077676D01*
X284713333Y-350077676D02*
X284618095Y-350172914D01*
X284618095Y-350172914D02*
X284522857Y-350220533D01*
X285641904Y-310385180D02*
X285641904Y-309575657D01*
X285641904Y-309575657D02*
X285594285Y-309480419D01*
X285594285Y-309480419D02*
X285546666Y-309432800D01*
X285546666Y-309432800D02*
X285451428Y-309385180D01*
X285451428Y-309385180D02*
X285260952Y-309385180D01*
X285260952Y-309385180D02*
X285165714Y-309432800D01*
X285165714Y-309432800D02*
X285118095Y-309480419D01*
X285118095Y-309480419D02*
X285070476Y-309575657D01*
X285070476Y-309575657D02*
X285070476Y-310385180D01*
X284641904Y-309432800D02*
X284499047Y-309385180D01*
X284499047Y-309385180D02*
X284260952Y-309385180D01*
X284260952Y-309385180D02*
X284165714Y-309432800D01*
X284165714Y-309432800D02*
X284118095Y-309480419D01*
X284118095Y-309480419D02*
X284070476Y-309575657D01*
X284070476Y-309575657D02*
X284070476Y-309670895D01*
X284070476Y-309670895D02*
X284118095Y-309766133D01*
X284118095Y-309766133D02*
X284165714Y-309813752D01*
X284165714Y-309813752D02*
X284260952Y-309861371D01*
X284260952Y-309861371D02*
X284451428Y-309908990D01*
X284451428Y-309908990D02*
X284546666Y-309956609D01*
X284546666Y-309956609D02*
X284594285Y-310004228D01*
X284594285Y-310004228D02*
X284641904Y-310099466D01*
X284641904Y-310099466D02*
X284641904Y-310194704D01*
X284641904Y-310194704D02*
X284594285Y-310289942D01*
X284594285Y-310289942D02*
X284546666Y-310337561D01*
X284546666Y-310337561D02*
X284451428Y-310385180D01*
X284451428Y-310385180D02*
X284213333Y-310385180D01*
X284213333Y-310385180D02*
X284070476Y-310337561D01*
X283308571Y-309908990D02*
X283165714Y-309861371D01*
X283165714Y-309861371D02*
X283118095Y-309813752D01*
X283118095Y-309813752D02*
X283070476Y-309718514D01*
X283070476Y-309718514D02*
X283070476Y-309575657D01*
X283070476Y-309575657D02*
X283118095Y-309480419D01*
X283118095Y-309480419D02*
X283165714Y-309432800D01*
X283165714Y-309432800D02*
X283260952Y-309385180D01*
X283260952Y-309385180D02*
X283641904Y-309385180D01*
X283641904Y-309385180D02*
X283641904Y-310385180D01*
X283641904Y-310385180D02*
X283308571Y-310385180D01*
X283308571Y-310385180D02*
X283213333Y-310337561D01*
X283213333Y-310337561D02*
X283165714Y-310289942D01*
X283165714Y-310289942D02*
X283118095Y-310194704D01*
X283118095Y-310194704D02*
X283118095Y-310099466D01*
X283118095Y-310099466D02*
X283165714Y-310004228D01*
X283165714Y-310004228D02*
X283213333Y-309956609D01*
X283213333Y-309956609D02*
X283308571Y-309908990D01*
X283308571Y-309908990D02*
X283641904Y-309908990D01*
X236166666Y-301954819D02*
X236166666Y-302669104D01*
X236166666Y-302669104D02*
X236119047Y-302811961D01*
X236119047Y-302811961D02*
X236023809Y-302907200D01*
X236023809Y-302907200D02*
X235880952Y-302954819D01*
X235880952Y-302954819D02*
X235785714Y-302954819D01*
X237071428Y-302288152D02*
X237071428Y-302954819D01*
X236833333Y-301907200D02*
X236595238Y-302621485D01*
X236595238Y-302621485D02*
X237214285Y-302621485D01*
X281494819Y-232944285D02*
X280494819Y-232944285D01*
X280494819Y-232944285D02*
X280494819Y-232706190D01*
X280494819Y-232706190D02*
X280542438Y-232563333D01*
X280542438Y-232563333D02*
X280637676Y-232468095D01*
X280637676Y-232468095D02*
X280732914Y-232420476D01*
X280732914Y-232420476D02*
X280923390Y-232372857D01*
X280923390Y-232372857D02*
X281066247Y-232372857D01*
X281066247Y-232372857D02*
X281256723Y-232420476D01*
X281256723Y-232420476D02*
X281351961Y-232468095D01*
X281351961Y-232468095D02*
X281447200Y-232563333D01*
X281447200Y-232563333D02*
X281494819Y-232706190D01*
X281494819Y-232706190D02*
X281494819Y-232944285D01*
X281494819Y-231420476D02*
X281494819Y-231991904D01*
X281494819Y-231706190D02*
X280494819Y-231706190D01*
X280494819Y-231706190D02*
X280637676Y-231801428D01*
X280637676Y-231801428D02*
X280732914Y-231896666D01*
X280732914Y-231896666D02*
X280780533Y-231991904D01*
X280590057Y-231039523D02*
X280542438Y-230991904D01*
X280542438Y-230991904D02*
X280494819Y-230896666D01*
X280494819Y-230896666D02*
X280494819Y-230658571D01*
X280494819Y-230658571D02*
X280542438Y-230563333D01*
X280542438Y-230563333D02*
X280590057Y-230515714D01*
X280590057Y-230515714D02*
X280685295Y-230468095D01*
X280685295Y-230468095D02*
X280780533Y-230468095D01*
X280780533Y-230468095D02*
X280923390Y-230515714D01*
X280923390Y-230515714D02*
X281494819Y-231087142D01*
X281494819Y-231087142D02*
X281494819Y-230468095D01*
X262357142Y-227454819D02*
X262023809Y-226978628D01*
X261785714Y-227454819D02*
X261785714Y-226454819D01*
X261785714Y-226454819D02*
X262166666Y-226454819D01*
X262166666Y-226454819D02*
X262261904Y-226502438D01*
X262261904Y-226502438D02*
X262309523Y-226550057D01*
X262309523Y-226550057D02*
X262357142Y-226645295D01*
X262357142Y-226645295D02*
X262357142Y-226788152D01*
X262357142Y-226788152D02*
X262309523Y-226883390D01*
X262309523Y-226883390D02*
X262261904Y-226931009D01*
X262261904Y-226931009D02*
X262166666Y-226978628D01*
X262166666Y-226978628D02*
X261785714Y-226978628D01*
X263309523Y-227454819D02*
X262738095Y-227454819D01*
X263023809Y-227454819D02*
X263023809Y-226454819D01*
X263023809Y-226454819D02*
X262928571Y-226597676D01*
X262928571Y-226597676D02*
X262833333Y-226692914D01*
X262833333Y-226692914D02*
X262738095Y-226740533D01*
X264261904Y-227454819D02*
X263690476Y-227454819D01*
X263976190Y-227454819D02*
X263976190Y-226454819D01*
X263976190Y-226454819D02*
X263880952Y-226597676D01*
X263880952Y-226597676D02*
X263785714Y-226692914D01*
X263785714Y-226692914D02*
X263690476Y-226740533D01*
X241494819Y-260484285D02*
X240494819Y-260484285D01*
X240494819Y-260484285D02*
X240494819Y-260246190D01*
X240494819Y-260246190D02*
X240542438Y-260103333D01*
X240542438Y-260103333D02*
X240637676Y-260008095D01*
X240637676Y-260008095D02*
X240732914Y-259960476D01*
X240732914Y-259960476D02*
X240923390Y-259912857D01*
X240923390Y-259912857D02*
X241066247Y-259912857D01*
X241066247Y-259912857D02*
X241256723Y-259960476D01*
X241256723Y-259960476D02*
X241351961Y-260008095D01*
X241351961Y-260008095D02*
X241447200Y-260103333D01*
X241447200Y-260103333D02*
X241494819Y-260246190D01*
X241494819Y-260246190D02*
X241494819Y-260484285D01*
X241494819Y-258960476D02*
X241494819Y-259531904D01*
X241494819Y-259246190D02*
X240494819Y-259246190D01*
X240494819Y-259246190D02*
X240637676Y-259341428D01*
X240637676Y-259341428D02*
X240732914Y-259436666D01*
X240732914Y-259436666D02*
X240780533Y-259531904D01*
X240828152Y-258103333D02*
X241494819Y-258103333D01*
X240447200Y-258341428D02*
X241161485Y-258579523D01*
X241161485Y-258579523D02*
X241161485Y-257960476D01*
X221494819Y-260484285D02*
X220494819Y-260484285D01*
X220494819Y-260484285D02*
X220494819Y-260246190D01*
X220494819Y-260246190D02*
X220542438Y-260103333D01*
X220542438Y-260103333D02*
X220637676Y-260008095D01*
X220637676Y-260008095D02*
X220732914Y-259960476D01*
X220732914Y-259960476D02*
X220923390Y-259912857D01*
X220923390Y-259912857D02*
X221066247Y-259912857D01*
X221066247Y-259912857D02*
X221256723Y-259960476D01*
X221256723Y-259960476D02*
X221351961Y-260008095D01*
X221351961Y-260008095D02*
X221447200Y-260103333D01*
X221447200Y-260103333D02*
X221494819Y-260246190D01*
X221494819Y-260246190D02*
X221494819Y-260484285D01*
X221494819Y-258960476D02*
X221494819Y-259531904D01*
X221494819Y-259246190D02*
X220494819Y-259246190D01*
X220494819Y-259246190D02*
X220637676Y-259341428D01*
X220637676Y-259341428D02*
X220732914Y-259436666D01*
X220732914Y-259436666D02*
X220780533Y-259531904D01*
X220494819Y-258627142D02*
X220494819Y-258008095D01*
X220494819Y-258008095D02*
X220875771Y-258341428D01*
X220875771Y-258341428D02*
X220875771Y-258198571D01*
X220875771Y-258198571D02*
X220923390Y-258103333D01*
X220923390Y-258103333D02*
X220971009Y-258055714D01*
X220971009Y-258055714D02*
X221066247Y-258008095D01*
X221066247Y-258008095D02*
X221304342Y-258008095D01*
X221304342Y-258008095D02*
X221399580Y-258055714D01*
X221399580Y-258055714D02*
X221447200Y-258103333D01*
X221447200Y-258103333D02*
X221494819Y-258198571D01*
X221494819Y-258198571D02*
X221494819Y-258484285D01*
X221494819Y-258484285D02*
X221447200Y-258579523D01*
X221447200Y-258579523D02*
X221399580Y-258627142D01*
X262833333Y-200454819D02*
X262500000Y-199978628D01*
X262261905Y-200454819D02*
X262261905Y-199454819D01*
X262261905Y-199454819D02*
X262642857Y-199454819D01*
X262642857Y-199454819D02*
X262738095Y-199502438D01*
X262738095Y-199502438D02*
X262785714Y-199550057D01*
X262785714Y-199550057D02*
X262833333Y-199645295D01*
X262833333Y-199645295D02*
X262833333Y-199788152D01*
X262833333Y-199788152D02*
X262785714Y-199883390D01*
X262785714Y-199883390D02*
X262738095Y-199931009D01*
X262738095Y-199931009D02*
X262642857Y-199978628D01*
X262642857Y-199978628D02*
X262261905Y-199978628D01*
X263166667Y-199454819D02*
X263833333Y-199454819D01*
X263833333Y-199454819D02*
X263404762Y-200454819D01*
X221494819Y-205468094D02*
X220494819Y-205468094D01*
X220494819Y-205468094D02*
X220494819Y-205229999D01*
X220494819Y-205229999D02*
X220542438Y-205087142D01*
X220542438Y-205087142D02*
X220637676Y-204991904D01*
X220637676Y-204991904D02*
X220732914Y-204944285D01*
X220732914Y-204944285D02*
X220923390Y-204896666D01*
X220923390Y-204896666D02*
X221066247Y-204896666D01*
X221066247Y-204896666D02*
X221256723Y-204944285D01*
X221256723Y-204944285D02*
X221351961Y-204991904D01*
X221351961Y-204991904D02*
X221447200Y-205087142D01*
X221447200Y-205087142D02*
X221494819Y-205229999D01*
X221494819Y-205229999D02*
X221494819Y-205468094D01*
X220494819Y-203991904D02*
X220494819Y-204468094D01*
X220494819Y-204468094D02*
X220971009Y-204515713D01*
X220971009Y-204515713D02*
X220923390Y-204468094D01*
X220923390Y-204468094D02*
X220875771Y-204372856D01*
X220875771Y-204372856D02*
X220875771Y-204134761D01*
X220875771Y-204134761D02*
X220923390Y-204039523D01*
X220923390Y-204039523D02*
X220971009Y-203991904D01*
X220971009Y-203991904D02*
X221066247Y-203944285D01*
X221066247Y-203944285D02*
X221304342Y-203944285D01*
X221304342Y-203944285D02*
X221399580Y-203991904D01*
X221399580Y-203991904D02*
X221447200Y-204039523D01*
X221447200Y-204039523D02*
X221494819Y-204134761D01*
X221494819Y-204134761D02*
X221494819Y-204372856D01*
X221494819Y-204372856D02*
X221447200Y-204468094D01*
X221447200Y-204468094D02*
X221399580Y-204515713D01*
X222833333Y-200454819D02*
X222500000Y-199978628D01*
X222261905Y-200454819D02*
X222261905Y-199454819D01*
X222261905Y-199454819D02*
X222642857Y-199454819D01*
X222642857Y-199454819D02*
X222738095Y-199502438D01*
X222738095Y-199502438D02*
X222785714Y-199550057D01*
X222785714Y-199550057D02*
X222833333Y-199645295D01*
X222833333Y-199645295D02*
X222833333Y-199788152D01*
X222833333Y-199788152D02*
X222785714Y-199883390D01*
X222785714Y-199883390D02*
X222738095Y-199931009D01*
X222738095Y-199931009D02*
X222642857Y-199978628D01*
X222642857Y-199978628D02*
X222261905Y-199978628D01*
X223738095Y-199454819D02*
X223261905Y-199454819D01*
X223261905Y-199454819D02*
X223214286Y-199931009D01*
X223214286Y-199931009D02*
X223261905Y-199883390D01*
X223261905Y-199883390D02*
X223357143Y-199835771D01*
X223357143Y-199835771D02*
X223595238Y-199835771D01*
X223595238Y-199835771D02*
X223690476Y-199883390D01*
X223690476Y-199883390D02*
X223738095Y-199931009D01*
X223738095Y-199931009D02*
X223785714Y-200026247D01*
X223785714Y-200026247D02*
X223785714Y-200264342D01*
X223785714Y-200264342D02*
X223738095Y-200359580D01*
X223738095Y-200359580D02*
X223690476Y-200407200D01*
X223690476Y-200407200D02*
X223595238Y-200454819D01*
X223595238Y-200454819D02*
X223357143Y-200454819D01*
X223357143Y-200454819D02*
X223261905Y-200407200D01*
X223261905Y-200407200D02*
X223214286Y-200359580D01*
X261494819Y-232944285D02*
X260494819Y-232944285D01*
X260494819Y-232944285D02*
X260494819Y-232706190D01*
X260494819Y-232706190D02*
X260542438Y-232563333D01*
X260542438Y-232563333D02*
X260637676Y-232468095D01*
X260637676Y-232468095D02*
X260732914Y-232420476D01*
X260732914Y-232420476D02*
X260923390Y-232372857D01*
X260923390Y-232372857D02*
X261066247Y-232372857D01*
X261066247Y-232372857D02*
X261256723Y-232420476D01*
X261256723Y-232420476D02*
X261351961Y-232468095D01*
X261351961Y-232468095D02*
X261447200Y-232563333D01*
X261447200Y-232563333D02*
X261494819Y-232706190D01*
X261494819Y-232706190D02*
X261494819Y-232944285D01*
X261494819Y-231420476D02*
X261494819Y-231991904D01*
X261494819Y-231706190D02*
X260494819Y-231706190D01*
X260494819Y-231706190D02*
X260637676Y-231801428D01*
X260637676Y-231801428D02*
X260732914Y-231896666D01*
X260732914Y-231896666D02*
X260780533Y-231991904D01*
X261494819Y-230468095D02*
X261494819Y-231039523D01*
X261494819Y-230753809D02*
X260494819Y-230753809D01*
X260494819Y-230753809D02*
X260637676Y-230849047D01*
X260637676Y-230849047D02*
X260732914Y-230944285D01*
X260732914Y-230944285D02*
X260780533Y-231039523D01*
X242833333Y-172454819D02*
X242500000Y-171978628D01*
X242261905Y-172454819D02*
X242261905Y-171454819D01*
X242261905Y-171454819D02*
X242642857Y-171454819D01*
X242642857Y-171454819D02*
X242738095Y-171502438D01*
X242738095Y-171502438D02*
X242785714Y-171550057D01*
X242785714Y-171550057D02*
X242833333Y-171645295D01*
X242833333Y-171645295D02*
X242833333Y-171788152D01*
X242833333Y-171788152D02*
X242785714Y-171883390D01*
X242785714Y-171883390D02*
X242738095Y-171931009D01*
X242738095Y-171931009D02*
X242642857Y-171978628D01*
X242642857Y-171978628D02*
X242261905Y-171978628D01*
X243214286Y-171550057D02*
X243261905Y-171502438D01*
X243261905Y-171502438D02*
X243357143Y-171454819D01*
X243357143Y-171454819D02*
X243595238Y-171454819D01*
X243595238Y-171454819D02*
X243690476Y-171502438D01*
X243690476Y-171502438D02*
X243738095Y-171550057D01*
X243738095Y-171550057D02*
X243785714Y-171645295D01*
X243785714Y-171645295D02*
X243785714Y-171740533D01*
X243785714Y-171740533D02*
X243738095Y-171883390D01*
X243738095Y-171883390D02*
X243166667Y-172454819D01*
X243166667Y-172454819D02*
X243785714Y-172454819D01*
X222357142Y-282454819D02*
X222023809Y-281978628D01*
X221785714Y-282454819D02*
X221785714Y-281454819D01*
X221785714Y-281454819D02*
X222166666Y-281454819D01*
X222166666Y-281454819D02*
X222261904Y-281502438D01*
X222261904Y-281502438D02*
X222309523Y-281550057D01*
X222309523Y-281550057D02*
X222357142Y-281645295D01*
X222357142Y-281645295D02*
X222357142Y-281788152D01*
X222357142Y-281788152D02*
X222309523Y-281883390D01*
X222309523Y-281883390D02*
X222261904Y-281931009D01*
X222261904Y-281931009D02*
X222166666Y-281978628D01*
X222166666Y-281978628D02*
X221785714Y-281978628D01*
X223309523Y-282454819D02*
X222738095Y-282454819D01*
X223023809Y-282454819D02*
X223023809Y-281454819D01*
X223023809Y-281454819D02*
X222928571Y-281597676D01*
X222928571Y-281597676D02*
X222833333Y-281692914D01*
X222833333Y-281692914D02*
X222738095Y-281740533D01*
X223642857Y-281454819D02*
X224309523Y-281454819D01*
X224309523Y-281454819D02*
X223880952Y-282454819D01*
X282833333Y-172454819D02*
X282500000Y-171978628D01*
X282261905Y-172454819D02*
X282261905Y-171454819D01*
X282261905Y-171454819D02*
X282642857Y-171454819D01*
X282642857Y-171454819D02*
X282738095Y-171502438D01*
X282738095Y-171502438D02*
X282785714Y-171550057D01*
X282785714Y-171550057D02*
X282833333Y-171645295D01*
X282833333Y-171645295D02*
X282833333Y-171788152D01*
X282833333Y-171788152D02*
X282785714Y-171883390D01*
X282785714Y-171883390D02*
X282738095Y-171931009D01*
X282738095Y-171931009D02*
X282642857Y-171978628D01*
X282642857Y-171978628D02*
X282261905Y-171978628D01*
X283690476Y-171788152D02*
X283690476Y-172454819D01*
X283452381Y-171407200D02*
X283214286Y-172121485D01*
X283214286Y-172121485D02*
X283833333Y-172121485D01*
X236738095Y-161454819D02*
X236738095Y-162264342D01*
X236738095Y-162264342D02*
X236785714Y-162359580D01*
X236785714Y-162359580D02*
X236833333Y-162407200D01*
X236833333Y-162407200D02*
X236928571Y-162454819D01*
X236928571Y-162454819D02*
X237119047Y-162454819D01*
X237119047Y-162454819D02*
X237214285Y-162407200D01*
X237214285Y-162407200D02*
X237261904Y-162359580D01*
X237261904Y-162359580D02*
X237309523Y-162264342D01*
X237309523Y-162264342D02*
X237309523Y-161454819D01*
X238309523Y-162454819D02*
X237738095Y-162454819D01*
X238023809Y-162454819D02*
X238023809Y-161454819D01*
X238023809Y-161454819D02*
X237928571Y-161597676D01*
X237928571Y-161597676D02*
X237833333Y-161692914D01*
X237833333Y-161692914D02*
X237738095Y-161740533D01*
X261494819Y-260444285D02*
X260494819Y-260444285D01*
X260494819Y-260444285D02*
X260494819Y-260206190D01*
X260494819Y-260206190D02*
X260542438Y-260063333D01*
X260542438Y-260063333D02*
X260637676Y-259968095D01*
X260637676Y-259968095D02*
X260732914Y-259920476D01*
X260732914Y-259920476D02*
X260923390Y-259872857D01*
X260923390Y-259872857D02*
X261066247Y-259872857D01*
X261066247Y-259872857D02*
X261256723Y-259920476D01*
X261256723Y-259920476D02*
X261351961Y-259968095D01*
X261351961Y-259968095D02*
X261447200Y-260063333D01*
X261447200Y-260063333D02*
X261494819Y-260206190D01*
X261494819Y-260206190D02*
X261494819Y-260444285D01*
X261494819Y-258920476D02*
X261494819Y-259491904D01*
X261494819Y-259206190D02*
X260494819Y-259206190D01*
X260494819Y-259206190D02*
X260637676Y-259301428D01*
X260637676Y-259301428D02*
X260732914Y-259396666D01*
X260732914Y-259396666D02*
X260780533Y-259491904D01*
X260494819Y-258015714D02*
X260494819Y-258491904D01*
X260494819Y-258491904D02*
X260971009Y-258539523D01*
X260971009Y-258539523D02*
X260923390Y-258491904D01*
X260923390Y-258491904D02*
X260875771Y-258396666D01*
X260875771Y-258396666D02*
X260875771Y-258158571D01*
X260875771Y-258158571D02*
X260923390Y-258063333D01*
X260923390Y-258063333D02*
X260971009Y-258015714D01*
X260971009Y-258015714D02*
X261066247Y-257968095D01*
X261066247Y-257968095D02*
X261304342Y-257968095D01*
X261304342Y-257968095D02*
X261399580Y-258015714D01*
X261399580Y-258015714D02*
X261447200Y-258063333D01*
X261447200Y-258063333D02*
X261494819Y-258158571D01*
X261494819Y-258158571D02*
X261494819Y-258396666D01*
X261494819Y-258396666D02*
X261447200Y-258491904D01*
X261447200Y-258491904D02*
X261399580Y-258539523D01*
X222833333Y-172454819D02*
X222500000Y-171978628D01*
X222261905Y-172454819D02*
X222261905Y-171454819D01*
X222261905Y-171454819D02*
X222642857Y-171454819D01*
X222642857Y-171454819D02*
X222738095Y-171502438D01*
X222738095Y-171502438D02*
X222785714Y-171550057D01*
X222785714Y-171550057D02*
X222833333Y-171645295D01*
X222833333Y-171645295D02*
X222833333Y-171788152D01*
X222833333Y-171788152D02*
X222785714Y-171883390D01*
X222785714Y-171883390D02*
X222738095Y-171931009D01*
X222738095Y-171931009D02*
X222642857Y-171978628D01*
X222642857Y-171978628D02*
X222261905Y-171978628D01*
X223785714Y-172454819D02*
X223214286Y-172454819D01*
X223500000Y-172454819D02*
X223500000Y-171454819D01*
X223500000Y-171454819D02*
X223404762Y-171597676D01*
X223404762Y-171597676D02*
X223309524Y-171692914D01*
X223309524Y-171692914D02*
X223214286Y-171740533D01*
X241494819Y-177468094D02*
X240494819Y-177468094D01*
X240494819Y-177468094D02*
X240494819Y-177229999D01*
X240494819Y-177229999D02*
X240542438Y-177087142D01*
X240542438Y-177087142D02*
X240637676Y-176991904D01*
X240637676Y-176991904D02*
X240732914Y-176944285D01*
X240732914Y-176944285D02*
X240923390Y-176896666D01*
X240923390Y-176896666D02*
X241066247Y-176896666D01*
X241066247Y-176896666D02*
X241256723Y-176944285D01*
X241256723Y-176944285D02*
X241351961Y-176991904D01*
X241351961Y-176991904D02*
X241447200Y-177087142D01*
X241447200Y-177087142D02*
X241494819Y-177229999D01*
X241494819Y-177229999D02*
X241494819Y-177468094D01*
X240590057Y-176515713D02*
X240542438Y-176468094D01*
X240542438Y-176468094D02*
X240494819Y-176372856D01*
X240494819Y-176372856D02*
X240494819Y-176134761D01*
X240494819Y-176134761D02*
X240542438Y-176039523D01*
X240542438Y-176039523D02*
X240590057Y-175991904D01*
X240590057Y-175991904D02*
X240685295Y-175944285D01*
X240685295Y-175944285D02*
X240780533Y-175944285D01*
X240780533Y-175944285D02*
X240923390Y-175991904D01*
X240923390Y-175991904D02*
X241494819Y-176563332D01*
X241494819Y-176563332D02*
X241494819Y-175944285D01*
X222833333Y-227454819D02*
X222500000Y-226978628D01*
X222261905Y-227454819D02*
X222261905Y-226454819D01*
X222261905Y-226454819D02*
X222642857Y-226454819D01*
X222642857Y-226454819D02*
X222738095Y-226502438D01*
X222738095Y-226502438D02*
X222785714Y-226550057D01*
X222785714Y-226550057D02*
X222833333Y-226645295D01*
X222833333Y-226645295D02*
X222833333Y-226788152D01*
X222833333Y-226788152D02*
X222785714Y-226883390D01*
X222785714Y-226883390D02*
X222738095Y-226931009D01*
X222738095Y-226931009D02*
X222642857Y-226978628D01*
X222642857Y-226978628D02*
X222261905Y-226978628D01*
X223309524Y-227454819D02*
X223500000Y-227454819D01*
X223500000Y-227454819D02*
X223595238Y-227407200D01*
X223595238Y-227407200D02*
X223642857Y-227359580D01*
X223642857Y-227359580D02*
X223738095Y-227216723D01*
X223738095Y-227216723D02*
X223785714Y-227026247D01*
X223785714Y-227026247D02*
X223785714Y-226645295D01*
X223785714Y-226645295D02*
X223738095Y-226550057D01*
X223738095Y-226550057D02*
X223690476Y-226502438D01*
X223690476Y-226502438D02*
X223595238Y-226454819D01*
X223595238Y-226454819D02*
X223404762Y-226454819D01*
X223404762Y-226454819D02*
X223309524Y-226502438D01*
X223309524Y-226502438D02*
X223261905Y-226550057D01*
X223261905Y-226550057D02*
X223214286Y-226645295D01*
X223214286Y-226645295D02*
X223214286Y-226883390D01*
X223214286Y-226883390D02*
X223261905Y-226978628D01*
X223261905Y-226978628D02*
X223309524Y-227026247D01*
X223309524Y-227026247D02*
X223404762Y-227073866D01*
X223404762Y-227073866D02*
X223595238Y-227073866D01*
X223595238Y-227073866D02*
X223690476Y-227026247D01*
X223690476Y-227026247D02*
X223738095Y-226978628D01*
X223738095Y-226978628D02*
X223785714Y-226883390D01*
X281494819Y-177468094D02*
X280494819Y-177468094D01*
X280494819Y-177468094D02*
X280494819Y-177229999D01*
X280494819Y-177229999D02*
X280542438Y-177087142D01*
X280542438Y-177087142D02*
X280637676Y-176991904D01*
X280637676Y-176991904D02*
X280732914Y-176944285D01*
X280732914Y-176944285D02*
X280923390Y-176896666D01*
X280923390Y-176896666D02*
X281066247Y-176896666D01*
X281066247Y-176896666D02*
X281256723Y-176944285D01*
X281256723Y-176944285D02*
X281351961Y-176991904D01*
X281351961Y-176991904D02*
X281447200Y-177087142D01*
X281447200Y-177087142D02*
X281494819Y-177229999D01*
X281494819Y-177229999D02*
X281494819Y-177468094D01*
X280828152Y-176039523D02*
X281494819Y-176039523D01*
X280447200Y-176277618D02*
X281161485Y-176515713D01*
X281161485Y-176515713D02*
X281161485Y-175896666D01*
X292238095Y-299454819D02*
X292238095Y-298454819D01*
X292238095Y-298931009D02*
X292809523Y-298931009D01*
X292809523Y-299454819D02*
X292809523Y-298454819D01*
X293428571Y-298883390D02*
X293333333Y-298835771D01*
X293333333Y-298835771D02*
X293285714Y-298788152D01*
X293285714Y-298788152D02*
X293238095Y-298692914D01*
X293238095Y-298692914D02*
X293238095Y-298645295D01*
X293238095Y-298645295D02*
X293285714Y-298550057D01*
X293285714Y-298550057D02*
X293333333Y-298502438D01*
X293333333Y-298502438D02*
X293428571Y-298454819D01*
X293428571Y-298454819D02*
X293619047Y-298454819D01*
X293619047Y-298454819D02*
X293714285Y-298502438D01*
X293714285Y-298502438D02*
X293761904Y-298550057D01*
X293761904Y-298550057D02*
X293809523Y-298645295D01*
X293809523Y-298645295D02*
X293809523Y-298692914D01*
X293809523Y-298692914D02*
X293761904Y-298788152D01*
X293761904Y-298788152D02*
X293714285Y-298835771D01*
X293714285Y-298835771D02*
X293619047Y-298883390D01*
X293619047Y-298883390D02*
X293428571Y-298883390D01*
X293428571Y-298883390D02*
X293333333Y-298931009D01*
X293333333Y-298931009D02*
X293285714Y-298978628D01*
X293285714Y-298978628D02*
X293238095Y-299073866D01*
X293238095Y-299073866D02*
X293238095Y-299264342D01*
X293238095Y-299264342D02*
X293285714Y-299359580D01*
X293285714Y-299359580D02*
X293333333Y-299407200D01*
X293333333Y-299407200D02*
X293428571Y-299454819D01*
X293428571Y-299454819D02*
X293619047Y-299454819D01*
X293619047Y-299454819D02*
X293714285Y-299407200D01*
X293714285Y-299407200D02*
X293761904Y-299359580D01*
X293761904Y-299359580D02*
X293809523Y-299264342D01*
X293809523Y-299264342D02*
X293809523Y-299073866D01*
X293809523Y-299073866D02*
X293761904Y-298978628D01*
X293761904Y-298978628D02*
X293714285Y-298931009D01*
X293714285Y-298931009D02*
X293619047Y-298883390D01*
X210238095Y-320454819D02*
X210238095Y-319454819D01*
X210238095Y-319931009D02*
X210809523Y-319931009D01*
X210809523Y-320454819D02*
X210809523Y-319454819D01*
X211190476Y-319454819D02*
X211809523Y-319454819D01*
X211809523Y-319454819D02*
X211476190Y-319835771D01*
X211476190Y-319835771D02*
X211619047Y-319835771D01*
X211619047Y-319835771D02*
X211714285Y-319883390D01*
X211714285Y-319883390D02*
X211761904Y-319931009D01*
X211761904Y-319931009D02*
X211809523Y-320026247D01*
X211809523Y-320026247D02*
X211809523Y-320264342D01*
X211809523Y-320264342D02*
X211761904Y-320359580D01*
X211761904Y-320359580D02*
X211714285Y-320407200D01*
X211714285Y-320407200D02*
X211619047Y-320454819D01*
X211619047Y-320454819D02*
X211333333Y-320454819D01*
X211333333Y-320454819D02*
X211238095Y-320407200D01*
X211238095Y-320407200D02*
X211190476Y-320359580D01*
X282357142Y-227454819D02*
X282023809Y-226978628D01*
X281785714Y-227454819D02*
X281785714Y-226454819D01*
X281785714Y-226454819D02*
X282166666Y-226454819D01*
X282166666Y-226454819D02*
X282261904Y-226502438D01*
X282261904Y-226502438D02*
X282309523Y-226550057D01*
X282309523Y-226550057D02*
X282357142Y-226645295D01*
X282357142Y-226645295D02*
X282357142Y-226788152D01*
X282357142Y-226788152D02*
X282309523Y-226883390D01*
X282309523Y-226883390D02*
X282261904Y-226931009D01*
X282261904Y-226931009D02*
X282166666Y-226978628D01*
X282166666Y-226978628D02*
X281785714Y-226978628D01*
X283309523Y-227454819D02*
X282738095Y-227454819D01*
X283023809Y-227454819D02*
X283023809Y-226454819D01*
X283023809Y-226454819D02*
X282928571Y-226597676D01*
X282928571Y-226597676D02*
X282833333Y-226692914D01*
X282833333Y-226692914D02*
X282738095Y-226740533D01*
X283690476Y-226550057D02*
X283738095Y-226502438D01*
X283738095Y-226502438D02*
X283833333Y-226454819D01*
X283833333Y-226454819D02*
X284071428Y-226454819D01*
X284071428Y-226454819D02*
X284166666Y-226502438D01*
X284166666Y-226502438D02*
X284214285Y-226550057D01*
X284214285Y-226550057D02*
X284261904Y-226645295D01*
X284261904Y-226645295D02*
X284261904Y-226740533D01*
X284261904Y-226740533D02*
X284214285Y-226883390D01*
X284214285Y-226883390D02*
X283642857Y-227454819D01*
X283642857Y-227454819D02*
X284261904Y-227454819D01*
X281494819Y-205468094D02*
X280494819Y-205468094D01*
X280494819Y-205468094D02*
X280494819Y-205229999D01*
X280494819Y-205229999D02*
X280542438Y-205087142D01*
X280542438Y-205087142D02*
X280637676Y-204991904D01*
X280637676Y-204991904D02*
X280732914Y-204944285D01*
X280732914Y-204944285D02*
X280923390Y-204896666D01*
X280923390Y-204896666D02*
X281066247Y-204896666D01*
X281066247Y-204896666D02*
X281256723Y-204944285D01*
X281256723Y-204944285D02*
X281351961Y-204991904D01*
X281351961Y-204991904D02*
X281447200Y-205087142D01*
X281447200Y-205087142D02*
X281494819Y-205229999D01*
X281494819Y-205229999D02*
X281494819Y-205468094D01*
X280923390Y-204325237D02*
X280875771Y-204420475D01*
X280875771Y-204420475D02*
X280828152Y-204468094D01*
X280828152Y-204468094D02*
X280732914Y-204515713D01*
X280732914Y-204515713D02*
X280685295Y-204515713D01*
X280685295Y-204515713D02*
X280590057Y-204468094D01*
X280590057Y-204468094D02*
X280542438Y-204420475D01*
X280542438Y-204420475D02*
X280494819Y-204325237D01*
X280494819Y-204325237D02*
X280494819Y-204134761D01*
X280494819Y-204134761D02*
X280542438Y-204039523D01*
X280542438Y-204039523D02*
X280590057Y-203991904D01*
X280590057Y-203991904D02*
X280685295Y-203944285D01*
X280685295Y-203944285D02*
X280732914Y-203944285D01*
X280732914Y-203944285D02*
X280828152Y-203991904D01*
X280828152Y-203991904D02*
X280875771Y-204039523D01*
X280875771Y-204039523D02*
X280923390Y-204134761D01*
X280923390Y-204134761D02*
X280923390Y-204325237D01*
X280923390Y-204325237D02*
X280971009Y-204420475D01*
X280971009Y-204420475D02*
X281018628Y-204468094D01*
X281018628Y-204468094D02*
X281113866Y-204515713D01*
X281113866Y-204515713D02*
X281304342Y-204515713D01*
X281304342Y-204515713D02*
X281399580Y-204468094D01*
X281399580Y-204468094D02*
X281447200Y-204420475D01*
X281447200Y-204420475D02*
X281494819Y-204325237D01*
X281494819Y-204325237D02*
X281494819Y-204134761D01*
X281494819Y-204134761D02*
X281447200Y-204039523D01*
X281447200Y-204039523D02*
X281399580Y-203991904D01*
X281399580Y-203991904D02*
X281304342Y-203944285D01*
X281304342Y-203944285D02*
X281113866Y-203944285D01*
X281113866Y-203944285D02*
X281018628Y-203991904D01*
X281018628Y-203991904D02*
X280971009Y-204039523D01*
X280971009Y-204039523D02*
X280923390Y-204134761D01*
X221494819Y-288484285D02*
X220494819Y-288484285D01*
X220494819Y-288484285D02*
X220494819Y-288246190D01*
X220494819Y-288246190D02*
X220542438Y-288103333D01*
X220542438Y-288103333D02*
X220637676Y-288008095D01*
X220637676Y-288008095D02*
X220732914Y-287960476D01*
X220732914Y-287960476D02*
X220923390Y-287912857D01*
X220923390Y-287912857D02*
X221066247Y-287912857D01*
X221066247Y-287912857D02*
X221256723Y-287960476D01*
X221256723Y-287960476D02*
X221351961Y-288008095D01*
X221351961Y-288008095D02*
X221447200Y-288103333D01*
X221447200Y-288103333D02*
X221494819Y-288246190D01*
X221494819Y-288246190D02*
X221494819Y-288484285D01*
X221494819Y-286960476D02*
X221494819Y-287531904D01*
X221494819Y-287246190D02*
X220494819Y-287246190D01*
X220494819Y-287246190D02*
X220637676Y-287341428D01*
X220637676Y-287341428D02*
X220732914Y-287436666D01*
X220732914Y-287436666D02*
X220780533Y-287531904D01*
X220494819Y-286627142D02*
X220494819Y-285960476D01*
X220494819Y-285960476D02*
X221494819Y-286389047D01*
X241494819Y-232944285D02*
X240494819Y-232944285D01*
X240494819Y-232944285D02*
X240494819Y-232706190D01*
X240494819Y-232706190D02*
X240542438Y-232563333D01*
X240542438Y-232563333D02*
X240637676Y-232468095D01*
X240637676Y-232468095D02*
X240732914Y-232420476D01*
X240732914Y-232420476D02*
X240923390Y-232372857D01*
X240923390Y-232372857D02*
X241066247Y-232372857D01*
X241066247Y-232372857D02*
X241256723Y-232420476D01*
X241256723Y-232420476D02*
X241351961Y-232468095D01*
X241351961Y-232468095D02*
X241447200Y-232563333D01*
X241447200Y-232563333D02*
X241494819Y-232706190D01*
X241494819Y-232706190D02*
X241494819Y-232944285D01*
X241494819Y-231420476D02*
X241494819Y-231991904D01*
X241494819Y-231706190D02*
X240494819Y-231706190D01*
X240494819Y-231706190D02*
X240637676Y-231801428D01*
X240637676Y-231801428D02*
X240732914Y-231896666D01*
X240732914Y-231896666D02*
X240780533Y-231991904D01*
X240494819Y-230801428D02*
X240494819Y-230706190D01*
X240494819Y-230706190D02*
X240542438Y-230610952D01*
X240542438Y-230610952D02*
X240590057Y-230563333D01*
X240590057Y-230563333D02*
X240685295Y-230515714D01*
X240685295Y-230515714D02*
X240875771Y-230468095D01*
X240875771Y-230468095D02*
X241113866Y-230468095D01*
X241113866Y-230468095D02*
X241304342Y-230515714D01*
X241304342Y-230515714D02*
X241399580Y-230563333D01*
X241399580Y-230563333D02*
X241447200Y-230610952D01*
X241447200Y-230610952D02*
X241494819Y-230706190D01*
X241494819Y-230706190D02*
X241494819Y-230801428D01*
X241494819Y-230801428D02*
X241447200Y-230896666D01*
X241447200Y-230896666D02*
X241399580Y-230944285D01*
X241399580Y-230944285D02*
X241304342Y-230991904D01*
X241304342Y-230991904D02*
X241113866Y-231039523D01*
X241113866Y-231039523D02*
X240875771Y-231039523D01*
X240875771Y-231039523D02*
X240685295Y-230991904D01*
X240685295Y-230991904D02*
X240590057Y-230944285D01*
X240590057Y-230944285D02*
X240542438Y-230896666D01*
X240542438Y-230896666D02*
X240494819Y-230801428D01*
X241494819Y-205468094D02*
X240494819Y-205468094D01*
X240494819Y-205468094D02*
X240494819Y-205229999D01*
X240494819Y-205229999D02*
X240542438Y-205087142D01*
X240542438Y-205087142D02*
X240637676Y-204991904D01*
X240637676Y-204991904D02*
X240732914Y-204944285D01*
X240732914Y-204944285D02*
X240923390Y-204896666D01*
X240923390Y-204896666D02*
X241066247Y-204896666D01*
X241066247Y-204896666D02*
X241256723Y-204944285D01*
X241256723Y-204944285D02*
X241351961Y-204991904D01*
X241351961Y-204991904D02*
X241447200Y-205087142D01*
X241447200Y-205087142D02*
X241494819Y-205229999D01*
X241494819Y-205229999D02*
X241494819Y-205468094D01*
X240494819Y-204039523D02*
X240494819Y-204229999D01*
X240494819Y-204229999D02*
X240542438Y-204325237D01*
X240542438Y-204325237D02*
X240590057Y-204372856D01*
X240590057Y-204372856D02*
X240732914Y-204468094D01*
X240732914Y-204468094D02*
X240923390Y-204515713D01*
X240923390Y-204515713D02*
X241304342Y-204515713D01*
X241304342Y-204515713D02*
X241399580Y-204468094D01*
X241399580Y-204468094D02*
X241447200Y-204420475D01*
X241447200Y-204420475D02*
X241494819Y-204325237D01*
X241494819Y-204325237D02*
X241494819Y-204134761D01*
X241494819Y-204134761D02*
X241447200Y-204039523D01*
X241447200Y-204039523D02*
X241399580Y-203991904D01*
X241399580Y-203991904D02*
X241304342Y-203944285D01*
X241304342Y-203944285D02*
X241066247Y-203944285D01*
X241066247Y-203944285D02*
X240971009Y-203991904D01*
X240971009Y-203991904D02*
X240923390Y-204039523D01*
X240923390Y-204039523D02*
X240875771Y-204134761D01*
X240875771Y-204134761D02*
X240875771Y-204325237D01*
X240875771Y-204325237D02*
X240923390Y-204420475D01*
X240923390Y-204420475D02*
X240971009Y-204468094D01*
X240971009Y-204468094D02*
X241066247Y-204515713D01*
X281494819Y-288484285D02*
X280494819Y-288484285D01*
X280494819Y-288484285D02*
X280494819Y-288246190D01*
X280494819Y-288246190D02*
X280542438Y-288103333D01*
X280542438Y-288103333D02*
X280637676Y-288008095D01*
X280637676Y-288008095D02*
X280732914Y-287960476D01*
X280732914Y-287960476D02*
X280923390Y-287912857D01*
X280923390Y-287912857D02*
X281066247Y-287912857D01*
X281066247Y-287912857D02*
X281256723Y-287960476D01*
X281256723Y-287960476D02*
X281351961Y-288008095D01*
X281351961Y-288008095D02*
X281447200Y-288103333D01*
X281447200Y-288103333D02*
X281494819Y-288246190D01*
X281494819Y-288246190D02*
X281494819Y-288484285D01*
X280590057Y-287531904D02*
X280542438Y-287484285D01*
X280542438Y-287484285D02*
X280494819Y-287389047D01*
X280494819Y-287389047D02*
X280494819Y-287150952D01*
X280494819Y-287150952D02*
X280542438Y-287055714D01*
X280542438Y-287055714D02*
X280590057Y-287008095D01*
X280590057Y-287008095D02*
X280685295Y-286960476D01*
X280685295Y-286960476D02*
X280780533Y-286960476D01*
X280780533Y-286960476D02*
X280923390Y-287008095D01*
X280923390Y-287008095D02*
X281494819Y-287579523D01*
X281494819Y-287579523D02*
X281494819Y-286960476D01*
X280494819Y-286341428D02*
X280494819Y-286246190D01*
X280494819Y-286246190D02*
X280542438Y-286150952D01*
X280542438Y-286150952D02*
X280590057Y-286103333D01*
X280590057Y-286103333D02*
X280685295Y-286055714D01*
X280685295Y-286055714D02*
X280875771Y-286008095D01*
X280875771Y-286008095D02*
X281113866Y-286008095D01*
X281113866Y-286008095D02*
X281304342Y-286055714D01*
X281304342Y-286055714D02*
X281399580Y-286103333D01*
X281399580Y-286103333D02*
X281447200Y-286150952D01*
X281447200Y-286150952D02*
X281494819Y-286246190D01*
X281494819Y-286246190D02*
X281494819Y-286341428D01*
X281494819Y-286341428D02*
X281447200Y-286436666D01*
X281447200Y-286436666D02*
X281399580Y-286484285D01*
X281399580Y-286484285D02*
X281304342Y-286531904D01*
X281304342Y-286531904D02*
X281113866Y-286579523D01*
X281113866Y-286579523D02*
X280875771Y-286579523D01*
X280875771Y-286579523D02*
X280685295Y-286531904D01*
X280685295Y-286531904D02*
X280590057Y-286484285D01*
X280590057Y-286484285D02*
X280542438Y-286436666D01*
X280542438Y-286436666D02*
X280494819Y-286341428D01*
X242357142Y-227454819D02*
X242023809Y-226978628D01*
X241785714Y-227454819D02*
X241785714Y-226454819D01*
X241785714Y-226454819D02*
X242166666Y-226454819D01*
X242166666Y-226454819D02*
X242261904Y-226502438D01*
X242261904Y-226502438D02*
X242309523Y-226550057D01*
X242309523Y-226550057D02*
X242357142Y-226645295D01*
X242357142Y-226645295D02*
X242357142Y-226788152D01*
X242357142Y-226788152D02*
X242309523Y-226883390D01*
X242309523Y-226883390D02*
X242261904Y-226931009D01*
X242261904Y-226931009D02*
X242166666Y-226978628D01*
X242166666Y-226978628D02*
X241785714Y-226978628D01*
X243309523Y-227454819D02*
X242738095Y-227454819D01*
X243023809Y-227454819D02*
X243023809Y-226454819D01*
X243023809Y-226454819D02*
X242928571Y-226597676D01*
X242928571Y-226597676D02*
X242833333Y-226692914D01*
X242833333Y-226692914D02*
X242738095Y-226740533D01*
X243928571Y-226454819D02*
X244023809Y-226454819D01*
X244023809Y-226454819D02*
X244119047Y-226502438D01*
X244119047Y-226502438D02*
X244166666Y-226550057D01*
X244166666Y-226550057D02*
X244214285Y-226645295D01*
X244214285Y-226645295D02*
X244261904Y-226835771D01*
X244261904Y-226835771D02*
X244261904Y-227073866D01*
X244261904Y-227073866D02*
X244214285Y-227264342D01*
X244214285Y-227264342D02*
X244166666Y-227359580D01*
X244166666Y-227359580D02*
X244119047Y-227407200D01*
X244119047Y-227407200D02*
X244023809Y-227454819D01*
X244023809Y-227454819D02*
X243928571Y-227454819D01*
X243928571Y-227454819D02*
X243833333Y-227407200D01*
X243833333Y-227407200D02*
X243785714Y-227359580D01*
X243785714Y-227359580D02*
X243738095Y-227264342D01*
X243738095Y-227264342D02*
X243690476Y-227073866D01*
X243690476Y-227073866D02*
X243690476Y-226835771D01*
X243690476Y-226835771D02*
X243738095Y-226645295D01*
X243738095Y-226645295D02*
X243785714Y-226550057D01*
X243785714Y-226550057D02*
X243833333Y-226502438D01*
X243833333Y-226502438D02*
X243928571Y-226454819D01*
X222666666Y-155454819D02*
X222666666Y-156169104D01*
X222666666Y-156169104D02*
X222619047Y-156311961D01*
X222619047Y-156311961D02*
X222523809Y-156407200D01*
X222523809Y-156407200D02*
X222380952Y-156454819D01*
X222380952Y-156454819D02*
X222285714Y-156454819D01*
X223047619Y-155454819D02*
X223666666Y-155454819D01*
X223666666Y-155454819D02*
X223333333Y-155835771D01*
X223333333Y-155835771D02*
X223476190Y-155835771D01*
X223476190Y-155835771D02*
X223571428Y-155883390D01*
X223571428Y-155883390D02*
X223619047Y-155931009D01*
X223619047Y-155931009D02*
X223666666Y-156026247D01*
X223666666Y-156026247D02*
X223666666Y-156264342D01*
X223666666Y-156264342D02*
X223619047Y-156359580D01*
X223619047Y-156359580D02*
X223571428Y-156407200D01*
X223571428Y-156407200D02*
X223476190Y-156454819D01*
X223476190Y-156454819D02*
X223190476Y-156454819D01*
X223190476Y-156454819D02*
X223095238Y-156407200D01*
X223095238Y-156407200D02*
X223047619Y-156359580D01*
X222357142Y-254454819D02*
X222023809Y-253978628D01*
X221785714Y-254454819D02*
X221785714Y-253454819D01*
X221785714Y-253454819D02*
X222166666Y-253454819D01*
X222166666Y-253454819D02*
X222261904Y-253502438D01*
X222261904Y-253502438D02*
X222309523Y-253550057D01*
X222309523Y-253550057D02*
X222357142Y-253645295D01*
X222357142Y-253645295D02*
X222357142Y-253788152D01*
X222357142Y-253788152D02*
X222309523Y-253883390D01*
X222309523Y-253883390D02*
X222261904Y-253931009D01*
X222261904Y-253931009D02*
X222166666Y-253978628D01*
X222166666Y-253978628D02*
X221785714Y-253978628D01*
X223309523Y-254454819D02*
X222738095Y-254454819D01*
X223023809Y-254454819D02*
X223023809Y-253454819D01*
X223023809Y-253454819D02*
X222928571Y-253597676D01*
X222928571Y-253597676D02*
X222833333Y-253692914D01*
X222833333Y-253692914D02*
X222738095Y-253740533D01*
X223642857Y-253454819D02*
X224261904Y-253454819D01*
X224261904Y-253454819D02*
X223928571Y-253835771D01*
X223928571Y-253835771D02*
X224071428Y-253835771D01*
X224071428Y-253835771D02*
X224166666Y-253883390D01*
X224166666Y-253883390D02*
X224214285Y-253931009D01*
X224214285Y-253931009D02*
X224261904Y-254026247D01*
X224261904Y-254026247D02*
X224261904Y-254264342D01*
X224261904Y-254264342D02*
X224214285Y-254359580D01*
X224214285Y-254359580D02*
X224166666Y-254407200D01*
X224166666Y-254407200D02*
X224071428Y-254454819D01*
X224071428Y-254454819D02*
X223785714Y-254454819D01*
X223785714Y-254454819D02*
X223690476Y-254407200D01*
X223690476Y-254407200D02*
X223642857Y-254359580D01*
X261494819Y-288484285D02*
X260494819Y-288484285D01*
X260494819Y-288484285D02*
X260494819Y-288246190D01*
X260494819Y-288246190D02*
X260542438Y-288103333D01*
X260542438Y-288103333D02*
X260637676Y-288008095D01*
X260637676Y-288008095D02*
X260732914Y-287960476D01*
X260732914Y-287960476D02*
X260923390Y-287912857D01*
X260923390Y-287912857D02*
X261066247Y-287912857D01*
X261066247Y-287912857D02*
X261256723Y-287960476D01*
X261256723Y-287960476D02*
X261351961Y-288008095D01*
X261351961Y-288008095D02*
X261447200Y-288103333D01*
X261447200Y-288103333D02*
X261494819Y-288246190D01*
X261494819Y-288246190D02*
X261494819Y-288484285D01*
X261494819Y-286960476D02*
X261494819Y-287531904D01*
X261494819Y-287246190D02*
X260494819Y-287246190D01*
X260494819Y-287246190D02*
X260637676Y-287341428D01*
X260637676Y-287341428D02*
X260732914Y-287436666D01*
X260732914Y-287436666D02*
X260780533Y-287531904D01*
X261494819Y-286484285D02*
X261494819Y-286293809D01*
X261494819Y-286293809D02*
X261447200Y-286198571D01*
X261447200Y-286198571D02*
X261399580Y-286150952D01*
X261399580Y-286150952D02*
X261256723Y-286055714D01*
X261256723Y-286055714D02*
X261066247Y-286008095D01*
X261066247Y-286008095D02*
X260685295Y-286008095D01*
X260685295Y-286008095D02*
X260590057Y-286055714D01*
X260590057Y-286055714D02*
X260542438Y-286103333D01*
X260542438Y-286103333D02*
X260494819Y-286198571D01*
X260494819Y-286198571D02*
X260494819Y-286389047D01*
X260494819Y-286389047D02*
X260542438Y-286484285D01*
X260542438Y-286484285D02*
X260590057Y-286531904D01*
X260590057Y-286531904D02*
X260685295Y-286579523D01*
X260685295Y-286579523D02*
X260923390Y-286579523D01*
X260923390Y-286579523D02*
X261018628Y-286531904D01*
X261018628Y-286531904D02*
X261066247Y-286484285D01*
X261066247Y-286484285D02*
X261113866Y-286389047D01*
X261113866Y-286389047D02*
X261113866Y-286198571D01*
X261113866Y-286198571D02*
X261066247Y-286103333D01*
X261066247Y-286103333D02*
X261018628Y-286055714D01*
X261018628Y-286055714D02*
X260923390Y-286008095D01*
X216238095Y-299454819D02*
X216238095Y-298454819D01*
X216238095Y-298931009D02*
X216809523Y-298931009D01*
X216809523Y-299454819D02*
X216809523Y-298454819D01*
X217190476Y-298454819D02*
X217857142Y-298454819D01*
X217857142Y-298454819D02*
X217428571Y-299454819D01*
X298238095Y-320454819D02*
X298238095Y-319454819D01*
X298238095Y-319931009D02*
X298809523Y-319931009D01*
X298809523Y-320454819D02*
X298809523Y-319454819D01*
X299809523Y-320454819D02*
X299238095Y-320454819D01*
X299523809Y-320454819D02*
X299523809Y-319454819D01*
X299523809Y-319454819D02*
X299428571Y-319597676D01*
X299428571Y-319597676D02*
X299333333Y-319692914D01*
X299333333Y-319692914D02*
X299238095Y-319740533D01*
X281494819Y-260444285D02*
X280494819Y-260444285D01*
X280494819Y-260444285D02*
X280494819Y-260206190D01*
X280494819Y-260206190D02*
X280542438Y-260063333D01*
X280542438Y-260063333D02*
X280637676Y-259968095D01*
X280637676Y-259968095D02*
X280732914Y-259920476D01*
X280732914Y-259920476D02*
X280923390Y-259872857D01*
X280923390Y-259872857D02*
X281066247Y-259872857D01*
X281066247Y-259872857D02*
X281256723Y-259920476D01*
X281256723Y-259920476D02*
X281351961Y-259968095D01*
X281351961Y-259968095D02*
X281447200Y-260063333D01*
X281447200Y-260063333D02*
X281494819Y-260206190D01*
X281494819Y-260206190D02*
X281494819Y-260444285D01*
X281494819Y-258920476D02*
X281494819Y-259491904D01*
X281494819Y-259206190D02*
X280494819Y-259206190D01*
X280494819Y-259206190D02*
X280637676Y-259301428D01*
X280637676Y-259301428D02*
X280732914Y-259396666D01*
X280732914Y-259396666D02*
X280780533Y-259491904D01*
X280494819Y-258063333D02*
X280494819Y-258253809D01*
X280494819Y-258253809D02*
X280542438Y-258349047D01*
X280542438Y-258349047D02*
X280590057Y-258396666D01*
X280590057Y-258396666D02*
X280732914Y-258491904D01*
X280732914Y-258491904D02*
X280923390Y-258539523D01*
X280923390Y-258539523D02*
X281304342Y-258539523D01*
X281304342Y-258539523D02*
X281399580Y-258491904D01*
X281399580Y-258491904D02*
X281447200Y-258444285D01*
X281447200Y-258444285D02*
X281494819Y-258349047D01*
X281494819Y-258349047D02*
X281494819Y-258158571D01*
X281494819Y-258158571D02*
X281447200Y-258063333D01*
X281447200Y-258063333D02*
X281399580Y-258015714D01*
X281399580Y-258015714D02*
X281304342Y-257968095D01*
X281304342Y-257968095D02*
X281066247Y-257968095D01*
X281066247Y-257968095D02*
X280971009Y-258015714D01*
X280971009Y-258015714D02*
X280923390Y-258063333D01*
X280923390Y-258063333D02*
X280875771Y-258158571D01*
X280875771Y-258158571D02*
X280875771Y-258349047D01*
X280875771Y-258349047D02*
X280923390Y-258444285D01*
X280923390Y-258444285D02*
X280971009Y-258491904D01*
X280971009Y-258491904D02*
X281066247Y-258539523D01*
X221494819Y-232468094D02*
X220494819Y-232468094D01*
X220494819Y-232468094D02*
X220494819Y-232229999D01*
X220494819Y-232229999D02*
X220542438Y-232087142D01*
X220542438Y-232087142D02*
X220637676Y-231991904D01*
X220637676Y-231991904D02*
X220732914Y-231944285D01*
X220732914Y-231944285D02*
X220923390Y-231896666D01*
X220923390Y-231896666D02*
X221066247Y-231896666D01*
X221066247Y-231896666D02*
X221256723Y-231944285D01*
X221256723Y-231944285D02*
X221351961Y-231991904D01*
X221351961Y-231991904D02*
X221447200Y-232087142D01*
X221447200Y-232087142D02*
X221494819Y-232229999D01*
X221494819Y-232229999D02*
X221494819Y-232468094D01*
X221494819Y-231420475D02*
X221494819Y-231229999D01*
X221494819Y-231229999D02*
X221447200Y-231134761D01*
X221447200Y-231134761D02*
X221399580Y-231087142D01*
X221399580Y-231087142D02*
X221256723Y-230991904D01*
X221256723Y-230991904D02*
X221066247Y-230944285D01*
X221066247Y-230944285D02*
X220685295Y-230944285D01*
X220685295Y-230944285D02*
X220590057Y-230991904D01*
X220590057Y-230991904D02*
X220542438Y-231039523D01*
X220542438Y-231039523D02*
X220494819Y-231134761D01*
X220494819Y-231134761D02*
X220494819Y-231325237D01*
X220494819Y-231325237D02*
X220542438Y-231420475D01*
X220542438Y-231420475D02*
X220590057Y-231468094D01*
X220590057Y-231468094D02*
X220685295Y-231515713D01*
X220685295Y-231515713D02*
X220923390Y-231515713D01*
X220923390Y-231515713D02*
X221018628Y-231468094D01*
X221018628Y-231468094D02*
X221066247Y-231420475D01*
X221066247Y-231420475D02*
X221113866Y-231325237D01*
X221113866Y-231325237D02*
X221113866Y-231134761D01*
X221113866Y-231134761D02*
X221066247Y-231039523D01*
X221066247Y-231039523D02*
X221018628Y-230991904D01*
X221018628Y-230991904D02*
X220923390Y-230944285D01*
X242357142Y-282454819D02*
X242023809Y-281978628D01*
X241785714Y-282454819D02*
X241785714Y-281454819D01*
X241785714Y-281454819D02*
X242166666Y-281454819D01*
X242166666Y-281454819D02*
X242261904Y-281502438D01*
X242261904Y-281502438D02*
X242309523Y-281550057D01*
X242309523Y-281550057D02*
X242357142Y-281645295D01*
X242357142Y-281645295D02*
X242357142Y-281788152D01*
X242357142Y-281788152D02*
X242309523Y-281883390D01*
X242309523Y-281883390D02*
X242261904Y-281931009D01*
X242261904Y-281931009D02*
X242166666Y-281978628D01*
X242166666Y-281978628D02*
X241785714Y-281978628D01*
X243309523Y-282454819D02*
X242738095Y-282454819D01*
X243023809Y-282454819D02*
X243023809Y-281454819D01*
X243023809Y-281454819D02*
X242928571Y-281597676D01*
X242928571Y-281597676D02*
X242833333Y-281692914D01*
X242833333Y-281692914D02*
X242738095Y-281740533D01*
X243880952Y-281883390D02*
X243785714Y-281835771D01*
X243785714Y-281835771D02*
X243738095Y-281788152D01*
X243738095Y-281788152D02*
X243690476Y-281692914D01*
X243690476Y-281692914D02*
X243690476Y-281645295D01*
X243690476Y-281645295D02*
X243738095Y-281550057D01*
X243738095Y-281550057D02*
X243785714Y-281502438D01*
X243785714Y-281502438D02*
X243880952Y-281454819D01*
X243880952Y-281454819D02*
X244071428Y-281454819D01*
X244071428Y-281454819D02*
X244166666Y-281502438D01*
X244166666Y-281502438D02*
X244214285Y-281550057D01*
X244214285Y-281550057D02*
X244261904Y-281645295D01*
X244261904Y-281645295D02*
X244261904Y-281692914D01*
X244261904Y-281692914D02*
X244214285Y-281788152D01*
X244214285Y-281788152D02*
X244166666Y-281835771D01*
X244166666Y-281835771D02*
X244071428Y-281883390D01*
X244071428Y-281883390D02*
X243880952Y-281883390D01*
X243880952Y-281883390D02*
X243785714Y-281931009D01*
X243785714Y-281931009D02*
X243738095Y-281978628D01*
X243738095Y-281978628D02*
X243690476Y-282073866D01*
X243690476Y-282073866D02*
X243690476Y-282264342D01*
X243690476Y-282264342D02*
X243738095Y-282359580D01*
X243738095Y-282359580D02*
X243785714Y-282407200D01*
X243785714Y-282407200D02*
X243880952Y-282454819D01*
X243880952Y-282454819D02*
X244071428Y-282454819D01*
X244071428Y-282454819D02*
X244166666Y-282407200D01*
X244166666Y-282407200D02*
X244214285Y-282359580D01*
X244214285Y-282359580D02*
X244261904Y-282264342D01*
X244261904Y-282264342D02*
X244261904Y-282073866D01*
X244261904Y-282073866D02*
X244214285Y-281978628D01*
X244214285Y-281978628D02*
X244166666Y-281931009D01*
X244166666Y-281931009D02*
X244071428Y-281883390D01*
X261494819Y-205468094D02*
X260494819Y-205468094D01*
X260494819Y-205468094D02*
X260494819Y-205229999D01*
X260494819Y-205229999D02*
X260542438Y-205087142D01*
X260542438Y-205087142D02*
X260637676Y-204991904D01*
X260637676Y-204991904D02*
X260732914Y-204944285D01*
X260732914Y-204944285D02*
X260923390Y-204896666D01*
X260923390Y-204896666D02*
X261066247Y-204896666D01*
X261066247Y-204896666D02*
X261256723Y-204944285D01*
X261256723Y-204944285D02*
X261351961Y-204991904D01*
X261351961Y-204991904D02*
X261447200Y-205087142D01*
X261447200Y-205087142D02*
X261494819Y-205229999D01*
X261494819Y-205229999D02*
X261494819Y-205468094D01*
X260494819Y-204563332D02*
X260494819Y-203896666D01*
X260494819Y-203896666D02*
X261494819Y-204325237D01*
X282182142Y-254454819D02*
X281848809Y-253978628D01*
X281610714Y-254454819D02*
X281610714Y-253454819D01*
X281610714Y-253454819D02*
X281991666Y-253454819D01*
X281991666Y-253454819D02*
X282086904Y-253502438D01*
X282086904Y-253502438D02*
X282134523Y-253550057D01*
X282134523Y-253550057D02*
X282182142Y-253645295D01*
X282182142Y-253645295D02*
X282182142Y-253788152D01*
X282182142Y-253788152D02*
X282134523Y-253883390D01*
X282134523Y-253883390D02*
X282086904Y-253931009D01*
X282086904Y-253931009D02*
X281991666Y-253978628D01*
X281991666Y-253978628D02*
X281610714Y-253978628D01*
X283134523Y-254454819D02*
X282563095Y-254454819D01*
X282848809Y-254454819D02*
X282848809Y-253454819D01*
X282848809Y-253454819D02*
X282753571Y-253597676D01*
X282753571Y-253597676D02*
X282658333Y-253692914D01*
X282658333Y-253692914D02*
X282563095Y-253740533D01*
X283991666Y-253454819D02*
X283801190Y-253454819D01*
X283801190Y-253454819D02*
X283705952Y-253502438D01*
X283705952Y-253502438D02*
X283658333Y-253550057D01*
X283658333Y-253550057D02*
X283563095Y-253692914D01*
X283563095Y-253692914D02*
X283515476Y-253883390D01*
X283515476Y-253883390D02*
X283515476Y-254264342D01*
X283515476Y-254264342D02*
X283563095Y-254359580D01*
X283563095Y-254359580D02*
X283610714Y-254407200D01*
X283610714Y-254407200D02*
X283705952Y-254454819D01*
X283705952Y-254454819D02*
X283896428Y-254454819D01*
X283896428Y-254454819D02*
X283991666Y-254407200D01*
X283991666Y-254407200D02*
X284039285Y-254359580D01*
X284039285Y-254359580D02*
X284086904Y-254264342D01*
X284086904Y-254264342D02*
X284086904Y-254026247D01*
X284086904Y-254026247D02*
X284039285Y-253931009D01*
X284039285Y-253931009D02*
X283991666Y-253883390D01*
X283991666Y-253883390D02*
X283896428Y-253835771D01*
X283896428Y-253835771D02*
X283705952Y-253835771D01*
X283705952Y-253835771D02*
X283610714Y-253883390D01*
X283610714Y-253883390D02*
X283563095Y-253931009D01*
X283563095Y-253931009D02*
X283515476Y-254026247D01*
X242357142Y-254454819D02*
X242023809Y-253978628D01*
X241785714Y-254454819D02*
X241785714Y-253454819D01*
X241785714Y-253454819D02*
X242166666Y-253454819D01*
X242166666Y-253454819D02*
X242261904Y-253502438D01*
X242261904Y-253502438D02*
X242309523Y-253550057D01*
X242309523Y-253550057D02*
X242357142Y-253645295D01*
X242357142Y-253645295D02*
X242357142Y-253788152D01*
X242357142Y-253788152D02*
X242309523Y-253883390D01*
X242309523Y-253883390D02*
X242261904Y-253931009D01*
X242261904Y-253931009D02*
X242166666Y-253978628D01*
X242166666Y-253978628D02*
X241785714Y-253978628D01*
X243309523Y-254454819D02*
X242738095Y-254454819D01*
X243023809Y-254454819D02*
X243023809Y-253454819D01*
X243023809Y-253454819D02*
X242928571Y-253597676D01*
X242928571Y-253597676D02*
X242833333Y-253692914D01*
X242833333Y-253692914D02*
X242738095Y-253740533D01*
X244166666Y-253788152D02*
X244166666Y-254454819D01*
X243928571Y-253407200D02*
X243690476Y-254121485D01*
X243690476Y-254121485D02*
X244309523Y-254121485D01*
X210238095Y-364454819D02*
X210238095Y-363454819D01*
X210238095Y-363931009D02*
X210809523Y-363931009D01*
X210809523Y-364454819D02*
X210809523Y-363454819D01*
X211714285Y-363788152D02*
X211714285Y-364454819D01*
X211476190Y-363407200D02*
X211238095Y-364121485D01*
X211238095Y-364121485D02*
X211857142Y-364121485D01*
X282357142Y-282454819D02*
X282023809Y-281978628D01*
X281785714Y-282454819D02*
X281785714Y-281454819D01*
X281785714Y-281454819D02*
X282166666Y-281454819D01*
X282166666Y-281454819D02*
X282261904Y-281502438D01*
X282261904Y-281502438D02*
X282309523Y-281550057D01*
X282309523Y-281550057D02*
X282357142Y-281645295D01*
X282357142Y-281645295D02*
X282357142Y-281788152D01*
X282357142Y-281788152D02*
X282309523Y-281883390D01*
X282309523Y-281883390D02*
X282261904Y-281931009D01*
X282261904Y-281931009D02*
X282166666Y-281978628D01*
X282166666Y-281978628D02*
X281785714Y-281978628D01*
X282738095Y-281550057D02*
X282785714Y-281502438D01*
X282785714Y-281502438D02*
X282880952Y-281454819D01*
X282880952Y-281454819D02*
X283119047Y-281454819D01*
X283119047Y-281454819D02*
X283214285Y-281502438D01*
X283214285Y-281502438D02*
X283261904Y-281550057D01*
X283261904Y-281550057D02*
X283309523Y-281645295D01*
X283309523Y-281645295D02*
X283309523Y-281740533D01*
X283309523Y-281740533D02*
X283261904Y-281883390D01*
X283261904Y-281883390D02*
X282690476Y-282454819D01*
X282690476Y-282454819D02*
X283309523Y-282454819D01*
X283928571Y-281454819D02*
X284023809Y-281454819D01*
X284023809Y-281454819D02*
X284119047Y-281502438D01*
X284119047Y-281502438D02*
X284166666Y-281550057D01*
X284166666Y-281550057D02*
X284214285Y-281645295D01*
X284214285Y-281645295D02*
X284261904Y-281835771D01*
X284261904Y-281835771D02*
X284261904Y-282073866D01*
X284261904Y-282073866D02*
X284214285Y-282264342D01*
X284214285Y-282264342D02*
X284166666Y-282359580D01*
X284166666Y-282359580D02*
X284119047Y-282407200D01*
X284119047Y-282407200D02*
X284023809Y-282454819D01*
X284023809Y-282454819D02*
X283928571Y-282454819D01*
X283928571Y-282454819D02*
X283833333Y-282407200D01*
X283833333Y-282407200D02*
X283785714Y-282359580D01*
X283785714Y-282359580D02*
X283738095Y-282264342D01*
X283738095Y-282264342D02*
X283690476Y-282073866D01*
X283690476Y-282073866D02*
X283690476Y-281835771D01*
X283690476Y-281835771D02*
X283738095Y-281645295D01*
X283738095Y-281645295D02*
X283785714Y-281550057D01*
X283785714Y-281550057D02*
X283833333Y-281502438D01*
X283833333Y-281502438D02*
X283928571Y-281454819D01*
X292238095Y-161454819D02*
X292238095Y-160454819D01*
X292238095Y-160931009D02*
X292809523Y-160931009D01*
X292809523Y-161454819D02*
X292809523Y-160454819D01*
X293714285Y-160454819D02*
X293523809Y-160454819D01*
X293523809Y-160454819D02*
X293428571Y-160502438D01*
X293428571Y-160502438D02*
X293380952Y-160550057D01*
X293380952Y-160550057D02*
X293285714Y-160692914D01*
X293285714Y-160692914D02*
X293238095Y-160883390D01*
X293238095Y-160883390D02*
X293238095Y-161264342D01*
X293238095Y-161264342D02*
X293285714Y-161359580D01*
X293285714Y-161359580D02*
X293333333Y-161407200D01*
X293333333Y-161407200D02*
X293428571Y-161454819D01*
X293428571Y-161454819D02*
X293619047Y-161454819D01*
X293619047Y-161454819D02*
X293714285Y-161407200D01*
X293714285Y-161407200D02*
X293761904Y-161359580D01*
X293761904Y-161359580D02*
X293809523Y-161264342D01*
X293809523Y-161264342D02*
X293809523Y-161026247D01*
X293809523Y-161026247D02*
X293761904Y-160931009D01*
X293761904Y-160931009D02*
X293714285Y-160883390D01*
X293714285Y-160883390D02*
X293619047Y-160835771D01*
X293619047Y-160835771D02*
X293428571Y-160835771D01*
X293428571Y-160835771D02*
X293333333Y-160883390D01*
X293333333Y-160883390D02*
X293285714Y-160931009D01*
X293285714Y-160931009D02*
X293238095Y-161026247D01*
X299738095Y-364454819D02*
X299738095Y-363454819D01*
X299738095Y-363931009D02*
X300309523Y-363931009D01*
X300309523Y-364454819D02*
X300309523Y-363454819D01*
X300738095Y-363550057D02*
X300785714Y-363502438D01*
X300785714Y-363502438D02*
X300880952Y-363454819D01*
X300880952Y-363454819D02*
X301119047Y-363454819D01*
X301119047Y-363454819D02*
X301214285Y-363502438D01*
X301214285Y-363502438D02*
X301261904Y-363550057D01*
X301261904Y-363550057D02*
X301309523Y-363645295D01*
X301309523Y-363645295D02*
X301309523Y-363740533D01*
X301309523Y-363740533D02*
X301261904Y-363883390D01*
X301261904Y-363883390D02*
X300690476Y-364454819D01*
X300690476Y-364454819D02*
X301309523Y-364454819D01*
X262357142Y-282454819D02*
X262023809Y-281978628D01*
X261785714Y-282454819D02*
X261785714Y-281454819D01*
X261785714Y-281454819D02*
X262166666Y-281454819D01*
X262166666Y-281454819D02*
X262261904Y-281502438D01*
X262261904Y-281502438D02*
X262309523Y-281550057D01*
X262309523Y-281550057D02*
X262357142Y-281645295D01*
X262357142Y-281645295D02*
X262357142Y-281788152D01*
X262357142Y-281788152D02*
X262309523Y-281883390D01*
X262309523Y-281883390D02*
X262261904Y-281931009D01*
X262261904Y-281931009D02*
X262166666Y-281978628D01*
X262166666Y-281978628D02*
X261785714Y-281978628D01*
X263309523Y-282454819D02*
X262738095Y-282454819D01*
X263023809Y-282454819D02*
X263023809Y-281454819D01*
X263023809Y-281454819D02*
X262928571Y-281597676D01*
X262928571Y-281597676D02*
X262833333Y-281692914D01*
X262833333Y-281692914D02*
X262738095Y-281740533D01*
X263785714Y-282454819D02*
X263976190Y-282454819D01*
X263976190Y-282454819D02*
X264071428Y-282407200D01*
X264071428Y-282407200D02*
X264119047Y-282359580D01*
X264119047Y-282359580D02*
X264214285Y-282216723D01*
X264214285Y-282216723D02*
X264261904Y-282026247D01*
X264261904Y-282026247D02*
X264261904Y-281645295D01*
X264261904Y-281645295D02*
X264214285Y-281550057D01*
X264214285Y-281550057D02*
X264166666Y-281502438D01*
X264166666Y-281502438D02*
X264071428Y-281454819D01*
X264071428Y-281454819D02*
X263880952Y-281454819D01*
X263880952Y-281454819D02*
X263785714Y-281502438D01*
X263785714Y-281502438D02*
X263738095Y-281550057D01*
X263738095Y-281550057D02*
X263690476Y-281645295D01*
X263690476Y-281645295D02*
X263690476Y-281883390D01*
X263690476Y-281883390D02*
X263738095Y-281978628D01*
X263738095Y-281978628D02*
X263785714Y-282026247D01*
X263785714Y-282026247D02*
X263880952Y-282073866D01*
X263880952Y-282073866D02*
X264071428Y-282073866D01*
X264071428Y-282073866D02*
X264166666Y-282026247D01*
X264166666Y-282026247D02*
X264214285Y-281978628D01*
X264214285Y-281978628D02*
X264261904Y-281883390D01*
X242833333Y-200454819D02*
X242500000Y-199978628D01*
X242261905Y-200454819D02*
X242261905Y-199454819D01*
X242261905Y-199454819D02*
X242642857Y-199454819D01*
X242642857Y-199454819D02*
X242738095Y-199502438D01*
X242738095Y-199502438D02*
X242785714Y-199550057D01*
X242785714Y-199550057D02*
X242833333Y-199645295D01*
X242833333Y-199645295D02*
X242833333Y-199788152D01*
X242833333Y-199788152D02*
X242785714Y-199883390D01*
X242785714Y-199883390D02*
X242738095Y-199931009D01*
X242738095Y-199931009D02*
X242642857Y-199978628D01*
X242642857Y-199978628D02*
X242261905Y-199978628D01*
X243690476Y-199454819D02*
X243500000Y-199454819D01*
X243500000Y-199454819D02*
X243404762Y-199502438D01*
X243404762Y-199502438D02*
X243357143Y-199550057D01*
X243357143Y-199550057D02*
X243261905Y-199692914D01*
X243261905Y-199692914D02*
X243214286Y-199883390D01*
X243214286Y-199883390D02*
X243214286Y-200264342D01*
X243214286Y-200264342D02*
X243261905Y-200359580D01*
X243261905Y-200359580D02*
X243309524Y-200407200D01*
X243309524Y-200407200D02*
X243404762Y-200454819D01*
X243404762Y-200454819D02*
X243595238Y-200454819D01*
X243595238Y-200454819D02*
X243690476Y-200407200D01*
X243690476Y-200407200D02*
X243738095Y-200359580D01*
X243738095Y-200359580D02*
X243785714Y-200264342D01*
X243785714Y-200264342D02*
X243785714Y-200026247D01*
X243785714Y-200026247D02*
X243738095Y-199931009D01*
X243738095Y-199931009D02*
X243690476Y-199883390D01*
X243690476Y-199883390D02*
X243595238Y-199835771D01*
X243595238Y-199835771D02*
X243404762Y-199835771D01*
X243404762Y-199835771D02*
X243309524Y-199883390D01*
X243309524Y-199883390D02*
X243261905Y-199931009D01*
X243261905Y-199931009D02*
X243214286Y-200026247D01*
X238333333Y-168359580D02*
X238285714Y-168407200D01*
X238285714Y-168407200D02*
X238142857Y-168454819D01*
X238142857Y-168454819D02*
X238047619Y-168454819D01*
X238047619Y-168454819D02*
X237904762Y-168407200D01*
X237904762Y-168407200D02*
X237809524Y-168311961D01*
X237809524Y-168311961D02*
X237761905Y-168216723D01*
X237761905Y-168216723D02*
X237714286Y-168026247D01*
X237714286Y-168026247D02*
X237714286Y-167883390D01*
X237714286Y-167883390D02*
X237761905Y-167692914D01*
X237761905Y-167692914D02*
X237809524Y-167597676D01*
X237809524Y-167597676D02*
X237904762Y-167502438D01*
X237904762Y-167502438D02*
X238047619Y-167454819D01*
X238047619Y-167454819D02*
X238142857Y-167454819D01*
X238142857Y-167454819D02*
X238285714Y-167502438D01*
X238285714Y-167502438D02*
X238333333Y-167550057D01*
X238714286Y-167550057D02*
X238761905Y-167502438D01*
X238761905Y-167502438D02*
X238857143Y-167454819D01*
X238857143Y-167454819D02*
X239095238Y-167454819D01*
X239095238Y-167454819D02*
X239190476Y-167502438D01*
X239190476Y-167502438D02*
X239238095Y-167550057D01*
X239238095Y-167550057D02*
X239285714Y-167645295D01*
X239285714Y-167645295D02*
X239285714Y-167740533D01*
X239285714Y-167740533D02*
X239238095Y-167883390D01*
X239238095Y-167883390D02*
X238666667Y-168454819D01*
X238666667Y-168454819D02*
X239285714Y-168454819D01*
X261494819Y-177468094D02*
X260494819Y-177468094D01*
X260494819Y-177468094D02*
X260494819Y-177229999D01*
X260494819Y-177229999D02*
X260542438Y-177087142D01*
X260542438Y-177087142D02*
X260637676Y-176991904D01*
X260637676Y-176991904D02*
X260732914Y-176944285D01*
X260732914Y-176944285D02*
X260923390Y-176896666D01*
X260923390Y-176896666D02*
X261066247Y-176896666D01*
X261066247Y-176896666D02*
X261256723Y-176944285D01*
X261256723Y-176944285D02*
X261351961Y-176991904D01*
X261351961Y-176991904D02*
X261447200Y-177087142D01*
X261447200Y-177087142D02*
X261494819Y-177229999D01*
X261494819Y-177229999D02*
X261494819Y-177468094D01*
X260494819Y-176563332D02*
X260494819Y-175944285D01*
X260494819Y-175944285D02*
X260875771Y-176277618D01*
X260875771Y-176277618D02*
X260875771Y-176134761D01*
X260875771Y-176134761D02*
X260923390Y-176039523D01*
X260923390Y-176039523D02*
X260971009Y-175991904D01*
X260971009Y-175991904D02*
X261066247Y-175944285D01*
X261066247Y-175944285D02*
X261304342Y-175944285D01*
X261304342Y-175944285D02*
X261399580Y-175991904D01*
X261399580Y-175991904D02*
X261447200Y-176039523D01*
X261447200Y-176039523D02*
X261494819Y-176134761D01*
X261494819Y-176134761D02*
X261494819Y-176420475D01*
X261494819Y-176420475D02*
X261447200Y-176515713D01*
X261447200Y-176515713D02*
X261399580Y-176563332D01*
X262658333Y-172454819D02*
X262325000Y-171978628D01*
X262086905Y-172454819D02*
X262086905Y-171454819D01*
X262086905Y-171454819D02*
X262467857Y-171454819D01*
X262467857Y-171454819D02*
X262563095Y-171502438D01*
X262563095Y-171502438D02*
X262610714Y-171550057D01*
X262610714Y-171550057D02*
X262658333Y-171645295D01*
X262658333Y-171645295D02*
X262658333Y-171788152D01*
X262658333Y-171788152D02*
X262610714Y-171883390D01*
X262610714Y-171883390D02*
X262563095Y-171931009D01*
X262563095Y-171931009D02*
X262467857Y-171978628D01*
X262467857Y-171978628D02*
X262086905Y-171978628D01*
X262991667Y-171454819D02*
X263610714Y-171454819D01*
X263610714Y-171454819D02*
X263277381Y-171835771D01*
X263277381Y-171835771D02*
X263420238Y-171835771D01*
X263420238Y-171835771D02*
X263515476Y-171883390D01*
X263515476Y-171883390D02*
X263563095Y-171931009D01*
X263563095Y-171931009D02*
X263610714Y-172026247D01*
X263610714Y-172026247D02*
X263610714Y-172264342D01*
X263610714Y-172264342D02*
X263563095Y-172359580D01*
X263563095Y-172359580D02*
X263515476Y-172407200D01*
X263515476Y-172407200D02*
X263420238Y-172454819D01*
X263420238Y-172454819D02*
X263134524Y-172454819D01*
X263134524Y-172454819D02*
X263039286Y-172407200D01*
X263039286Y-172407200D02*
X262991667Y-172359580D01*
X283785714Y-354734819D02*
X283785714Y-353734819D01*
X283785714Y-353734819D02*
X284023809Y-353734819D01*
X284023809Y-353734819D02*
X284166666Y-353782438D01*
X284166666Y-353782438D02*
X284261904Y-353877676D01*
X284261904Y-353877676D02*
X284309523Y-353972914D01*
X284309523Y-353972914D02*
X284357142Y-354163390D01*
X284357142Y-354163390D02*
X284357142Y-354306247D01*
X284357142Y-354306247D02*
X284309523Y-354496723D01*
X284309523Y-354496723D02*
X284261904Y-354591961D01*
X284261904Y-354591961D02*
X284166666Y-354687200D01*
X284166666Y-354687200D02*
X284023809Y-354734819D01*
X284023809Y-354734819D02*
X283785714Y-354734819D01*
X284690476Y-353734819D02*
X285309523Y-353734819D01*
X285309523Y-353734819D02*
X284976190Y-354115771D01*
X284976190Y-354115771D02*
X285119047Y-354115771D01*
X285119047Y-354115771D02*
X285214285Y-354163390D01*
X285214285Y-354163390D02*
X285261904Y-354211009D01*
X285261904Y-354211009D02*
X285309523Y-354306247D01*
X285309523Y-354306247D02*
X285309523Y-354544342D01*
X285309523Y-354544342D02*
X285261904Y-354639580D01*
X285261904Y-354639580D02*
X285214285Y-354687200D01*
X285214285Y-354687200D02*
X285119047Y-354734819D01*
X285119047Y-354734819D02*
X284833333Y-354734819D01*
X284833333Y-354734819D02*
X284738095Y-354687200D01*
X284738095Y-354687200D02*
X284690476Y-354639580D01*
X285785714Y-354734819D02*
X285976190Y-354734819D01*
X285976190Y-354734819D02*
X286071428Y-354687200D01*
X286071428Y-354687200D02*
X286119047Y-354639580D01*
X286119047Y-354639580D02*
X286214285Y-354496723D01*
X286214285Y-354496723D02*
X286261904Y-354306247D01*
X286261904Y-354306247D02*
X286261904Y-353925295D01*
X286261904Y-353925295D02*
X286214285Y-353830057D01*
X286214285Y-353830057D02*
X286166666Y-353782438D01*
X286166666Y-353782438D02*
X286071428Y-353734819D01*
X286071428Y-353734819D02*
X285880952Y-353734819D01*
X285880952Y-353734819D02*
X285785714Y-353782438D01*
X285785714Y-353782438D02*
X285738095Y-353830057D01*
X285738095Y-353830057D02*
X285690476Y-353925295D01*
X285690476Y-353925295D02*
X285690476Y-354163390D01*
X285690476Y-354163390D02*
X285738095Y-354258628D01*
X285738095Y-354258628D02*
X285785714Y-354306247D01*
X285785714Y-354306247D02*
X285880952Y-354353866D01*
X285880952Y-354353866D02*
X286071428Y-354353866D01*
X286071428Y-354353866D02*
X286166666Y-354306247D01*
X286166666Y-354306247D02*
X286214285Y-354258628D01*
X286214285Y-354258628D02*
X286261904Y-354163390D01*
X241494819Y-288484285D02*
X240494819Y-288484285D01*
X240494819Y-288484285D02*
X240494819Y-288246190D01*
X240494819Y-288246190D02*
X240542438Y-288103333D01*
X240542438Y-288103333D02*
X240637676Y-288008095D01*
X240637676Y-288008095D02*
X240732914Y-287960476D01*
X240732914Y-287960476D02*
X240923390Y-287912857D01*
X240923390Y-287912857D02*
X241066247Y-287912857D01*
X241066247Y-287912857D02*
X241256723Y-287960476D01*
X241256723Y-287960476D02*
X241351961Y-288008095D01*
X241351961Y-288008095D02*
X241447200Y-288103333D01*
X241447200Y-288103333D02*
X241494819Y-288246190D01*
X241494819Y-288246190D02*
X241494819Y-288484285D01*
X241494819Y-286960476D02*
X241494819Y-287531904D01*
X241494819Y-287246190D02*
X240494819Y-287246190D01*
X240494819Y-287246190D02*
X240637676Y-287341428D01*
X240637676Y-287341428D02*
X240732914Y-287436666D01*
X240732914Y-287436666D02*
X240780533Y-287531904D01*
X240923390Y-286389047D02*
X240875771Y-286484285D01*
X240875771Y-286484285D02*
X240828152Y-286531904D01*
X240828152Y-286531904D02*
X240732914Y-286579523D01*
X240732914Y-286579523D02*
X240685295Y-286579523D01*
X240685295Y-286579523D02*
X240590057Y-286531904D01*
X240590057Y-286531904D02*
X240542438Y-286484285D01*
X240542438Y-286484285D02*
X240494819Y-286389047D01*
X240494819Y-286389047D02*
X240494819Y-286198571D01*
X240494819Y-286198571D02*
X240542438Y-286103333D01*
X240542438Y-286103333D02*
X240590057Y-286055714D01*
X240590057Y-286055714D02*
X240685295Y-286008095D01*
X240685295Y-286008095D02*
X240732914Y-286008095D01*
X240732914Y-286008095D02*
X240828152Y-286055714D01*
X240828152Y-286055714D02*
X240875771Y-286103333D01*
X240875771Y-286103333D02*
X240923390Y-286198571D01*
X240923390Y-286198571D02*
X240923390Y-286389047D01*
X240923390Y-286389047D02*
X240971009Y-286484285D01*
X240971009Y-286484285D02*
X241018628Y-286531904D01*
X241018628Y-286531904D02*
X241113866Y-286579523D01*
X241113866Y-286579523D02*
X241304342Y-286579523D01*
X241304342Y-286579523D02*
X241399580Y-286531904D01*
X241399580Y-286531904D02*
X241447200Y-286484285D01*
X241447200Y-286484285D02*
X241494819Y-286389047D01*
X241494819Y-286389047D02*
X241494819Y-286198571D01*
X241494819Y-286198571D02*
X241447200Y-286103333D01*
X241447200Y-286103333D02*
X241399580Y-286055714D01*
X241399580Y-286055714D02*
X241304342Y-286008095D01*
X241304342Y-286008095D02*
X241113866Y-286008095D01*
X241113866Y-286008095D02*
X241018628Y-286055714D01*
X241018628Y-286055714D02*
X240971009Y-286103333D01*
X240971009Y-286103333D02*
X240923390Y-286198571D01*
X221494819Y-177468094D02*
X220494819Y-177468094D01*
X220494819Y-177468094D02*
X220494819Y-177229999D01*
X220494819Y-177229999D02*
X220542438Y-177087142D01*
X220542438Y-177087142D02*
X220637676Y-176991904D01*
X220637676Y-176991904D02*
X220732914Y-176944285D01*
X220732914Y-176944285D02*
X220923390Y-176896666D01*
X220923390Y-176896666D02*
X221066247Y-176896666D01*
X221066247Y-176896666D02*
X221256723Y-176944285D01*
X221256723Y-176944285D02*
X221351961Y-176991904D01*
X221351961Y-176991904D02*
X221447200Y-177087142D01*
X221447200Y-177087142D02*
X221494819Y-177229999D01*
X221494819Y-177229999D02*
X221494819Y-177468094D01*
X221494819Y-175944285D02*
X221494819Y-176515713D01*
X221494819Y-176229999D02*
X220494819Y-176229999D01*
X220494819Y-176229999D02*
X220637676Y-176325237D01*
X220637676Y-176325237D02*
X220732914Y-176420475D01*
X220732914Y-176420475D02*
X220780533Y-176515713D01*
X206166666Y-339454819D02*
X206166666Y-340169104D01*
X206166666Y-340169104D02*
X206119047Y-340311961D01*
X206119047Y-340311961D02*
X206023809Y-340407200D01*
X206023809Y-340407200D02*
X205880952Y-340454819D01*
X205880952Y-340454819D02*
X205785714Y-340454819D01*
X206595238Y-339550057D02*
X206642857Y-339502438D01*
X206642857Y-339502438D02*
X206738095Y-339454819D01*
X206738095Y-339454819D02*
X206976190Y-339454819D01*
X206976190Y-339454819D02*
X207071428Y-339502438D01*
X207071428Y-339502438D02*
X207119047Y-339550057D01*
X207119047Y-339550057D02*
X207166666Y-339645295D01*
X207166666Y-339645295D02*
X207166666Y-339740533D01*
X207166666Y-339740533D02*
X207119047Y-339883390D01*
X207119047Y-339883390D02*
X206547619Y-340454819D01*
X206547619Y-340454819D02*
X207166666Y-340454819D01*
X216238095Y-161454819D02*
X216238095Y-160454819D01*
X216238095Y-160931009D02*
X216809523Y-160931009D01*
X216809523Y-161454819D02*
X216809523Y-160454819D01*
X217761904Y-160454819D02*
X217285714Y-160454819D01*
X217285714Y-160454819D02*
X217238095Y-160931009D01*
X217238095Y-160931009D02*
X217285714Y-160883390D01*
X217285714Y-160883390D02*
X217380952Y-160835771D01*
X217380952Y-160835771D02*
X217619047Y-160835771D01*
X217619047Y-160835771D02*
X217714285Y-160883390D01*
X217714285Y-160883390D02*
X217761904Y-160931009D01*
X217761904Y-160931009D02*
X217809523Y-161026247D01*
X217809523Y-161026247D02*
X217809523Y-161264342D01*
X217809523Y-161264342D02*
X217761904Y-161359580D01*
X217761904Y-161359580D02*
X217714285Y-161407200D01*
X217714285Y-161407200D02*
X217619047Y-161454819D01*
X217619047Y-161454819D02*
X217380952Y-161454819D01*
X217380952Y-161454819D02*
X217285714Y-161407200D01*
X217285714Y-161407200D02*
X217238095Y-161359580D01*
X262357142Y-254454819D02*
X262023809Y-253978628D01*
X261785714Y-254454819D02*
X261785714Y-253454819D01*
X261785714Y-253454819D02*
X262166666Y-253454819D01*
X262166666Y-253454819D02*
X262261904Y-253502438D01*
X262261904Y-253502438D02*
X262309523Y-253550057D01*
X262309523Y-253550057D02*
X262357142Y-253645295D01*
X262357142Y-253645295D02*
X262357142Y-253788152D01*
X262357142Y-253788152D02*
X262309523Y-253883390D01*
X262309523Y-253883390D02*
X262261904Y-253931009D01*
X262261904Y-253931009D02*
X262166666Y-253978628D01*
X262166666Y-253978628D02*
X261785714Y-253978628D01*
X263309523Y-254454819D02*
X262738095Y-254454819D01*
X263023809Y-254454819D02*
X263023809Y-253454819D01*
X263023809Y-253454819D02*
X262928571Y-253597676D01*
X262928571Y-253597676D02*
X262833333Y-253692914D01*
X262833333Y-253692914D02*
X262738095Y-253740533D01*
X264214285Y-253454819D02*
X263738095Y-253454819D01*
X263738095Y-253454819D02*
X263690476Y-253931009D01*
X263690476Y-253931009D02*
X263738095Y-253883390D01*
X263738095Y-253883390D02*
X263833333Y-253835771D01*
X263833333Y-253835771D02*
X264071428Y-253835771D01*
X264071428Y-253835771D02*
X264166666Y-253883390D01*
X264166666Y-253883390D02*
X264214285Y-253931009D01*
X264214285Y-253931009D02*
X264261904Y-254026247D01*
X264261904Y-254026247D02*
X264261904Y-254264342D01*
X264261904Y-254264342D02*
X264214285Y-254359580D01*
X264214285Y-254359580D02*
X264166666Y-254407200D01*
X264166666Y-254407200D02*
X264071428Y-254454819D01*
X264071428Y-254454819D02*
X263833333Y-254454819D01*
X263833333Y-254454819D02*
X263738095Y-254407200D01*
X263738095Y-254407200D02*
X263690476Y-254359580D01*
X288666666Y-373954819D02*
X288666666Y-374669104D01*
X288666666Y-374669104D02*
X288619047Y-374811961D01*
X288619047Y-374811961D02*
X288523809Y-374907200D01*
X288523809Y-374907200D02*
X288380952Y-374954819D01*
X288380952Y-374954819D02*
X288285714Y-374954819D01*
X289285714Y-374383390D02*
X289190476Y-374335771D01*
X289190476Y-374335771D02*
X289142857Y-374288152D01*
X289142857Y-374288152D02*
X289095238Y-374192914D01*
X289095238Y-374192914D02*
X289095238Y-374145295D01*
X289095238Y-374145295D02*
X289142857Y-374050057D01*
X289142857Y-374050057D02*
X289190476Y-374002438D01*
X289190476Y-374002438D02*
X289285714Y-373954819D01*
X289285714Y-373954819D02*
X289476190Y-373954819D01*
X289476190Y-373954819D02*
X289571428Y-374002438D01*
X289571428Y-374002438D02*
X289619047Y-374050057D01*
X289619047Y-374050057D02*
X289666666Y-374145295D01*
X289666666Y-374145295D02*
X289666666Y-374192914D01*
X289666666Y-374192914D02*
X289619047Y-374288152D01*
X289619047Y-374288152D02*
X289571428Y-374335771D01*
X289571428Y-374335771D02*
X289476190Y-374383390D01*
X289476190Y-374383390D02*
X289285714Y-374383390D01*
X289285714Y-374383390D02*
X289190476Y-374431009D01*
X289190476Y-374431009D02*
X289142857Y-374478628D01*
X289142857Y-374478628D02*
X289095238Y-374573866D01*
X289095238Y-374573866D02*
X289095238Y-374764342D01*
X289095238Y-374764342D02*
X289142857Y-374859580D01*
X289142857Y-374859580D02*
X289190476Y-374907200D01*
X289190476Y-374907200D02*
X289285714Y-374954819D01*
X289285714Y-374954819D02*
X289476190Y-374954819D01*
X289476190Y-374954819D02*
X289571428Y-374907200D01*
X289571428Y-374907200D02*
X289619047Y-374859580D01*
X289619047Y-374859580D02*
X289666666Y-374764342D01*
X289666666Y-374764342D02*
X289666666Y-374573866D01*
X289666666Y-374573866D02*
X289619047Y-374478628D01*
X289619047Y-374478628D02*
X289571428Y-374431009D01*
X289571428Y-374431009D02*
X289476190Y-374383390D01*
X283333333Y-200454819D02*
X283000000Y-199978628D01*
X282761905Y-200454819D02*
X282761905Y-199454819D01*
X282761905Y-199454819D02*
X283142857Y-199454819D01*
X283142857Y-199454819D02*
X283238095Y-199502438D01*
X283238095Y-199502438D02*
X283285714Y-199550057D01*
X283285714Y-199550057D02*
X283333333Y-199645295D01*
X283333333Y-199645295D02*
X283333333Y-199788152D01*
X283333333Y-199788152D02*
X283285714Y-199883390D01*
X283285714Y-199883390D02*
X283238095Y-199931009D01*
X283238095Y-199931009D02*
X283142857Y-199978628D01*
X283142857Y-199978628D02*
X282761905Y-199978628D01*
X283904762Y-199883390D02*
X283809524Y-199835771D01*
X283809524Y-199835771D02*
X283761905Y-199788152D01*
X283761905Y-199788152D02*
X283714286Y-199692914D01*
X283714286Y-199692914D02*
X283714286Y-199645295D01*
X283714286Y-199645295D02*
X283761905Y-199550057D01*
X283761905Y-199550057D02*
X283809524Y-199502438D01*
X283809524Y-199502438D02*
X283904762Y-199454819D01*
X283904762Y-199454819D02*
X284095238Y-199454819D01*
X284095238Y-199454819D02*
X284190476Y-199502438D01*
X284190476Y-199502438D02*
X284238095Y-199550057D01*
X284238095Y-199550057D02*
X284285714Y-199645295D01*
X284285714Y-199645295D02*
X284285714Y-199692914D01*
X284285714Y-199692914D02*
X284238095Y-199788152D01*
X284238095Y-199788152D02*
X284190476Y-199835771D01*
X284190476Y-199835771D02*
X284095238Y-199883390D01*
X284095238Y-199883390D02*
X283904762Y-199883390D01*
X283904762Y-199883390D02*
X283809524Y-199931009D01*
X283809524Y-199931009D02*
X283761905Y-199978628D01*
X283761905Y-199978628D02*
X283714286Y-200073866D01*
X283714286Y-200073866D02*
X283714286Y-200264342D01*
X283714286Y-200264342D02*
X283761905Y-200359580D01*
X283761905Y-200359580D02*
X283809524Y-200407200D01*
X283809524Y-200407200D02*
X283904762Y-200454819D01*
X283904762Y-200454819D02*
X284095238Y-200454819D01*
X284095238Y-200454819D02*
X284190476Y-200407200D01*
X284190476Y-200407200D02*
X284238095Y-200359580D01*
X284238095Y-200359580D02*
X284285714Y-200264342D01*
X284285714Y-200264342D02*
X284285714Y-200073866D01*
X284285714Y-200073866D02*
X284238095Y-199978628D01*
X284238095Y-199978628D02*
X284190476Y-199931009D01*
X284190476Y-199931009D02*
X284095238Y-199883390D01*
D14*
%TO.C,A1*%
X275360000Y-349340000D02*
X293400000Y-349340000D01*
X293400000Y-349340000D02*
X293400000Y-346670000D01*
X278030000Y-346670000D02*
X275360000Y-346670000D01*
X278030000Y-346670000D02*
X278030000Y-308570000D01*
X290730000Y-346670000D02*
X293400000Y-346670000D01*
X290730000Y-344130000D02*
X290730000Y-346670000D01*
X290730000Y-344130000D02*
X293400000Y-344130000D01*
X290730000Y-344130000D02*
X290730000Y-308570000D01*
X293400000Y-344130000D02*
X293400000Y-308570000D01*
X288320000Y-313780000D02*
X280440000Y-313780000D01*
X278030000Y-308570000D02*
X275360000Y-308570000D01*
X290730000Y-308570000D02*
X293400000Y-308570000D01*
X275360000Y-308570000D02*
X275360000Y-349340000D01*
%TO.C,J4*%
X225620000Y-303667929D02*
X225620000Y-304065000D01*
X226380000Y-303667929D02*
X226380000Y-304065000D01*
X228160000Y-303667929D02*
X228160000Y-304065000D01*
X228920000Y-303667929D02*
X228920000Y-304065000D01*
X230700000Y-303667929D02*
X230700000Y-304065000D01*
X231460000Y-303667929D02*
X231460000Y-304065000D01*
X233240000Y-303735000D02*
X233240000Y-304065000D01*
X233620000Y-301355000D02*
X234890000Y-301355000D01*
X234000000Y-303735000D02*
X234000000Y-304065000D01*
X234890000Y-301355000D02*
X234890000Y-302625000D01*
X234950000Y-304065000D02*
X224670000Y-304065000D01*
D10*
%TO.C,mouse-bite-3mm-slot*%
X212000000Y-305000000D02*
G75*
G02*
X212000000Y-308000000I0J-1500000D01*
G01*
X218000000Y-308000000D02*
G75*
G02*
X218000000Y-305000000I0J1500000D01*
G01*
X292000000Y-305000000D02*
G75*
G02*
X292000000Y-308000000I0J-1500000D01*
G01*
X298000000Y-308000000D02*
G75*
G02*
X298000000Y-305000000I0J1500000D01*
G01*
X252000000Y-305000000D02*
G75*
G02*
X252000000Y-308000000I0J-1500000D01*
G01*
X258000000Y-308000000D02*
G75*
G02*
X258000000Y-305000000I0J1500000D01*
G01*
D14*
%TO.C,D12*%
X283455000Y-234290000D02*
X286545000Y-234290000D01*
X283455170Y-234290000D02*
G75*
G02*
X285000462Y-228740000I1544830J2560000D01*
G01*
X284999538Y-228740000D02*
G75*
G02*
X286544830Y-234290000I462J-2990000D01*
G01*
X287500000Y-231730000D02*
G75*
G02*
X282500000Y-231730000I-2500000J0D01*
G01*
X282500000Y-231730000D02*
G75*
G02*
X287500000Y-231730000I2500000J0D01*
G01*
%TO.C,R11*%
X266412258Y-226477500D02*
X265937742Y-226477500D01*
X266412258Y-227522500D02*
X265937742Y-227522500D01*
%TO.C,D14*%
X243455000Y-261830000D02*
X246545000Y-261830000D01*
X243455170Y-261830000D02*
G75*
G02*
X245000462Y-256280000I1544830J2560000D01*
G01*
X244999538Y-256280000D02*
G75*
G02*
X246544830Y-261830000I462J-2990000D01*
G01*
X247500000Y-259270000D02*
G75*
G02*
X242500000Y-259270000I-2500000J0D01*
G01*
X242500000Y-259270000D02*
G75*
G02*
X247500000Y-259270000I2500000J0D01*
G01*
%TO.C,D13*%
X223455000Y-261830000D02*
X226545000Y-261830000D01*
X223455170Y-261830000D02*
G75*
G02*
X225000462Y-256280000I1544830J2560000D01*
G01*
X224999538Y-256280000D02*
G75*
G02*
X226544830Y-261830000I462J-2990000D01*
G01*
X227500000Y-259270000D02*
G75*
G02*
X222500000Y-259270000I-2500000J0D01*
G01*
X222500000Y-259270000D02*
G75*
G02*
X227500000Y-259270000I2500000J0D01*
G01*
%TO.C,R7*%
X266237258Y-199477500D02*
X265762742Y-199477500D01*
X266237258Y-200522500D02*
X265762742Y-200522500D01*
%TO.C,D5*%
X223455000Y-207290000D02*
X226545000Y-207290000D01*
X223455170Y-207290000D02*
G75*
G02*
X225000462Y-201740000I1544830J2560000D01*
G01*
X224999538Y-201740000D02*
G75*
G02*
X226544830Y-207290000I462J-2990000D01*
G01*
X227500000Y-204730000D02*
G75*
G02*
X222500000Y-204730000I-2500000J0D01*
G01*
X222500000Y-204730000D02*
G75*
G02*
X227500000Y-204730000I2500000J0D01*
G01*
%TO.C,R5*%
X226237258Y-199477500D02*
X225762742Y-199477500D01*
X226237258Y-200522500D02*
X225762742Y-200522500D01*
%TO.C,D11*%
X263455000Y-234290000D02*
X266545000Y-234290000D01*
X263455170Y-234290000D02*
G75*
G02*
X265000462Y-228740000I1544830J2560000D01*
G01*
X264999538Y-228740000D02*
G75*
G02*
X266544830Y-234290000I462J-2990000D01*
G01*
X267500000Y-231730000D02*
G75*
G02*
X262500000Y-231730000I-2500000J0D01*
G01*
X262500000Y-231730000D02*
G75*
G02*
X267500000Y-231730000I2500000J0D01*
G01*
%TO.C,R2*%
X246062258Y-171477500D02*
X245587742Y-171477500D01*
X246062258Y-172522500D02*
X245587742Y-172522500D01*
%TO.C,R17*%
X226412258Y-281477500D02*
X225937742Y-281477500D01*
X226412258Y-282522500D02*
X225937742Y-282522500D01*
%TO.C,R4*%
X286062258Y-171477500D02*
X285587742Y-171477500D01*
X286062258Y-172522500D02*
X285587742Y-172522500D01*
%TO.C,U1*%
X238795000Y-159340000D02*
X238795000Y-160990000D01*
X238795000Y-162990000D02*
X238795000Y-164640000D01*
X238795000Y-164640000D02*
X259235000Y-164640000D01*
X259235000Y-159340000D02*
X238795000Y-159340000D01*
X259235000Y-164640000D02*
X259235000Y-159340000D01*
X238795000Y-160990000D02*
G75*
G02*
X238795000Y-162990000I0J-1000000D01*
G01*
%TO.C,D15*%
X263455000Y-261790000D02*
X266545000Y-261790000D01*
X263455170Y-261790000D02*
G75*
G02*
X265000462Y-256240000I1544830J2560000D01*
G01*
X264999538Y-256240000D02*
G75*
G02*
X266544830Y-261790000I462J-2990000D01*
G01*
X267500000Y-259230000D02*
G75*
G02*
X262500000Y-259230000I-2500000J0D01*
G01*
X262500000Y-259230000D02*
G75*
G02*
X267500000Y-259230000I2500000J0D01*
G01*
%TO.C,R1*%
X226062258Y-171477500D02*
X225587742Y-171477500D01*
X226062258Y-172522500D02*
X225587742Y-172522500D01*
%TO.C,D2*%
X243455000Y-179290000D02*
X246545000Y-179290000D01*
X243455170Y-179290000D02*
G75*
G02*
X245000462Y-173740000I1544830J2560000D01*
G01*
X244999538Y-173740000D02*
G75*
G02*
X246544830Y-179290000I462J-2990000D01*
G01*
X247500000Y-176730000D02*
G75*
G02*
X242500000Y-176730000I-2500000J0D01*
G01*
X242500000Y-176730000D02*
G75*
G02*
X247500000Y-176730000I2500000J0D01*
G01*
%TO.C,R9*%
X226062258Y-226477500D02*
X225587742Y-226477500D01*
X226062258Y-227522500D02*
X225587742Y-227522500D01*
%TO.C,D4*%
X283455000Y-179290000D02*
X286545000Y-179290000D01*
X283455170Y-179290000D02*
G75*
G02*
X285000462Y-173740000I1544830J2560000D01*
G01*
X284999538Y-173740000D02*
G75*
G02*
X286544830Y-179290000I462J-2990000D01*
G01*
X287500000Y-176730000D02*
G75*
G02*
X282500000Y-176730000I-2500000J0D01*
G01*
X282500000Y-176730000D02*
G75*
G02*
X287500000Y-176730000I2500000J0D01*
G01*
%TO.C,R12*%
X286412258Y-226477500D02*
X285937742Y-226477500D01*
X286412258Y-227522500D02*
X285937742Y-227522500D01*
%TO.C,D8*%
X283455000Y-207290000D02*
X286545000Y-207290000D01*
X283455170Y-207290000D02*
G75*
G02*
X285000462Y-201740000I1544830J2560000D01*
G01*
X284999538Y-201740000D02*
G75*
G02*
X286544830Y-207290000I462J-2990000D01*
G01*
X287500000Y-204730000D02*
G75*
G02*
X282500000Y-204730000I-2500000J0D01*
G01*
X282500000Y-204730000D02*
G75*
G02*
X287500000Y-204730000I2500000J0D01*
G01*
%TO.C,D17*%
X223455000Y-289830000D02*
X226545000Y-289830000D01*
X223455170Y-289830000D02*
G75*
G02*
X225000462Y-284280000I1544830J2560000D01*
G01*
X224999538Y-284280000D02*
G75*
G02*
X226544830Y-289830000I462J-2990000D01*
G01*
X227500000Y-287270000D02*
G75*
G02*
X222500000Y-287270000I-2500000J0D01*
G01*
X222500000Y-287270000D02*
G75*
G02*
X227500000Y-287270000I2500000J0D01*
G01*
%TO.C,D10*%
X243455000Y-234290000D02*
X246545000Y-234290000D01*
X243455170Y-234290000D02*
G75*
G02*
X245000462Y-228740000I1544830J2560000D01*
G01*
X244999538Y-228740000D02*
G75*
G02*
X246544830Y-234290000I462J-2990000D01*
G01*
X247500000Y-231730000D02*
G75*
G02*
X242500000Y-231730000I-2500000J0D01*
G01*
X242500000Y-231730000D02*
G75*
G02*
X247500000Y-231730000I2500000J0D01*
G01*
%TO.C,D6*%
X243455000Y-207290000D02*
X246545000Y-207290000D01*
X243455170Y-207290000D02*
G75*
G02*
X245000462Y-201740000I1544830J2560000D01*
G01*
X244999538Y-201740000D02*
G75*
G02*
X246544830Y-207290000I462J-2990000D01*
G01*
X247500000Y-204730000D02*
G75*
G02*
X242500000Y-204730000I-2500000J0D01*
G01*
X242500000Y-204730000D02*
G75*
G02*
X247500000Y-204730000I2500000J0D01*
G01*
%TO.C,D20*%
X283455000Y-289830000D02*
X286545000Y-289830000D01*
X283455170Y-289830000D02*
G75*
G02*
X285000462Y-284280000I1544830J2560000D01*
G01*
X284999538Y-284280000D02*
G75*
G02*
X286544830Y-289830000I462J-2990000D01*
G01*
X287500000Y-287270000D02*
G75*
G02*
X282500000Y-287270000I-2500000J0D01*
G01*
X282500000Y-287270000D02*
G75*
G02*
X287500000Y-287270000I2500000J0D01*
G01*
%TO.C,R10*%
X246237258Y-226477500D02*
X245762742Y-226477500D01*
X246237258Y-227522500D02*
X245762742Y-227522500D01*
%TO.C,J3*%
X224870000Y-153275000D02*
X224870000Y-155935000D01*
X224870000Y-155935000D02*
X235150000Y-155935000D01*
X224930000Y-158645000D02*
X224930000Y-157375000D01*
X225820000Y-147275000D02*
X226580000Y-147275000D01*
X225820000Y-153275000D02*
X225820000Y-147275000D01*
X225820000Y-156265000D02*
X225820000Y-155935000D01*
X225880000Y-153275000D02*
X225880000Y-147275000D01*
X226000000Y-153275000D02*
X226000000Y-147275000D01*
X226120000Y-153275000D02*
X226120000Y-147275000D01*
X226200000Y-158645000D02*
X224930000Y-158645000D01*
X226240000Y-153275000D02*
X226240000Y-147275000D01*
X226360000Y-153275000D02*
X226360000Y-147275000D01*
X226480000Y-153275000D02*
X226480000Y-147275000D01*
X226580000Y-147275000D02*
X226580000Y-153275000D01*
X226580000Y-156265000D02*
X226580000Y-155935000D01*
X227470000Y-155935000D02*
X227470000Y-153275000D01*
X228360000Y-147275000D02*
X229120000Y-147275000D01*
X228360000Y-153275000D02*
X228360000Y-147275000D01*
X228360000Y-156332071D02*
X228360000Y-155935000D01*
X229120000Y-147275000D02*
X229120000Y-153275000D01*
X229120000Y-156332071D02*
X229120000Y-155935000D01*
X230010000Y-155935000D02*
X230010000Y-153275000D01*
X230900000Y-147275000D02*
X231660000Y-147275000D01*
X230900000Y-153275000D02*
X230900000Y-147275000D01*
X230900000Y-156332071D02*
X230900000Y-155935000D01*
X231660000Y-147275000D02*
X231660000Y-153275000D01*
X231660000Y-156332071D02*
X231660000Y-155935000D01*
X232550000Y-155935000D02*
X232550000Y-153275000D01*
X233440000Y-147275000D02*
X234200000Y-147275000D01*
X233440000Y-153275000D02*
X233440000Y-147275000D01*
X233440000Y-156332071D02*
X233440000Y-155935000D01*
X234200000Y-147275000D02*
X234200000Y-153275000D01*
X234200000Y-156332071D02*
X234200000Y-155935000D01*
X235150000Y-153275000D02*
X224870000Y-153275000D01*
X235150000Y-155935000D02*
X235150000Y-153275000D01*
%TO.C,R13*%
X226237258Y-253477500D02*
X225762742Y-253477500D01*
X226237258Y-254522500D02*
X225762742Y-254522500D01*
%TO.C,D19*%
X263455000Y-289830000D02*
X266545000Y-289830000D01*
X263455170Y-289830000D02*
G75*
G02*
X265000462Y-284280000I1544830J2560000D01*
G01*
X264999538Y-284280000D02*
G75*
G02*
X266544830Y-289830000I462J-2990000D01*
G01*
X267500000Y-287270000D02*
G75*
G02*
X262500000Y-287270000I-2500000J0D01*
G01*
X262500000Y-287270000D02*
G75*
G02*
X267500000Y-287270000I2500000J0D01*
G01*
%TO.C,D16*%
X283455000Y-261790000D02*
X286545000Y-261790000D01*
X283455170Y-261790000D02*
G75*
G02*
X285000462Y-256240000I1544830J2560000D01*
G01*
X284999538Y-256240000D02*
G75*
G02*
X286544830Y-261790000I462J-2990000D01*
G01*
X287500000Y-259230000D02*
G75*
G02*
X282500000Y-259230000I-2500000J0D01*
G01*
X282500000Y-259230000D02*
G75*
G02*
X287500000Y-259230000I2500000J0D01*
G01*
%TO.C,D9*%
X223455000Y-234290000D02*
X226545000Y-234290000D01*
X223455170Y-234290000D02*
G75*
G02*
X225000462Y-228740000I1544830J2560000D01*
G01*
X224999538Y-228740000D02*
G75*
G02*
X226544830Y-234290000I462J-2990000D01*
G01*
X227500000Y-231730000D02*
G75*
G02*
X222500000Y-231730000I-2500000J0D01*
G01*
X222500000Y-231730000D02*
G75*
G02*
X227500000Y-231730000I2500000J0D01*
G01*
%TO.C,R18*%
X246237258Y-281477500D02*
X245762742Y-281477500D01*
X246237258Y-282522500D02*
X245762742Y-282522500D01*
%TO.C,D7*%
X263455000Y-207290000D02*
X266545000Y-207290000D01*
X263455170Y-207290000D02*
G75*
G02*
X265000462Y-201740000I1544830J2560000D01*
G01*
X264999538Y-201740000D02*
G75*
G02*
X266544830Y-207290000I462J-2990000D01*
G01*
X267500000Y-204730000D02*
G75*
G02*
X262500000Y-204730000I-2500000J0D01*
G01*
X262500000Y-204730000D02*
G75*
G02*
X267500000Y-204730000I2500000J0D01*
G01*
%TO.C,R16*%
X286237258Y-253477500D02*
X285762742Y-253477500D01*
X286237258Y-254522500D02*
X285762742Y-254522500D01*
%TO.C,R14*%
X246412258Y-253477500D02*
X245937742Y-253477500D01*
X246412258Y-254522500D02*
X245937742Y-254522500D01*
%TO.C,R20*%
X286412258Y-281477500D02*
X285937742Y-281477500D01*
X286412258Y-282522500D02*
X285937742Y-282522500D01*
%TO.C,R19*%
X266412258Y-281477500D02*
X265937742Y-281477500D01*
X266412258Y-282522500D02*
X265937742Y-282522500D01*
%TO.C,R6*%
X246062258Y-199477500D02*
X245587742Y-199477500D01*
X246062258Y-200522500D02*
X245587742Y-200522500D01*
%TO.C,C2*%
X241084420Y-167490000D02*
X241365580Y-167490000D01*
X241084420Y-168510000D02*
X241365580Y-168510000D01*
%TO.C,D3*%
X263455000Y-179290000D02*
X266545000Y-179290000D01*
X263455170Y-179290000D02*
G75*
G02*
X265000462Y-173740000I1544830J2560000D01*
G01*
X264999538Y-173740000D02*
G75*
G02*
X266544830Y-179290000I462J-2990000D01*
G01*
X267500000Y-176730000D02*
G75*
G02*
X262500000Y-176730000I-2500000J0D01*
G01*
X262500000Y-176730000D02*
G75*
G02*
X267500000Y-176730000I2500000J0D01*
G01*
%TO.C,R3*%
X266062258Y-171477500D02*
X265587742Y-171477500D01*
X266062258Y-172522500D02*
X265587742Y-172522500D01*
%TO.C,D39*%
X280130000Y-360720000D02*
X289870000Y-360720000D01*
X289870000Y-360720000D02*
X289870000Y-355280000D01*
X279220000Y-358000000D02*
X280130000Y-358000000D01*
X290780000Y-358000000D02*
X289870000Y-358000000D01*
X280130000Y-355280000D02*
X280130000Y-360720000D01*
X281555000Y-355280000D02*
X281555000Y-360720000D01*
X281675000Y-355280000D02*
X281675000Y-360720000D01*
X281795000Y-355280000D02*
X281795000Y-360720000D01*
X289870000Y-355280000D02*
X280130000Y-355280000D01*
%TO.C,D18*%
X243455000Y-289830000D02*
X246545000Y-289830000D01*
X243455170Y-289830000D02*
G75*
G02*
X245000462Y-284280000I1544830J2560000D01*
G01*
X244999538Y-284280000D02*
G75*
G02*
X246544830Y-289830000I462J-2990000D01*
G01*
X247500000Y-287270000D02*
G75*
G02*
X242500000Y-287270000I-2500000J0D01*
G01*
X242500000Y-287270000D02*
G75*
G02*
X247500000Y-287270000I2500000J0D01*
G01*
%TO.C,D1*%
X223455000Y-179290000D02*
X226545000Y-179290000D01*
X223455170Y-179290000D02*
G75*
G02*
X225000462Y-173740000I1544830J2560000D01*
G01*
X224999538Y-173740000D02*
G75*
G02*
X226544830Y-179290000I462J-2990000D01*
G01*
X227500000Y-176730000D02*
G75*
G02*
X222500000Y-176730000I-2500000J0D01*
G01*
X222500000Y-176730000D02*
G75*
G02*
X227500000Y-176730000I2500000J0D01*
G01*
%TO.C,J2*%
X202900000Y-338410000D02*
X205560000Y-338410000D01*
X205560000Y-338410000D02*
X205560000Y-328130000D01*
X208270000Y-338350000D02*
X207000000Y-338350000D01*
X196900000Y-337460000D02*
X196900000Y-336700000D01*
X202900000Y-337460000D02*
X196900000Y-337460000D01*
X205890000Y-337460000D02*
X205560000Y-337460000D01*
X202900000Y-337400000D02*
X196900000Y-337400000D01*
X202900000Y-337280000D02*
X196900000Y-337280000D01*
X202900000Y-337160000D02*
X196900000Y-337160000D01*
X208270000Y-337080000D02*
X208270000Y-338350000D01*
X202900000Y-337040000D02*
X196900000Y-337040000D01*
X202900000Y-336920000D02*
X196900000Y-336920000D01*
X202900000Y-336800000D02*
X196900000Y-336800000D01*
X196900000Y-336700000D02*
X202900000Y-336700000D01*
X205890000Y-336700000D02*
X205560000Y-336700000D01*
X205560000Y-335810000D02*
X202900000Y-335810000D01*
X196900000Y-334920000D02*
X196900000Y-334160000D01*
X202900000Y-334920000D02*
X196900000Y-334920000D01*
X205957071Y-334920000D02*
X205560000Y-334920000D01*
X196900000Y-334160000D02*
X202900000Y-334160000D01*
X205957071Y-334160000D02*
X205560000Y-334160000D01*
X205560000Y-333270000D02*
X202900000Y-333270000D01*
X196900000Y-332380000D02*
X196900000Y-331620000D01*
X202900000Y-332380000D02*
X196900000Y-332380000D01*
X205957071Y-332380000D02*
X205560000Y-332380000D01*
X196900000Y-331620000D02*
X202900000Y-331620000D01*
X205957071Y-331620000D02*
X205560000Y-331620000D01*
X205560000Y-330730000D02*
X202900000Y-330730000D01*
X196900000Y-329840000D02*
X196900000Y-329080000D01*
X202900000Y-329840000D02*
X196900000Y-329840000D01*
X205957071Y-329840000D02*
X205560000Y-329840000D01*
X196900000Y-329080000D02*
X202900000Y-329080000D01*
X205957071Y-329080000D02*
X205560000Y-329080000D01*
X202900000Y-328130000D02*
X202900000Y-338410000D01*
X205560000Y-328130000D02*
X202900000Y-328130000D01*
%TO.C,R15*%
X266412258Y-253477500D02*
X265937742Y-253477500D01*
X266412258Y-254522500D02*
X265937742Y-254522500D01*
%TO.C,J8*%
X283355000Y-384725000D02*
X283355000Y-378725000D01*
X284115000Y-384725000D02*
X283355000Y-384725000D01*
X285895000Y-384725000D02*
X285895000Y-378725000D01*
X286655000Y-384725000D02*
X285895000Y-384725000D01*
X282405000Y-378725000D02*
X287605000Y-378725000D01*
X284115000Y-378725000D02*
X284115000Y-384725000D01*
X285995000Y-378725000D02*
X285995000Y-384725000D01*
X286115000Y-378725000D02*
X286115000Y-384725000D01*
X286235000Y-378725000D02*
X286235000Y-384725000D01*
X286355000Y-378725000D02*
X286355000Y-384725000D01*
X286475000Y-378725000D02*
X286475000Y-384725000D01*
X286595000Y-378725000D02*
X286595000Y-384725000D01*
X286655000Y-378725000D02*
X286655000Y-384725000D01*
X287605000Y-378725000D02*
X287605000Y-376065000D01*
X282405000Y-376065000D02*
X282405000Y-378725000D01*
X285005000Y-376065000D02*
X285005000Y-378725000D01*
X287605000Y-376065000D02*
X282405000Y-376065000D01*
X285895000Y-375735000D02*
X285895000Y-376065000D01*
X286655000Y-375735000D02*
X286655000Y-376065000D01*
X283355000Y-375667929D02*
X283355000Y-376065000D01*
X284115000Y-375667929D02*
X284115000Y-376065000D01*
X286275000Y-373355000D02*
X287545000Y-373355000D01*
X287545000Y-373355000D02*
X287545000Y-374625000D01*
%TO.C,R8*%
X286412258Y-199477500D02*
X285937742Y-199477500D01*
X286412258Y-200522500D02*
X285937742Y-200522500D01*
D15*
%TO.C,G\u002A\u002A\u002A*%
G36*
X302764749Y-320516280D02*
G01*
X302832248Y-320566438D01*
X302876306Y-320642228D01*
X302880952Y-320657424D01*
X302889127Y-320695098D01*
X302889068Y-320728909D01*
X302877589Y-320765149D01*
X302851503Y-320810105D01*
X302807624Y-320870068D01*
X302742763Y-320951327D01*
X302714438Y-320986057D01*
X302627032Y-321092961D01*
X302756635Y-321119154D01*
X302923597Y-321168121D01*
X303061539Y-321240924D01*
X303169203Y-321336192D01*
X303245327Y-321452552D01*
X303288652Y-321588632D01*
X303298857Y-321709538D01*
X303284241Y-321856996D01*
X303240007Y-321983695D01*
X303162939Y-322097684D01*
X303128968Y-322134687D01*
X303027774Y-322212842D01*
X302906496Y-322266648D01*
X302775312Y-322294068D01*
X302644398Y-322293062D01*
X302523932Y-322261593D01*
X302514974Y-322257663D01*
X302394420Y-322182298D01*
X302289331Y-322075288D01*
X302203677Y-321942337D01*
X302141427Y-321789149D01*
X302115925Y-321684336D01*
X302091574Y-321551672D01*
X302032590Y-321564627D01*
X301973204Y-321582049D01*
X301893775Y-321610932D01*
X301807665Y-321645795D01*
X301728236Y-321681158D01*
X301668849Y-321711540D01*
X301657529Y-321718475D01*
X301608132Y-321750841D01*
X301758344Y-321901151D01*
X301892011Y-322045998D01*
X302028467Y-322213638D01*
X302157085Y-322390164D01*
X302267234Y-322561668D01*
X302280578Y-322584489D01*
X302453109Y-322920318D01*
X302598400Y-323279760D01*
X302715772Y-323657765D01*
X302804547Y-324049284D01*
X302864047Y-324449269D01*
X302893593Y-324852672D01*
X302892507Y-325254442D01*
X302860111Y-325649532D01*
X302795727Y-326032893D01*
X302762825Y-326174077D01*
X302663918Y-326516321D01*
X302542010Y-326853385D01*
X302399907Y-327179919D01*
X302240412Y-327490575D01*
X302066332Y-327780002D01*
X301880471Y-328042852D01*
X301685635Y-328273776D01*
X301632622Y-328329180D01*
X301569483Y-328390374D01*
X301494435Y-328458669D01*
X301415252Y-328527482D01*
X301339706Y-328590229D01*
X301275570Y-328640326D01*
X301230618Y-328671192D01*
X301225374Y-328674089D01*
X301226368Y-328693989D01*
X301238226Y-328743522D01*
X301258636Y-328815533D01*
X301285283Y-328902868D01*
X301315853Y-328998372D01*
X301348032Y-329094890D01*
X301379505Y-329185269D01*
X301407958Y-329262353D01*
X301431077Y-329318987D01*
X301439963Y-329337495D01*
X301494020Y-329424124D01*
X301564562Y-329516032D01*
X301643224Y-329604049D01*
X301721641Y-329679005D01*
X301791448Y-329731730D01*
X301808312Y-329741260D01*
X301900494Y-329802251D01*
X301959268Y-329871868D01*
X301983445Y-329946126D01*
X301971837Y-330021038D01*
X301923257Y-330092617D01*
X301915337Y-330100369D01*
X301829324Y-330160038D01*
X301711809Y-330209684D01*
X301569429Y-330247809D01*
X301408818Y-330272913D01*
X301236611Y-330283498D01*
X301113511Y-330281504D01*
X300885897Y-330251834D01*
X300673163Y-330186693D01*
X300477405Y-330087538D01*
X300300717Y-329955826D01*
X300145194Y-329793011D01*
X300012931Y-329600551D01*
X299944457Y-329468977D01*
X299910105Y-329395610D01*
X299882191Y-329336940D01*
X299864588Y-329301058D01*
X299860655Y-329293905D01*
X299841746Y-329297613D01*
X299802408Y-329315000D01*
X299795785Y-329318369D01*
X299755158Y-329334530D01*
X299685528Y-329357254D01*
X299595847Y-329383804D01*
X299495065Y-329411443D01*
X299469688Y-329418072D01*
X299324400Y-329457016D01*
X299212668Y-329492221D01*
X299129843Y-329528149D01*
X299071273Y-329569259D01*
X299032309Y-329620014D01*
X299008299Y-329684875D01*
X298994594Y-329768303D01*
X298986543Y-329874758D01*
X298986140Y-329881943D01*
X298975362Y-330001874D01*
X298956083Y-330091248D01*
X298924911Y-330158249D01*
X298878459Y-330211060D01*
X298836631Y-330242895D01*
X298787614Y-330268901D01*
X298731362Y-330282622D01*
X298661109Y-330283959D01*
X298570093Y-330272808D01*
X298451547Y-330249071D01*
X298396077Y-330236305D01*
X298219391Y-330193998D01*
X298076811Y-330158343D01*
X297964168Y-330128112D01*
X297877294Y-330102073D01*
X297812020Y-330078997D01*
X297764180Y-330057655D01*
X297736796Y-330041758D01*
X297648953Y-329966216D01*
X297558784Y-329855804D01*
X297468291Y-329714487D01*
X297379478Y-329546233D01*
X297294348Y-329355007D01*
X297214903Y-329144775D01*
X297143147Y-328919503D01*
X297110656Y-328802000D01*
X297067034Y-328635923D01*
X296705787Y-328640194D01*
X296554158Y-328643771D01*
X296381411Y-328650720D01*
X296205200Y-328660164D01*
X296043183Y-328671226D01*
X295985058Y-328676016D01*
X295835702Y-328688212D01*
X295719035Y-328695116D01*
X295628982Y-328696363D01*
X295559467Y-328691588D01*
X295504415Y-328680428D01*
X295457748Y-328662517D01*
X295420873Y-328642165D01*
X295367513Y-328601264D01*
X295331667Y-328550816D01*
X295310381Y-328482852D01*
X295300701Y-328389397D01*
X295299231Y-328313881D01*
X295300913Y-328266604D01*
X295709539Y-328266604D01*
X295717533Y-328286111D01*
X295747737Y-328290443D01*
X295782808Y-328286454D01*
X295850697Y-328278487D01*
X295949515Y-328269812D01*
X296071130Y-328260919D01*
X296207413Y-328252295D01*
X296350233Y-328244427D01*
X296491459Y-328237805D01*
X296622962Y-328232917D01*
X296712416Y-328230642D01*
X296982602Y-328225615D01*
X296970872Y-328151106D01*
X296962021Y-328087992D01*
X296952300Y-328008643D01*
X296947299Y-327963288D01*
X296935456Y-327849979D01*
X296845151Y-327859509D01*
X296749265Y-327874187D01*
X296635925Y-327898928D01*
X296510473Y-327931817D01*
X296378251Y-327970937D01*
X296244600Y-328014375D01*
X296114862Y-328060216D01*
X295994380Y-328106544D01*
X295888494Y-328151444D01*
X295802546Y-328193003D01*
X295741878Y-328229305D01*
X295711832Y-328258434D01*
X295709539Y-328266604D01*
X295300913Y-328266604D01*
X295303484Y-328194333D01*
X295318127Y-328104489D01*
X295345985Y-328035715D01*
X295389884Y-327979378D01*
X295416717Y-327954860D01*
X295498981Y-327897483D01*
X295612705Y-327835123D01*
X295750997Y-327770288D01*
X295906965Y-327705484D01*
X296073716Y-327643218D01*
X296244358Y-327585996D01*
X296411998Y-327536324D01*
X296569745Y-327496710D01*
X296710705Y-327469660D01*
X296773074Y-327461595D01*
X296901385Y-327448449D01*
X296901385Y-327345965D01*
X296899283Y-327284698D01*
X296890196Y-327251565D01*
X296869952Y-327235723D01*
X296857423Y-327231699D01*
X296815889Y-327226339D01*
X296742040Y-327222618D01*
X296642603Y-327220478D01*
X296524304Y-327219860D01*
X296393869Y-327220704D01*
X296258024Y-327222952D01*
X296123494Y-327226543D01*
X295997006Y-327231419D01*
X295885286Y-327237521D01*
X295841786Y-327240638D01*
X295733766Y-327248853D01*
X295656553Y-327253312D01*
X295602010Y-327253465D01*
X295561999Y-327248762D01*
X295528382Y-327238653D01*
X295493022Y-327222589D01*
X295480235Y-327216215D01*
X295408424Y-327174670D01*
X295359209Y-327129202D01*
X295328129Y-327071242D01*
X295310722Y-326992221D01*
X295302526Y-326883570D01*
X295302167Y-326874228D01*
X295302516Y-326793075D01*
X295709539Y-326793075D01*
X295713991Y-326833682D01*
X295730582Y-326843225D01*
X295740835Y-326840325D01*
X295778754Y-326833322D01*
X295849317Y-326827292D01*
X295946100Y-326822308D01*
X296062682Y-326818442D01*
X296192638Y-326815767D01*
X296329546Y-326814355D01*
X296466983Y-326814278D01*
X296598527Y-326815608D01*
X296717754Y-326818418D01*
X296818241Y-326822781D01*
X296881327Y-326827486D01*
X296935456Y-326833436D01*
X297023002Y-326843060D01*
X297130294Y-326861420D01*
X297207864Y-326886999D01*
X297260372Y-326924231D01*
X297292478Y-326977549D01*
X297308841Y-327051388D01*
X297314121Y-327150180D01*
X297313683Y-327238856D01*
X297319680Y-327546425D01*
X297346042Y-327863730D01*
X297391214Y-328183374D01*
X297453640Y-328497961D01*
X297531764Y-328800095D01*
X297624030Y-329082379D01*
X297728882Y-329337417D01*
X297775066Y-329432230D01*
X297825027Y-329527717D01*
X297867535Y-329599022D01*
X297909801Y-329651372D01*
X297959037Y-329689993D01*
X298022454Y-329720114D01*
X298107264Y-329746961D01*
X298220679Y-329775761D01*
X298263129Y-329785988D01*
X298365132Y-329810359D01*
X298453041Y-329831129D01*
X298520171Y-329846736D01*
X298559834Y-329855620D01*
X298567597Y-329857077D01*
X298573233Y-329839223D01*
X298580182Y-329792211D01*
X298587017Y-329725862D01*
X298587558Y-329719517D01*
X298618787Y-329554257D01*
X298682160Y-329409379D01*
X298776134Y-329287222D01*
X298899169Y-329190124D01*
X298957539Y-329158158D01*
X299023279Y-329130637D01*
X299115576Y-329098104D01*
X299222915Y-329064348D01*
X299333779Y-329033161D01*
X299350326Y-329028856D01*
X299484783Y-328992437D01*
X299587392Y-328959384D01*
X299664793Y-328926301D01*
X299723626Y-328889792D01*
X299770530Y-328846462D01*
X299812144Y-328792915D01*
X299812395Y-328792551D01*
X299881829Y-328717709D01*
X299961044Y-328679087D01*
X300046671Y-328677849D01*
X300101918Y-328697200D01*
X300143600Y-328733930D01*
X300175273Y-328793989D01*
X300200492Y-328883324D01*
X300215042Y-328959526D01*
X300251524Y-329131821D01*
X300299614Y-329275265D01*
X300363912Y-329399451D01*
X300449013Y-329513970D01*
X300514724Y-329584814D01*
X300642932Y-329700655D01*
X300769033Y-329784404D01*
X300902819Y-329841193D01*
X301054084Y-329876150D01*
X301077632Y-329879653D01*
X301177690Y-329890282D01*
X301248801Y-329890486D01*
X301279689Y-329883935D01*
X301300318Y-329872366D01*
X301304556Y-329857185D01*
X301289655Y-329830319D01*
X301252864Y-329783698D01*
X301240378Y-329768559D01*
X301165278Y-329662432D01*
X301089484Y-329527841D01*
X301017796Y-329375012D01*
X300955011Y-329214169D01*
X300906047Y-329056000D01*
X300861806Y-328902183D01*
X300817176Y-328779194D01*
X300768153Y-328678950D01*
X300710733Y-328593370D01*
X300640912Y-328514371D01*
X300634482Y-328507905D01*
X300511785Y-328401700D01*
X300375234Y-328317005D01*
X300214542Y-328247868D01*
X300144071Y-328224140D01*
X300035814Y-328185735D01*
X299960945Y-328147439D01*
X299914079Y-328104508D01*
X299889828Y-328052200D01*
X299882909Y-327994200D01*
X299896889Y-327908110D01*
X299939902Y-327842310D01*
X300007414Y-327803068D01*
X300024197Y-327798805D01*
X300088196Y-327797908D01*
X300178094Y-327813503D01*
X300285496Y-327843343D01*
X300402011Y-327885182D01*
X300492735Y-327924198D01*
X300612810Y-327984616D01*
X300715518Y-328048579D01*
X300814441Y-328125547D01*
X300919467Y-328221426D01*
X301020087Y-328318108D01*
X301105082Y-328259288D01*
X301156303Y-328219212D01*
X301223450Y-328160317D01*
X301295712Y-328092286D01*
X301332835Y-328055380D01*
X301532796Y-327828706D01*
X301720490Y-327569533D01*
X301893541Y-327283167D01*
X302049576Y-326974913D01*
X302186220Y-326650075D01*
X302301100Y-326313960D01*
X302391840Y-325971872D01*
X302456067Y-325629117D01*
X302471791Y-325510426D01*
X302482111Y-325381484D01*
X302487083Y-325223684D01*
X302487026Y-325046833D01*
X302482258Y-324860736D01*
X302473096Y-324675200D01*
X302459858Y-324500031D01*
X302442863Y-324345035D01*
X302431550Y-324269077D01*
X302372187Y-323960863D01*
X302301769Y-323680935D01*
X302217263Y-323419335D01*
X302115638Y-323166106D01*
X302056805Y-323038154D01*
X301892473Y-322732254D01*
X301708304Y-322459987D01*
X301504156Y-322221236D01*
X301279886Y-322015883D01*
X301035354Y-321843811D01*
X300770418Y-321704903D01*
X300484936Y-321599041D01*
X300246561Y-321539059D01*
X300188254Y-321528461D01*
X300126073Y-321520230D01*
X300054404Y-321514115D01*
X299967632Y-321509862D01*
X299860144Y-321507218D01*
X299726326Y-321505931D01*
X299560563Y-321505746D01*
X299509770Y-321505852D01*
X299009292Y-321516333D01*
X298522147Y-321544797D01*
X298051381Y-321590708D01*
X297600044Y-321653533D01*
X297171186Y-321732736D01*
X296767855Y-321827785D01*
X296393100Y-321938143D01*
X296049971Y-322063277D01*
X295859536Y-322145693D01*
X295785950Y-322180408D01*
X295741264Y-322205255D01*
X295718751Y-322226423D01*
X295711685Y-322250099D01*
X295713135Y-322280362D01*
X295719308Y-322344538D01*
X295856077Y-322357191D01*
X296062078Y-322387995D01*
X296292884Y-322444233D01*
X296416994Y-322481826D01*
X296542815Y-322525496D01*
X296677658Y-322577960D01*
X296816247Y-322636602D01*
X296953304Y-322698808D01*
X297083552Y-322761963D01*
X297201716Y-322823454D01*
X297302518Y-322880665D01*
X297380681Y-322930981D01*
X297430929Y-322971789D01*
X297445983Y-322991670D01*
X297466343Y-323080151D01*
X297457367Y-323186103D01*
X297437724Y-323255505D01*
X297362301Y-323500803D01*
X297297664Y-323777215D01*
X297244547Y-324078092D01*
X297203679Y-324396787D01*
X297175792Y-324726651D01*
X297161617Y-325061036D01*
X297161884Y-325393296D01*
X297173377Y-325659242D01*
X297181539Y-325798366D01*
X297185225Y-325904265D01*
X297183435Y-325982636D01*
X297175170Y-326039177D01*
X297159429Y-326079585D01*
X297135214Y-326109556D01*
X297101524Y-326134788D01*
X297088530Y-326142822D01*
X297042086Y-326165564D01*
X296971209Y-326194380D01*
X296888889Y-326224096D01*
X296862308Y-326232932D01*
X296642676Y-326310020D01*
X296408257Y-326402396D01*
X296176273Y-326502927D01*
X295963942Y-326604484D01*
X295958654Y-326607168D01*
X295860717Y-326657404D01*
X295792465Y-326694286D01*
X295748562Y-326721796D01*
X295723671Y-326743916D01*
X295712457Y-326764629D01*
X295709582Y-326787916D01*
X295709539Y-326793075D01*
X295302516Y-326793075D01*
X295302732Y-326742758D01*
X295317257Y-326640124D01*
X295348595Y-326557697D01*
X295399599Y-326486847D01*
X295444823Y-326442761D01*
X295505929Y-326397984D01*
X295597821Y-326342517D01*
X295714598Y-326279130D01*
X295850360Y-326210594D01*
X295999209Y-326139681D01*
X296155245Y-326069161D01*
X296312567Y-326001805D01*
X296465276Y-325940385D01*
X296607473Y-325887671D01*
X296676693Y-325864166D01*
X296774385Y-325832270D01*
X296759132Y-325544019D01*
X296754290Y-325423690D01*
X296751918Y-325300070D01*
X296752117Y-325186521D01*
X296754984Y-325096404D01*
X296755715Y-325084807D01*
X296767549Y-324913846D01*
X296575583Y-324914184D01*
X296438455Y-324917111D01*
X296290350Y-324925840D01*
X296124005Y-324941009D01*
X295932160Y-324963253D01*
X295767185Y-324984960D01*
X295665303Y-324998582D01*
X295593803Y-325006595D01*
X295544379Y-325008891D01*
X295508726Y-325005363D01*
X295478538Y-324995904D01*
X295446350Y-324980825D01*
X295382638Y-324939915D01*
X295339334Y-324887153D01*
X295313719Y-324815691D01*
X295303075Y-324718683D01*
X295303421Y-324620769D01*
X295307967Y-324555013D01*
X295709539Y-324555013D01*
X295716773Y-324574410D01*
X295744914Y-324578018D01*
X295781673Y-324572508D01*
X295885521Y-324556708D01*
X296021836Y-324541740D01*
X296184009Y-324528185D01*
X296365430Y-324516623D01*
X296486193Y-324510643D01*
X296589074Y-324505377D01*
X296676601Y-324499528D01*
X296742076Y-324493654D01*
X296778803Y-324488312D01*
X296784324Y-324485850D01*
X296786554Y-324463064D01*
X296792518Y-324409288D01*
X296801332Y-324332336D01*
X296812110Y-324240020D01*
X296813155Y-324231151D01*
X296823575Y-324138503D01*
X296831323Y-324061134D01*
X296835709Y-324006617D01*
X296836044Y-323982528D01*
X296835822Y-323982078D01*
X296813164Y-323983709D01*
X296760976Y-323998578D01*
X296685511Y-324024223D01*
X296593026Y-324058181D01*
X296489772Y-324097992D01*
X296382006Y-324141191D01*
X296275980Y-324185318D01*
X296177950Y-324227909D01*
X296094169Y-324266504D01*
X296030891Y-324298640D01*
X296028901Y-324299742D01*
X295939996Y-324353059D01*
X295857288Y-324409658D01*
X295787257Y-324464360D01*
X295736382Y-324511985D01*
X295711144Y-324547353D01*
X295709539Y-324555013D01*
X295307967Y-324555013D01*
X295311782Y-324499832D01*
X295330402Y-324406641D01*
X295363512Y-324330330D01*
X295415344Y-324260038D01*
X295463254Y-324210314D01*
X295561127Y-324124085D01*
X295673380Y-324042350D01*
X295803877Y-323963148D01*
X295956480Y-323884520D01*
X296135052Y-323804503D01*
X296343456Y-323721138D01*
X296585554Y-323632463D01*
X296637616Y-323614177D01*
X296835822Y-323544987D01*
X296930693Y-323511869D01*
X296964637Y-323408382D01*
X296986345Y-323337362D01*
X297004018Y-323271138D01*
X297010079Y-323243611D01*
X297021576Y-323182327D01*
X296770980Y-323063172D01*
X296536965Y-322958720D01*
X296321201Y-322877851D01*
X296113323Y-322817540D01*
X295902966Y-322774761D01*
X295689167Y-322747389D01*
X295558567Y-322728357D01*
X295460324Y-322698553D01*
X295388653Y-322655690D01*
X295348077Y-322612546D01*
X295325504Y-322559842D01*
X295309819Y-322479363D01*
X295301257Y-322381838D01*
X295300051Y-322277998D01*
X295306433Y-322178572D01*
X295320639Y-322094291D01*
X295335819Y-322049058D01*
X295369643Y-321990837D01*
X295416721Y-321938492D01*
X295482582Y-321888016D01*
X295572754Y-321835401D01*
X295692766Y-321776640D01*
X295743412Y-321753626D01*
X296076853Y-321619089D01*
X296443678Y-321498582D01*
X296840585Y-321392675D01*
X297264271Y-321301939D01*
X297711435Y-321226945D01*
X298178773Y-321168264D01*
X298662984Y-321126467D01*
X299160765Y-321102125D01*
X299548846Y-321095642D01*
X299560563Y-321095627D01*
X299715045Y-321095433D01*
X299848437Y-321096091D01*
X299955288Y-321097964D01*
X300041865Y-321101398D01*
X300114434Y-321106739D01*
X300179262Y-321114334D01*
X300242615Y-321124529D01*
X300310760Y-321137671D01*
X300311308Y-321137782D01*
X300600438Y-321209714D01*
X300869197Y-321305321D01*
X301070178Y-321397659D01*
X301265539Y-321496157D01*
X301265998Y-321495829D01*
X302503624Y-321495829D01*
X302514964Y-321591578D01*
X302530987Y-321669025D01*
X302557222Y-321746057D01*
X302566524Y-321766164D01*
X302612970Y-321836582D01*
X302667701Y-321874224D01*
X302739869Y-321885384D01*
X302739936Y-321885384D01*
X302812096Y-321867940D01*
X302864997Y-321819045D01*
X302893013Y-321744109D01*
X302890755Y-321662466D01*
X302854654Y-321597907D01*
X302784114Y-321549934D01*
X302678541Y-321518053D01*
X302608851Y-321507586D01*
X302503624Y-321495829D01*
X301265998Y-321495829D01*
X301345039Y-321439290D01*
X301485189Y-321352932D01*
X301651514Y-321273049D01*
X301831129Y-321204972D01*
X302011147Y-321154033D01*
X302059539Y-321143633D01*
X302167000Y-321122299D01*
X302254923Y-320953682D01*
X302376396Y-320762597D01*
X302479616Y-320641564D01*
X302503624Y-320617060D01*
X302545376Y-320574446D01*
X302592983Y-320531786D01*
X302629743Y-320508399D01*
X302662962Y-320499099D01*
X302681753Y-320498110D01*
X302764749Y-320516280D01*
G37*
G36*
X298941305Y-328497865D02*
G01*
X299016063Y-328530207D01*
X299059207Y-328569702D01*
X299099625Y-328644205D01*
X299106890Y-328723719D01*
X299083860Y-328798850D01*
X299033398Y-328860206D01*
X298959203Y-328898162D01*
X298875383Y-328904025D01*
X298799291Y-328878912D01*
X298738148Y-328829414D01*
X298699174Y-328762117D01*
X298689589Y-328683612D01*
X298694129Y-328656276D01*
X298730331Y-328577731D01*
X298789532Y-328523739D01*
X298862826Y-328496413D01*
X298941305Y-328497865D01*
G37*
%TD*%
M02*
