%TF.GenerationSoftware,KiCad,Pcbnew,8.0.3*%
%TF.CreationDate,2024-10-04T23:37:14+02:00*%
%TF.ProjectId,Ovve_Leds,4f767665-5f4c-4656-9473-2e6b69636164,rev?*%
%TF.SameCoordinates,Original*%
%TF.FileFunction,Paste,Top*%
%TF.FilePolarity,Positive*%
%FSLAX46Y46*%
G04 Gerber Fmt 4.6, Leading zero omitted, Abs format (unit mm)*
G04 Created by KiCad (PCBNEW 8.0.3) date 2024-10-04 23:37:14*
%MOMM*%
%LPD*%
G01*
G04 APERTURE LIST*
G04 Aperture macros list*
%AMRoundRect*
0 Rectangle with rounded corners*
0 $1 Rounding radius*
0 $2 $3 $4 $5 $6 $7 $8 $9 X,Y pos of 4 corners*
0 Add a 4 corners polygon primitive as box body*
4,1,4,$2,$3,$4,$5,$6,$7,$8,$9,$2,$3,0*
0 Add four circle primitives for the rounded corners*
1,1,$1+$1,$2,$3*
1,1,$1+$1,$4,$5*
1,1,$1+$1,$6,$7*
1,1,$1+$1,$8,$9*
0 Add four rect primitives between the rounded corners*
20,1,$1+$1,$2,$3,$4,$5,0*
20,1,$1+$1,$4,$5,$6,$7,0*
20,1,$1+$1,$6,$7,$8,$9,0*
20,1,$1+$1,$8,$9,$2,$3,0*%
G04 Aperture macros list end*
%ADD10RoundRect,0.200000X0.200000X0.275000X-0.200000X0.275000X-0.200000X-0.275000X0.200000X-0.275000X0*%
%ADD11RoundRect,0.225000X-0.225000X-0.250000X0.225000X-0.250000X0.225000X0.250000X-0.225000X0.250000X0*%
G04 APERTURE END LIST*
D10*
%TO.C,R11*%
X267000000Y-227000000D03*
X265350000Y-227000000D03*
%TD*%
%TO.C,R7*%
X266825000Y-200000000D03*
X265175000Y-200000000D03*
%TD*%
%TO.C,R5*%
X226825000Y-200000000D03*
X225175000Y-200000000D03*
%TD*%
%TO.C,R2*%
X246650000Y-172000000D03*
X245000000Y-172000000D03*
%TD*%
%TO.C,R17*%
X227000000Y-282000000D03*
X225350000Y-282000000D03*
%TD*%
%TO.C,R4*%
X286650000Y-172000000D03*
X285000000Y-172000000D03*
%TD*%
%TO.C,R1*%
X226650000Y-172000000D03*
X225000000Y-172000000D03*
%TD*%
%TO.C,R9*%
X226650000Y-227000000D03*
X225000000Y-227000000D03*
%TD*%
%TO.C,R12*%
X287000000Y-227000000D03*
X285350000Y-227000000D03*
%TD*%
%TO.C,R10*%
X246825000Y-227000000D03*
X245175000Y-227000000D03*
%TD*%
%TO.C,R13*%
X226825000Y-254000000D03*
X225175000Y-254000000D03*
%TD*%
%TO.C,R18*%
X246825000Y-282000000D03*
X245175000Y-282000000D03*
%TD*%
%TO.C,R16*%
X286825000Y-254000000D03*
X285175000Y-254000000D03*
%TD*%
%TO.C,R14*%
X247000000Y-254000000D03*
X245350000Y-254000000D03*
%TD*%
%TO.C,R20*%
X287000000Y-282000000D03*
X285350000Y-282000000D03*
%TD*%
%TO.C,R19*%
X267000000Y-282000000D03*
X265350000Y-282000000D03*
%TD*%
%TO.C,R6*%
X246650000Y-200000000D03*
X245000000Y-200000000D03*
%TD*%
D11*
%TO.C,C2*%
X240450000Y-168000000D03*
X242000000Y-168000000D03*
%TD*%
D10*
%TO.C,R3*%
X266650000Y-172000000D03*
X265000000Y-172000000D03*
%TD*%
%TO.C,R15*%
X267000000Y-254000000D03*
X265350000Y-254000000D03*
%TD*%
%TO.C,R8*%
X287000000Y-200000000D03*
X285350000Y-200000000D03*
%TD*%
M02*
